<svg width="96" height="37" viewBox="0 0 96 37" fill="none" xmlns="http://www.w3.org/2000/svg">
<mask id="path-1-inside-1_391_2066" fill="white">
<path d="M4 10C4 4.47715 8.47715 0 14 0H82C87.5229 0 92 4.47715 92 10V27C92 32.5228 87.5229 37 82 37H14C8.47715 37 4 32.5228 4 27V10Z"/>
</mask>
<path d="M4 10C4 2.8203 9.8203 -3 17 -3H79C86.1797 -3 92 2.8203 92 10C92 6.13401 87.5229 3 82 3H14C8.47715 3 4 6.13401 4 10ZM92 27C92 34.1797 86.1797 40 79 40H17C9.8203 40 4 34.1797 4 27C4 30.866 8.47715 34 14 34H82C87.5229 34 92 30.866 92 27ZM4 37V0V37ZM92 0V37V0Z" fill="#840B0B" mask="url(#path-1-inside-1_391_2066)"/>
<path d="M4 10C4 2.8203 9.8203 -3 17 -3H79C86.1797 -3 92 2.8203 92 10C92 6.13401 87.5229 3 82 3H14C8.47715 3 4 6.13401 4 10ZM92 27C92 34.1797 86.1797 40 79 40H17C9.8203 40 4 34.1797 4 27C4 30.866 8.47715 34 14 34H82C87.5229 34 92 30.866 92 27ZM4 37V0V37ZM92 0V37V0Z" fill="url(#paint0_linear_391_2066)" mask="url(#path-1-inside-1_391_2066)"/>
<path d="M4.90674 13.1973C5.64893 13.2591 6.29834 13.2962 6.85498 13.3086C7.42399 13.321 7.90641 13.3271 8.30225 13.3271C8.75993 13.3271 9.15576 13.3148 9.48975 13.29C9.8361 13.2529 10.2876 13.2035 10.8442 13.1416C11.3143 13.0798 11.9204 12.9993 12.6626 12.9004C13.4048 12.7891 14.3078 12.6468 15.3716 12.4736C15.2355 12.6839 15.118 12.9066 15.019 13.1416C14.9325 13.3643 14.8582 13.5684 14.7964 13.7539C14.7345 13.9766 14.6789 14.193 14.6294 14.4033C14.5923 14.6383 14.549 14.929 14.4995 15.2754C14.45 15.5723 14.3882 15.9495 14.314 16.4072C14.2521 16.8525 14.1717 17.3844 14.0728 18.0029C13.7017 17.0381 13.3244 16.2959 12.9409 15.7764C12.5698 15.2568 12.2235 14.8734 11.9019 14.626C11.5308 14.3415 11.1782 14.1807 10.8442 14.1436C10.3618 14.1436 9.96598 14.2363 9.65674 14.4219C9.34749 14.6074 9.09391 14.8486 8.896 15.1455C8.71045 15.43 8.5682 15.7454 8.46924 16.0918C8.37028 16.4258 8.30225 16.7536 8.26514 17.0752C8.22803 17.3844 8.20329 17.6628 8.19092 17.9102C8.17855 18.1452 8.16618 18.306 8.15381 18.3926C8.58675 18.3678 8.95166 18.3369 9.24854 18.2998C9.54541 18.2627 9.78044 18.2256 9.95361 18.1885C10.1639 18.139 10.3309 18.0895 10.4546 18.04C10.6401 17.9411 10.8257 17.8236 11.0112 17.6875C11.172 17.5638 11.339 17.4154 11.5122 17.2422C11.6978 17.069 11.8586 16.8587 11.9946 16.6113C11.9204 17.0566 11.8524 17.4277 11.7905 17.7246C11.741 18.0215 11.6978 18.2565 11.6606 18.4297C11.6112 18.64 11.5802 18.8008 11.5679 18.9121C11.5431 19.0234 11.5122 19.1781 11.4751 19.376C11.438 19.5492 11.3947 19.7718 11.3452 20.0439C11.2957 20.3161 11.2401 20.6562 11.1782 21.0645C11.0298 20.8047 10.8752 20.5944 10.7144 20.4336C10.5535 20.2604 10.4051 20.1243 10.269 20.0254C10.1082 19.9141 9.95361 19.8275 9.80518 19.7656C9.64437 19.7161 9.47119 19.6667 9.28564 19.6172C9.12484 19.5801 8.93311 19.543 8.71045 19.5059C8.50016 19.4564 8.27132 19.4131 8.02393 19.376C8.04867 20.0439 8.08577 20.6191 8.13525 21.1016C8.18473 21.5716 8.22803 21.9674 8.26514 22.2891C8.31462 22.6602 8.3641 22.9694 8.41357 23.2168C8.47542 23.4642 8.57438 23.7301 8.71045 24.0146C8.82178 24.262 8.9764 24.5465 9.17432 24.8682C9.3846 25.1774 9.65055 25.5114 9.97217 25.8701C9.72477 25.8083 9.46501 25.765 9.19287 25.7402C8.92074 25.7155 8.67952 25.6969 8.46924 25.6846C8.20947 25.6722 7.96208 25.6722 7.72705 25.6846C7.47965 25.6969 7.20752 25.7217 6.91064 25.7588C6.66325 25.7835 6.37874 25.8206 6.05713 25.8701C5.73551 25.9196 5.39535 25.9753 5.03662 26.0371C5.24691 25.8268 5.42008 25.6165 5.55615 25.4062C5.69222 25.196 5.79118 25.0104 5.85303 24.8496C5.92725 24.6641 5.97673 24.4847 6.00146 24.3115C6.01383 24.1631 6.02002 23.8415 6.02002 23.3467C6.02002 22.8395 6.01383 22.252 6.00146 21.584C5.9891 20.9036 5.97054 20.1862 5.9458 19.4316C5.92106 18.6771 5.89632 17.972 5.87158 17.3164C5.84684 16.6484 5.81592 16.0794 5.77881 15.6094C5.75407 15.1393 5.72314 14.8548 5.68604 14.7559C5.63656 14.6322 5.58089 14.4899 5.51904 14.3291C5.42008 14.0693 5.21598 13.6921 4.90674 13.1973ZM21.2905 12.0098C21.9585 12.0345 22.6326 12.1582 23.313 12.3809C24.0057 12.5911 24.6427 12.9375 25.2241 13.4199C25.8055 13.89 26.3003 14.5023 26.7085 15.2568C27.1167 15.999 27.3703 16.9082 27.4692 17.9844C27.5558 18.8626 27.4445 19.7347 27.1353 20.6006C26.8384 21.4541 26.424 22.2396 25.8921 22.957C25.3602 23.6745 24.7479 24.2868 24.0552 24.7939C23.3625 25.2887 22.6698 25.6165 21.9771 25.7773C21.5565 25.8763 21.0926 25.8887 20.5854 25.8145C20.0907 25.7279 19.5835 25.5732 19.064 25.3506C18.5568 25.1156 18.0558 24.8187 17.561 24.46C17.0786 24.1012 16.6395 23.693 16.2437 23.2354C15.8478 22.7653 15.5138 22.2581 15.2417 21.7139C14.9819 21.1696 14.8211 20.6006 14.7593 20.0068C14.6974 19.512 14.6912 18.9678 14.7407 18.374C14.8026 17.7679 14.9201 17.168 15.0933 16.5742C15.2788 15.9681 15.5324 15.3867 15.854 14.8301C16.188 14.2611 16.6086 13.7663 17.1157 13.3457C17.6229 12.9128 18.2166 12.5788 18.897 12.3438C19.5897 12.0964 20.3875 11.985 21.2905 12.0098ZM17.9692 19.5244C17.7961 20.848 17.9198 21.9118 18.3403 22.7158C18.7733 23.5199 19.4227 24.0085 20.2886 24.1816C20.7091 24.2682 21.1112 24.1816 21.4946 23.9219C21.8905 23.6497 22.2492 23.2601 22.5708 22.7529C22.8924 22.2458 23.1707 21.652 23.4058 20.9717C23.6408 20.2913 23.814 19.5801 23.9253 18.8379C24.0366 18.0957 24.0428 17.4277 23.9438 16.834C23.8573 16.2279 23.7026 15.7145 23.48 15.2939C23.2573 14.861 22.9852 14.527 22.6636 14.292C22.3543 14.057 22.0327 13.9271 21.6987 13.9023C21.1174 13.8652 20.6102 14.0199 20.1772 14.3662C19.7443 14.7002 19.3794 15.1393 19.0825 15.6836C18.7856 16.2279 18.5444 16.8402 18.3589 17.5205C18.1857 18.2008 18.0558 18.8688 17.9692 19.5244ZM27.2095 12.4551C27.6053 12.5169 27.964 12.5726 28.2856 12.6221C28.6073 12.6592 28.8856 12.6901 29.1206 12.7148C29.3927 12.752 29.634 12.7829 29.8442 12.8076C30.104 12.8447 30.4937 12.8014 31.0132 12.6777C31.5327 12.5417 32.1017 12.418 32.7202 12.3066C33.3511 12.1829 33.9943 12.1149 34.6499 12.1025C35.3055 12.0778 35.9054 12.1953 36.4497 12.4551C36.994 12.7148 37.4393 12.9746 37.7856 13.2344C38.132 13.4941 38.4041 13.7725 38.6021 14.0693C38.8123 14.3538 38.9608 14.6569 39.0474 14.9785C39.134 15.3001 39.1834 15.6527 39.1958 16.0361C39.1834 16.6051 39.0474 17.1556 38.7876 17.6875C38.6763 17.9102 38.5278 18.1452 38.3423 18.3926C38.1691 18.6276 37.9526 18.8564 37.6929 19.0791C37.4331 19.3018 37.1239 19.512 36.7651 19.71C36.4188 19.9079 36.0106 20.0811 35.5405 20.2295C35.9982 20.3656 36.3755 20.5264 36.6724 20.7119C36.9816 20.8975 37.229 21.0706 37.4146 21.2314C37.6372 21.4294 37.8042 21.6211 37.9155 21.8066C38.0516 22.0664 38.1444 22.2891 38.1938 22.4746C38.2433 22.6602 38.2743 22.8395 38.2866 23.0127C38.3114 23.1735 38.3423 23.3405 38.3794 23.5137C38.4165 23.6868 38.4969 23.8848 38.6206 24.1074C38.7196 24.2806 38.8371 24.46 38.9731 24.6455C39.0968 24.8063 39.2391 24.9795 39.3999 25.165C39.5731 25.3506 39.7834 25.5299 40.0308 25.7031C39.6844 25.7155 39.3628 25.7217 39.0659 25.7217C38.7814 25.7217 38.534 25.7217 38.3237 25.7217C38.0763 25.7217 37.8413 25.7155 37.6187 25.7031C37.396 25.6908 37.1177 25.6846 36.7837 25.6846C36.4992 25.6846 36.1343 25.6846 35.689 25.6846C35.256 25.6846 34.7303 25.6908 34.1118 25.7031C34.384 25.4928 34.6066 25.2826 34.7798 25.0723C34.953 24.862 35.089 24.6702 35.188 24.4971C35.2993 24.2992 35.3797 24.1074 35.4292 23.9219C35.491 23.5879 35.4972 23.2415 35.4478 22.8828C35.4106 22.5736 35.3117 22.2334 35.1509 21.8623C34.9901 21.4788 34.7303 21.0954 34.3716 20.7119C34.0129 20.7738 33.7098 20.8232 33.4624 20.8604C33.2274 20.8851 33.0233 20.9098 32.8501 20.9346C32.6522 20.9593 32.4914 20.9779 32.3677 20.9902C32.2563 21.0026 32.1326 21.015 31.9966 21.0273C31.8853 21.0397 31.7616 21.0583 31.6255 21.083C31.5018 21.0954 31.3843 21.1139 31.2729 21.1387C31.2482 21.6706 31.2482 22.1344 31.2729 22.5303C31.2977 22.9137 31.3286 23.2354 31.3657 23.4951C31.4152 23.8044 31.4709 24.0703 31.5327 24.293C31.5946 24.5156 31.6812 24.7321 31.7925 24.9424C31.8791 25.1156 31.9904 25.3011 32.1265 25.499C32.2625 25.6846 32.4172 25.8392 32.5903 25.9629C32.2687 25.9629 31.9595 25.9629 31.6626 25.9629C31.3781 25.9629 31.1183 25.9567 30.8833 25.9443C30.6112 25.9443 30.3514 25.9382 30.104 25.9258C29.8566 25.9134 29.5783 25.9072 29.269 25.9072C29.0093 25.9072 28.7 25.9072 28.3413 25.9072C27.995 25.9072 27.6177 25.9134 27.2095 25.9258C27.5311 25.5918 27.7847 25.3073 27.9702 25.0723C28.1558 24.8372 28.298 24.6393 28.397 24.4785C28.5083 24.3053 28.5763 24.1569 28.6011 24.0332C28.6258 23.8353 28.6444 23.4827 28.6567 22.9756C28.6815 22.4561 28.7 21.8623 28.7124 21.1943C28.7248 20.5264 28.731 19.8275 28.731 19.0977C28.731 18.3678 28.7248 17.6875 28.7124 17.0566C28.7 16.4134 28.6877 15.863 28.6753 15.4053C28.6629 14.9476 28.6506 14.6569 28.6382 14.5332C28.6011 14.3105 28.5207 14.0879 28.397 13.8652C28.298 13.6673 28.1558 13.4447 27.9702 13.1973C27.7847 12.9499 27.5311 12.7025 27.2095 12.4551ZM34.2231 18.9863C34.3468 18.9121 34.452 18.8379 34.5386 18.7637C34.6252 18.6895 34.6994 18.5719 34.7612 18.4111C34.8231 18.238 34.8726 17.9967 34.9097 17.6875C34.9591 17.3783 35.0148 16.9577 35.0767 16.4258C35.1261 15.8939 35.089 15.4548 34.9653 15.1084C34.854 14.762 34.6994 14.4899 34.5015 14.292C34.3159 14.0817 34.1056 13.9395 33.8706 13.8652C33.6479 13.7786 33.45 13.7354 33.2769 13.7354C32.9305 13.7354 32.5903 13.8405 32.2563 14.0508C31.9224 14.2611 31.6688 14.5456 31.4956 14.9043C31.4338 15.0651 31.3781 15.3311 31.3286 15.7021C31.2915 16.0238 31.2668 16.4691 31.2544 17.0381C31.242 17.6071 31.2606 18.3555 31.3101 19.2832C31.7801 19.3574 32.1945 19.3883 32.5532 19.376C32.9119 19.3512 33.215 19.3079 33.4624 19.2461C33.7593 19.1842 34.0129 19.0977 34.2231 18.9863ZM38.8989 13.3271C39.7648 13.3519 40.4823 13.3704 41.0513 13.3828C41.6326 13.3828 42.1027 13.3828 42.4614 13.3828H43.4448H48.9741C48.9989 13.6302 49.0174 13.8714 49.0298 14.1064C49.0545 14.3291 49.0669 14.527 49.0669 14.7002C49.0669 14.9105 49.0607 15.1022 49.0483 15.2754C49.036 15.4486 49.0174 15.6341 48.9927 15.832C48.9679 16.0052 48.9432 16.1908 48.9185 16.3887C48.8937 16.5866 48.8504 16.7907 48.7886 17.001C48.6154 16.333 48.3804 15.8258 48.0835 15.4795C47.799 15.1331 47.5083 14.8796 47.2114 14.7188C46.8651 14.5332 46.5002 14.4342 46.1167 14.4219C45.6095 14.4466 45.2137 14.4899 44.9292 14.5518C44.6447 14.6136 44.422 14.7002 44.2612 14.8115C44.1004 14.9229 43.9767 15.0527 43.8901 15.2012C43.8159 15.3372 43.7355 15.4919 43.6489 15.665C43.5747 15.8135 43.5067 16.0423 43.4448 16.3516C43.383 16.6113 43.3211 16.9639 43.2593 17.4092C43.2098 17.8545 43.1541 18.4297 43.0923 19.1348C43.4263 19.0358 43.6922 18.943 43.8901 18.8564C44.1004 18.7699 44.2674 18.6956 44.3911 18.6338C44.5272 18.5596 44.6261 18.4915 44.688 18.4297C44.7375 18.3555 44.8117 18.2194 44.9106 18.0215C44.9849 17.8483 45.0838 17.6133 45.2075 17.3164C45.3436 17.0195 45.5044 16.6113 45.6899 16.0918C45.7147 16.6608 45.7271 17.137 45.7271 17.5205C45.7271 17.8916 45.7332 18.1947 45.7456 18.4297C45.7456 18.7018 45.7518 18.9183 45.7642 19.0791V19.7842C45.7642 20.0439 45.7642 20.3965 45.7642 20.8418C45.7765 21.2747 45.7951 21.8252 45.8198 22.4932C45.6714 22.0355 45.5353 21.6768 45.4116 21.417C45.3003 21.1449 45.2013 20.9408 45.1147 20.8047C45.0158 20.6439 44.9292 20.5326 44.855 20.4707C44.7684 20.446 44.6509 20.4212 44.5024 20.3965C44.3664 20.3841 44.1932 20.3779 43.9829 20.3779C43.785 20.3779 43.5314 20.4089 43.2222 20.4707C43.1851 21.151 43.1789 21.7015 43.2036 22.1221C43.2407 22.5303 43.2902 22.8457 43.3521 23.0684C43.4139 23.3281 43.4881 23.5137 43.5747 23.625C43.686 23.7363 43.9087 23.8291 44.2427 23.9033C44.5767 23.9652 44.9539 23.9899 45.3745 23.9775C45.8075 23.9528 46.2466 23.8786 46.6919 23.7549C47.1372 23.6312 47.533 23.4271 47.8794 23.1426C48.1392 22.9076 48.4175 22.6107 48.7144 22.252C48.9618 21.9427 49.2339 21.5531 49.5308 21.083C49.84 20.613 50.1431 20.0439 50.4399 19.376C50.3905 19.9326 50.3534 20.3965 50.3286 20.7676C50.3162 21.1263 50.2977 21.417 50.2729 21.6396C50.2482 21.8994 50.2297 22.0973 50.2173 22.2334C50.2173 22.3818 50.1987 22.5921 50.1616 22.8643C50.1369 23.0993 50.0936 23.4209 50.0317 23.8291C49.9823 24.2249 49.9142 24.7321 49.8276 25.3506C49.2463 25.363 48.6958 25.3753 48.1763 25.3877C47.6567 25.3877 47.1991 25.3939 46.8032 25.4062C46.3332 25.4186 45.9002 25.431 45.5044 25.4434C45.0962 25.4434 44.6447 25.4619 44.1499 25.499C43.717 25.5238 43.2036 25.5609 42.6099 25.6104C42.0285 25.6598 41.3853 25.7279 40.6802 25.8145C40.742 24.9733 40.7853 24.1816 40.8101 23.4395C40.8472 22.6849 40.8719 22.0231 40.8843 21.4541C40.8966 20.7861 40.8966 20.1676 40.8843 19.5986C40.9461 18.1761 40.9214 17.0257 40.8101 16.1475C40.6987 15.2692 40.5688 14.7064 40.4204 14.459C40.3462 14.3724 40.241 14.2673 40.105 14.1436C39.9937 14.0446 39.839 13.9271 39.6411 13.791C39.4432 13.6549 39.1958 13.5003 38.8989 13.3271ZM50.1616 12.8447C50.7183 12.9437 51.1759 13.0117 51.5347 13.0488C51.8934 13.0859 52.1841 13.1169 52.4067 13.1416C52.6665 13.1663 52.8706 13.1725 53.019 13.1602H53.5757C53.7736 13.1602 54.021 13.1602 54.3179 13.1602C54.6271 13.1478 55.0106 13.1416 55.4683 13.1416C55.728 13.7477 55.9631 14.3044 56.1733 14.8115C56.396 15.3187 56.5815 15.7516 56.73 16.1104C56.9032 16.5433 57.064 16.9329 57.2124 17.2793C57.3856 17.7122 57.5711 18.1885 57.769 18.708C57.967 19.2275 58.1463 19.7161 58.3071 20.1738C58.4803 20.6315 58.6226 21.0088 58.7339 21.3057C58.8452 21.6025 58.9009 21.7386 58.9009 21.7139C58.9009 21.7015 58.9071 21.5778 58.9194 21.3428C58.9318 21.0954 58.9442 20.7923 58.9565 20.4336C58.9689 20.0625 58.9813 19.6605 58.9937 19.2275C59.0184 18.7822 59.0308 18.3555 59.0308 17.9473C59.0431 17.5267 59.0493 17.1432 59.0493 16.7969C59.0493 16.4505 59.0369 16.1908 59.0122 16.0176C58.9751 15.8073 58.9009 15.5661 58.7896 15.2939C58.6906 15.0589 58.5545 14.7806 58.3813 14.459C58.2082 14.125 57.967 13.7477 57.6577 13.3271C58.1649 13.3395 58.5793 13.3457 58.9009 13.3457C59.2225 13.3457 59.4823 13.3457 59.6802 13.3457C59.9028 13.3457 60.076 13.3395 60.1997 13.3271C60.3605 13.3271 60.5584 13.3148 60.7935 13.29C61.0037 13.2653 61.2635 13.2467 61.5728 13.2344C61.8944 13.2096 62.2902 13.1787 62.7603 13.1416C62.4881 13.389 62.2716 13.624 62.1108 13.8467C61.95 14.0693 61.8201 14.2673 61.7212 14.4404C61.6099 14.6383 61.5356 14.8239 61.4985 14.9971C61.4491 15.2197 61.4058 15.5846 61.3687 16.0918C61.3439 16.5866 61.313 17.1432 61.2759 17.7617C61.2511 18.3802 61.2264 19.0234 61.2017 19.6914C61.1769 20.3594 61.1522 20.9717 61.1274 21.5283C61.1274 21.9489 61.1151 22.4004 61.0903 22.8828C61.0656 23.291 61.0409 23.7549 61.0161 24.2744C60.9914 24.7816 60.9604 25.2949 60.9233 25.8145L59.272 25.8516C58.7896 24.998 58.3813 24.2682 58.0474 23.6621C57.7257 23.0436 57.4598 22.5365 57.2495 22.1406C57.0145 21.6829 56.8166 21.2995 56.6558 20.9902C56.5197 20.6934 56.3403 20.3532 56.1177 19.9697C55.9321 19.6481 55.6971 19.2523 55.4126 18.7822C55.1405 18.3122 54.8127 17.7741 54.4292 17.168C54.3921 18.0215 54.3735 18.7513 54.3735 19.3574C54.3859 19.9512 54.4045 20.446 54.4292 20.8418C54.4663 21.2995 54.5096 21.6829 54.5591 21.9922C54.6209 22.2891 54.7075 22.623 54.8188 22.9941C54.9178 23.3158 55.0353 23.693 55.1714 24.126C55.3198 24.5589 55.4992 25.0475 55.7095 25.5918C54.9797 25.5547 54.4354 25.5361 54.0767 25.5361H53.52C53.3468 25.5361 53.1118 25.5547 52.8149 25.5918C52.5675 25.6165 52.2274 25.6536 51.7944 25.7031C51.3739 25.7526 50.8481 25.8206 50.2173 25.9072C50.5142 25.5485 50.7492 25.2207 50.9224 24.9238C51.1079 24.6146 51.2502 24.3548 51.3491 24.1445C51.4728 23.8971 51.5594 23.6807 51.6089 23.4951C51.646 23.2972 51.6707 22.957 51.6831 22.4746C51.6955 21.9798 51.6955 21.4232 51.6831 20.8047C51.6831 20.1738 51.6707 19.512 51.646 18.8193C51.6336 18.1266 51.6151 17.4834 51.5903 16.8896C51.5656 16.2959 51.5347 15.7887 51.4976 15.3682C51.4728 14.9476 51.4543 14.6878 51.4419 14.5889C51.4048 14.4281 51.3306 14.2549 51.2192 14.0693C51.1203 13.9085 50.9904 13.7292 50.8296 13.5312C50.6688 13.321 50.4461 13.0921 50.1616 12.8447ZM74.5054 12.418C74.3322 12.8138 74.1776 13.1602 74.0415 13.457C73.9054 13.7539 73.7879 14.0075 73.689 14.2178C73.5776 14.4528 73.4849 14.6631 73.4106 14.8486C73.3488 14.9847 73.2684 15.1702 73.1694 15.4053C73.0705 15.6156 72.9468 15.8939 72.7983 16.2402C72.6623 16.5742 72.4829 17.0072 72.2603 17.5391C72.1489 17.0814 72.0129 16.6794 71.8521 16.333C71.6912 15.9867 71.5181 15.6836 71.3325 15.4238C71.147 15.1641 70.9491 14.9538 70.7388 14.793C70.5409 14.6198 70.3429 14.4775 70.145 14.3662C69.6873 14.1188 69.2049 13.9827 68.6978 13.958C68.0298 13.9951 67.5041 14.1064 67.1206 14.292C66.7495 14.4652 66.4774 14.6693 66.3042 14.9043C66.131 15.127 66.0382 15.362 66.0259 15.6094C66.0135 15.8444 66.0444 16.0423 66.1187 16.2031C66.1805 16.3516 66.397 16.5247 66.7681 16.7227C67.1515 16.9206 67.6092 17.1494 68.1411 17.4092C68.6854 17.6566 69.2668 17.9411 69.8853 18.2627C70.5037 18.5719 71.0728 18.9183 71.5923 19.3018C72.1242 19.6729 72.5695 20.0811 72.9282 20.5264C73.2993 20.9593 73.5034 21.4232 73.5405 21.918C73.5776 22.5488 73.5715 23.1178 73.522 23.625C73.4725 24.1322 73.2993 24.5651 73.0024 24.9238C72.7056 25.2826 72.2417 25.5671 71.6108 25.7773C70.9924 25.9876 70.1326 26.1175 69.0317 26.167C67.8937 26.2165 66.9598 26.1546 66.23 25.9814C65.5002 25.8083 64.9064 25.5732 64.4487 25.2764C64.0034 24.9795 63.6694 24.6517 63.4468 24.293C63.2365 23.9342 63.0819 23.5941 62.9829 23.2725C62.884 22.9385 62.8159 22.654 62.7788 22.4189C62.7417 22.1715 62.6799 22.0231 62.5933 21.9736C62.4943 21.9118 62.3953 21.8561 62.2964 21.8066C62.2098 21.7572 62.117 21.7139 62.0181 21.6768C61.9191 21.6273 61.8201 21.584 61.7212 21.5469L67.1206 20.6748C66.8114 20.9222 66.5701 21.151 66.397 21.3613C66.2362 21.5716 66.1125 21.7572 66.0259 21.918C65.9269 22.1035 65.8589 22.2767 65.8218 22.4375C65.797 22.6107 65.8527 22.8271 65.9888 23.0869C66.1248 23.3467 66.3104 23.6003 66.5454 23.8477C66.7928 24.0827 67.0773 24.2806 67.3989 24.4414C67.7205 24.6022 68.0545 24.6702 68.4009 24.6455C68.8338 24.6084 69.1864 24.5033 69.4585 24.3301C69.7306 24.1445 69.9347 23.9157 70.0708 23.6436C70.2192 23.3714 70.3058 23.0745 70.3306 22.7529C70.3553 22.4313 70.3244 22.1159 70.2378 21.8066C70.1636 21.485 70.0399 21.1882 69.8667 20.916C69.6935 20.6315 69.4894 20.3965 69.2544 20.2109C69.0441 20.0625 68.7163 19.9202 68.271 19.7842C67.8381 19.6481 67.3494 19.4997 66.8052 19.3389C66.2733 19.1781 65.7228 18.9925 65.1538 18.7822C64.5972 18.5719 64.09 18.3122 63.6323 18.0029C63.187 17.6937 62.8283 17.3288 62.5562 16.9082C62.2964 16.4876 62.1974 15.9805 62.2593 15.3867C62.3088 14.8796 62.4696 14.459 62.7417 14.125C63.0262 13.7786 63.3787 13.5065 63.7993 13.3086C64.2323 13.0983 64.7085 12.9437 65.228 12.8447C65.7599 12.7458 66.298 12.6901 66.8423 12.6777C67.3989 12.653 67.9432 12.6592 68.4751 12.6963C69.0194 12.7334 69.508 12.7767 69.9409 12.8262C70.3739 12.8757 70.7388 12.9251 71.0356 12.9746C71.3449 13.0117 71.5366 13.0365 71.6108 13.0488C71.9325 13.0736 72.2541 13.0674 72.5757 13.0303C72.8602 13.0055 73.1694 12.9499 73.5034 12.8633C73.8498 12.7643 74.1838 12.6159 74.5054 12.418ZM74.4126 13.2158C74.8332 13.2653 75.1857 13.3024 75.4702 13.3271C75.7671 13.3395 76.0083 13.3581 76.1938 13.3828C76.4165 13.4076 76.5897 13.4199 76.7134 13.4199C76.8494 13.4323 77.0535 13.4261 77.3257 13.4014C77.5607 13.3766 77.8761 13.3457 78.272 13.3086C78.6802 13.2715 79.1997 13.2158 79.8306 13.1416C79.5461 13.389 79.3172 13.6302 79.144 13.8652C78.9832 14.0879 78.8595 14.2858 78.7729 14.459C78.6616 14.6693 78.5936 14.8672 78.5688 15.0527C78.5194 15.3496 78.4761 15.7578 78.439 16.2773C78.4142 16.7845 78.3895 17.3411 78.3647 17.9473C78.34 18.5534 78.3276 19.1781 78.3276 19.8213C78.3276 20.4645 78.3338 21.0768 78.3462 21.6582C78.3709 22.2272 78.408 22.7344 78.4575 23.1797C78.5194 23.625 78.5936 23.9466 78.6802 24.1445C78.8039 24.3672 78.9338 24.5898 79.0698 24.8125C79.1935 24.998 79.342 25.1898 79.5151 25.3877C79.6883 25.5856 79.8862 25.7464 80.1089 25.8701C79.3791 25.833 78.7977 25.8145 78.3647 25.8145H77.6968C77.4989 25.8145 77.2453 25.8268 76.936 25.8516C76.6763 25.8763 76.3485 25.901 75.9526 25.9258C75.5568 25.9505 75.0806 25.9876 74.5239 26.0371C74.8084 25.7279 75.0311 25.431 75.1919 25.1465C75.3527 24.862 75.4826 24.6146 75.5815 24.4043C75.6929 24.1569 75.7671 23.9219 75.8042 23.6992C75.8537 23.3776 75.8908 22.9818 75.9155 22.5117C75.9526 22.0293 75.9774 21.516 75.9897 20.9717C76.0021 20.415 76.0021 19.8522 75.9897 19.2832C75.9897 18.7018 75.9774 18.1452 75.9526 17.6133C75.9279 17.0814 75.8908 16.599 75.8413 16.166C75.8042 15.7331 75.7547 15.3867 75.6929 15.127C75.6558 14.9661 75.5815 14.7868 75.4702 14.5889C75.3713 14.4157 75.2352 14.2178 75.062 13.9951C74.9012 13.7601 74.6847 13.5003 74.4126 13.2158ZM85.8237 12.2881C86.2567 12.2881 86.6463 12.3623 86.9927 12.5107C87.3514 12.6468 87.6792 12.8014 87.9761 12.9746C88.2853 13.1478 88.576 13.3086 88.8481 13.457C89.1203 13.5931 89.3986 13.6611 89.6831 13.6611C89.9058 13.6488 90.1593 13.6178 90.4438 13.5684C90.6912 13.5189 90.9757 13.4447 91.2974 13.3457C91.6313 13.2344 92.0024 13.0736 92.4106 12.8633C92.0024 13.2591 91.6685 13.5931 91.4087 13.8652C91.1613 14.125 90.9696 14.3415 90.8335 14.5146C90.6727 14.7126 90.5552 14.8672 90.481 14.9785C90.4067 15.1146 90.2954 15.3187 90.147 15.5908C90.0109 15.8382 89.8254 16.1722 89.5903 16.5928C89.3553 17.001 89.0584 17.5391 88.6997 18.207C88.6997 17.3535 88.6131 16.6917 88.4399 16.2217C88.2791 15.7516 88.0998 15.3929 87.9019 15.1455C87.6668 14.861 87.4009 14.6816 87.104 14.6074C86.8319 14.5703 86.5597 14.6198 86.2876 14.7559C86.0155 14.8796 85.7433 15.0651 85.4712 15.3125C85.2114 15.5599 84.9578 15.8568 84.7104 16.2031C84.4754 16.5371 84.259 16.8896 84.061 17.2607C83.8755 17.6318 83.7209 18.0091 83.5972 18.3926C83.4735 18.7637 83.3931 19.11 83.356 19.4316C83.3188 19.7161 83.3127 20.0501 83.3374 20.4336C83.3621 20.8047 83.4178 21.1882 83.5044 21.584C83.591 21.9674 83.7023 22.3447 83.8384 22.7158C83.9744 23.0869 84.1414 23.4209 84.3394 23.7178C84.5496 24.0023 84.7847 24.2373 85.0444 24.4229C85.3042 24.596 85.6011 24.6764 85.9351 24.6641C86.3062 24.6393 86.6711 24.528 87.0298 24.3301C87.339 24.1693 87.6545 23.9219 87.9761 23.5879C88.2977 23.2415 88.576 22.7529 88.811 22.1221L91.5571 22.623C90.7655 23.5879 89.9924 24.3115 89.2378 24.7939C88.4956 25.2764 87.8276 25.6165 87.2339 25.8145C86.5412 26.0371 85.8856 26.1423 85.2671 26.1299C84.4878 26.0433 83.758 25.8083 83.0776 25.4248C82.3973 25.0413 81.8097 24.5775 81.3149 24.0332C80.8325 23.4766 80.4552 22.8704 80.1831 22.2148C79.911 21.5592 79.7935 20.916 79.8306 20.2852C79.8553 19.8646 79.9419 19.376 80.0903 18.8193C80.2388 18.2503 80.4367 17.6689 80.6841 17.0752C80.9438 16.4814 81.2531 15.9001 81.6118 15.3311C81.9705 14.762 82.3664 14.2549 82.7993 13.8096C83.2323 13.3519 83.7023 12.987 84.2095 12.7148C84.729 12.4303 85.2671 12.2881 85.8237 12.2881Z" fill="#840B0B"/>
<path d="M4.90674 13.1973C5.64893 13.2591 6.29834 13.2962 6.85498 13.3086C7.42399 13.321 7.90641 13.3271 8.30225 13.3271C8.75993 13.3271 9.15576 13.3148 9.48975 13.29C9.8361 13.2529 10.2876 13.2035 10.8442 13.1416C11.3143 13.0798 11.9204 12.9993 12.6626 12.9004C13.4048 12.7891 14.3078 12.6468 15.3716 12.4736C15.2355 12.6839 15.118 12.9066 15.019 13.1416C14.9325 13.3643 14.8582 13.5684 14.7964 13.7539C14.7345 13.9766 14.6789 14.193 14.6294 14.4033C14.5923 14.6383 14.549 14.929 14.4995 15.2754C14.45 15.5723 14.3882 15.9495 14.314 16.4072C14.2521 16.8525 14.1717 17.3844 14.0728 18.0029C13.7017 17.0381 13.3244 16.2959 12.9409 15.7764C12.5698 15.2568 12.2235 14.8734 11.9019 14.626C11.5308 14.3415 11.1782 14.1807 10.8442 14.1436C10.3618 14.1436 9.96598 14.2363 9.65674 14.4219C9.34749 14.6074 9.09391 14.8486 8.896 15.1455C8.71045 15.43 8.5682 15.7454 8.46924 16.0918C8.37028 16.4258 8.30225 16.7536 8.26514 17.0752C8.22803 17.3844 8.20329 17.6628 8.19092 17.9102C8.17855 18.1452 8.16618 18.306 8.15381 18.3926C8.58675 18.3678 8.95166 18.3369 9.24854 18.2998C9.54541 18.2627 9.78044 18.2256 9.95361 18.1885C10.1639 18.139 10.3309 18.0895 10.4546 18.04C10.6401 17.9411 10.8257 17.8236 11.0112 17.6875C11.172 17.5638 11.339 17.4154 11.5122 17.2422C11.6978 17.069 11.8586 16.8587 11.9946 16.6113C11.9204 17.0566 11.8524 17.4277 11.7905 17.7246C11.741 18.0215 11.6978 18.2565 11.6606 18.4297C11.6112 18.64 11.5802 18.8008 11.5679 18.9121C11.5431 19.0234 11.5122 19.1781 11.4751 19.376C11.438 19.5492 11.3947 19.7718 11.3452 20.0439C11.2957 20.3161 11.2401 20.6562 11.1782 21.0645C11.0298 20.8047 10.8752 20.5944 10.7144 20.4336C10.5535 20.2604 10.4051 20.1243 10.269 20.0254C10.1082 19.9141 9.95361 19.8275 9.80518 19.7656C9.64437 19.7161 9.47119 19.6667 9.28564 19.6172C9.12484 19.5801 8.93311 19.543 8.71045 19.5059C8.50016 19.4564 8.27132 19.4131 8.02393 19.376C8.04867 20.0439 8.08577 20.6191 8.13525 21.1016C8.18473 21.5716 8.22803 21.9674 8.26514 22.2891C8.31462 22.6602 8.3641 22.9694 8.41357 23.2168C8.47542 23.4642 8.57438 23.7301 8.71045 24.0146C8.82178 24.262 8.9764 24.5465 9.17432 24.8682C9.3846 25.1774 9.65055 25.5114 9.97217 25.8701C9.72477 25.8083 9.46501 25.765 9.19287 25.7402C8.92074 25.7155 8.67952 25.6969 8.46924 25.6846C8.20947 25.6722 7.96208 25.6722 7.72705 25.6846C7.47965 25.6969 7.20752 25.7217 6.91064 25.7588C6.66325 25.7835 6.37874 25.8206 6.05713 25.8701C5.73551 25.9196 5.39535 25.9753 5.03662 26.0371C5.24691 25.8268 5.42008 25.6165 5.55615 25.4062C5.69222 25.196 5.79118 25.0104 5.85303 24.8496C5.92725 24.6641 5.97673 24.4847 6.00146 24.3115C6.01383 24.1631 6.02002 23.8415 6.02002 23.3467C6.02002 22.8395 6.01383 22.252 6.00146 21.584C5.9891 20.9036 5.97054 20.1862 5.9458 19.4316C5.92106 18.6771 5.89632 17.972 5.87158 17.3164C5.84684 16.6484 5.81592 16.0794 5.77881 15.6094C5.75407 15.1393 5.72314 14.8548 5.68604 14.7559C5.63656 14.6322 5.58089 14.4899 5.51904 14.3291C5.42008 14.0693 5.21598 13.6921 4.90674 13.1973ZM21.2905 12.0098C21.9585 12.0345 22.6326 12.1582 23.313 12.3809C24.0057 12.5911 24.6427 12.9375 25.2241 13.4199C25.8055 13.89 26.3003 14.5023 26.7085 15.2568C27.1167 15.999 27.3703 16.9082 27.4692 17.9844C27.5558 18.8626 27.4445 19.7347 27.1353 20.6006C26.8384 21.4541 26.424 22.2396 25.8921 22.957C25.3602 23.6745 24.7479 24.2868 24.0552 24.7939C23.3625 25.2887 22.6698 25.6165 21.9771 25.7773C21.5565 25.8763 21.0926 25.8887 20.5854 25.8145C20.0907 25.7279 19.5835 25.5732 19.064 25.3506C18.5568 25.1156 18.0558 24.8187 17.561 24.46C17.0786 24.1012 16.6395 23.693 16.2437 23.2354C15.8478 22.7653 15.5138 22.2581 15.2417 21.7139C14.9819 21.1696 14.8211 20.6006 14.7593 20.0068C14.6974 19.512 14.6912 18.9678 14.7407 18.374C14.8026 17.7679 14.9201 17.168 15.0933 16.5742C15.2788 15.9681 15.5324 15.3867 15.854 14.8301C16.188 14.2611 16.6086 13.7663 17.1157 13.3457C17.6229 12.9128 18.2166 12.5788 18.897 12.3438C19.5897 12.0964 20.3875 11.985 21.2905 12.0098ZM17.9692 19.5244C17.7961 20.848 17.9198 21.9118 18.3403 22.7158C18.7733 23.5199 19.4227 24.0085 20.2886 24.1816C20.7091 24.2682 21.1112 24.1816 21.4946 23.9219C21.8905 23.6497 22.2492 23.2601 22.5708 22.7529C22.8924 22.2458 23.1707 21.652 23.4058 20.9717C23.6408 20.2913 23.814 19.5801 23.9253 18.8379C24.0366 18.0957 24.0428 17.4277 23.9438 16.834C23.8573 16.2279 23.7026 15.7145 23.48 15.2939C23.2573 14.861 22.9852 14.527 22.6636 14.292C22.3543 14.057 22.0327 13.9271 21.6987 13.9023C21.1174 13.8652 20.6102 14.0199 20.1772 14.3662C19.7443 14.7002 19.3794 15.1393 19.0825 15.6836C18.7856 16.2279 18.5444 16.8402 18.3589 17.5205C18.1857 18.2008 18.0558 18.8688 17.9692 19.5244ZM27.2095 12.4551C27.6053 12.5169 27.964 12.5726 28.2856 12.6221C28.6073 12.6592 28.8856 12.6901 29.1206 12.7148C29.3927 12.752 29.634 12.7829 29.8442 12.8076C30.104 12.8447 30.4937 12.8014 31.0132 12.6777C31.5327 12.5417 32.1017 12.418 32.7202 12.3066C33.3511 12.1829 33.9943 12.1149 34.6499 12.1025C35.3055 12.0778 35.9054 12.1953 36.4497 12.4551C36.994 12.7148 37.4393 12.9746 37.7856 13.2344C38.132 13.4941 38.4041 13.7725 38.6021 14.0693C38.8123 14.3538 38.9608 14.6569 39.0474 14.9785C39.134 15.3001 39.1834 15.6527 39.1958 16.0361C39.1834 16.6051 39.0474 17.1556 38.7876 17.6875C38.6763 17.9102 38.5278 18.1452 38.3423 18.3926C38.1691 18.6276 37.9526 18.8564 37.6929 19.0791C37.4331 19.3018 37.1239 19.512 36.7651 19.71C36.4188 19.9079 36.0106 20.0811 35.5405 20.2295C35.9982 20.3656 36.3755 20.5264 36.6724 20.7119C36.9816 20.8975 37.229 21.0706 37.4146 21.2314C37.6372 21.4294 37.8042 21.6211 37.9155 21.8066C38.0516 22.0664 38.1444 22.2891 38.1938 22.4746C38.2433 22.6602 38.2743 22.8395 38.2866 23.0127C38.3114 23.1735 38.3423 23.3405 38.3794 23.5137C38.4165 23.6868 38.4969 23.8848 38.6206 24.1074C38.7196 24.2806 38.8371 24.46 38.9731 24.6455C39.0968 24.8063 39.2391 24.9795 39.3999 25.165C39.5731 25.3506 39.7834 25.5299 40.0308 25.7031C39.6844 25.7155 39.3628 25.7217 39.0659 25.7217C38.7814 25.7217 38.534 25.7217 38.3237 25.7217C38.0763 25.7217 37.8413 25.7155 37.6187 25.7031C37.396 25.6908 37.1177 25.6846 36.7837 25.6846C36.4992 25.6846 36.1343 25.6846 35.689 25.6846C35.256 25.6846 34.7303 25.6908 34.1118 25.7031C34.384 25.4928 34.6066 25.2826 34.7798 25.0723C34.953 24.862 35.089 24.6702 35.188 24.4971C35.2993 24.2992 35.3797 24.1074 35.4292 23.9219C35.491 23.5879 35.4972 23.2415 35.4478 22.8828C35.4106 22.5736 35.3117 22.2334 35.1509 21.8623C34.9901 21.4788 34.7303 21.0954 34.3716 20.7119C34.0129 20.7738 33.7098 20.8232 33.4624 20.8604C33.2274 20.8851 33.0233 20.9098 32.8501 20.9346C32.6522 20.9593 32.4914 20.9779 32.3677 20.9902C32.2563 21.0026 32.1326 21.015 31.9966 21.0273C31.8853 21.0397 31.7616 21.0583 31.6255 21.083C31.5018 21.0954 31.3843 21.1139 31.2729 21.1387C31.2482 21.6706 31.2482 22.1344 31.2729 22.5303C31.2977 22.9137 31.3286 23.2354 31.3657 23.4951C31.4152 23.8044 31.4709 24.0703 31.5327 24.293C31.5946 24.5156 31.6812 24.7321 31.7925 24.9424C31.8791 25.1156 31.9904 25.3011 32.1265 25.499C32.2625 25.6846 32.4172 25.8392 32.5903 25.9629C32.2687 25.9629 31.9595 25.9629 31.6626 25.9629C31.3781 25.9629 31.1183 25.9567 30.8833 25.9443C30.6112 25.9443 30.3514 25.9382 30.104 25.9258C29.8566 25.9134 29.5783 25.9072 29.269 25.9072C29.0093 25.9072 28.7 25.9072 28.3413 25.9072C27.995 25.9072 27.6177 25.9134 27.2095 25.9258C27.5311 25.5918 27.7847 25.3073 27.9702 25.0723C28.1558 24.8372 28.298 24.6393 28.397 24.4785C28.5083 24.3053 28.5763 24.1569 28.6011 24.0332C28.6258 23.8353 28.6444 23.4827 28.6567 22.9756C28.6815 22.4561 28.7 21.8623 28.7124 21.1943C28.7248 20.5264 28.731 19.8275 28.731 19.0977C28.731 18.3678 28.7248 17.6875 28.7124 17.0566C28.7 16.4134 28.6877 15.863 28.6753 15.4053C28.6629 14.9476 28.6506 14.6569 28.6382 14.5332C28.6011 14.3105 28.5207 14.0879 28.397 13.8652C28.298 13.6673 28.1558 13.4447 27.9702 13.1973C27.7847 12.9499 27.5311 12.7025 27.2095 12.4551ZM34.2231 18.9863C34.3468 18.9121 34.452 18.8379 34.5386 18.7637C34.6252 18.6895 34.6994 18.5719 34.7612 18.4111C34.8231 18.238 34.8726 17.9967 34.9097 17.6875C34.9591 17.3783 35.0148 16.9577 35.0767 16.4258C35.1261 15.8939 35.089 15.4548 34.9653 15.1084C34.854 14.762 34.6994 14.4899 34.5015 14.292C34.3159 14.0817 34.1056 13.9395 33.8706 13.8652C33.6479 13.7786 33.45 13.7354 33.2769 13.7354C32.9305 13.7354 32.5903 13.8405 32.2563 14.0508C31.9224 14.2611 31.6688 14.5456 31.4956 14.9043C31.4338 15.0651 31.3781 15.3311 31.3286 15.7021C31.2915 16.0238 31.2668 16.4691 31.2544 17.0381C31.242 17.6071 31.2606 18.3555 31.3101 19.2832C31.7801 19.3574 32.1945 19.3883 32.5532 19.376C32.9119 19.3512 33.215 19.3079 33.4624 19.2461C33.7593 19.1842 34.0129 19.0977 34.2231 18.9863ZM38.8989 13.3271C39.7648 13.3519 40.4823 13.3704 41.0513 13.3828C41.6326 13.3828 42.1027 13.3828 42.4614 13.3828H43.4448H48.9741C48.9989 13.6302 49.0174 13.8714 49.0298 14.1064C49.0545 14.3291 49.0669 14.527 49.0669 14.7002C49.0669 14.9105 49.0607 15.1022 49.0483 15.2754C49.036 15.4486 49.0174 15.6341 48.9927 15.832C48.9679 16.0052 48.9432 16.1908 48.9185 16.3887C48.8937 16.5866 48.8504 16.7907 48.7886 17.001C48.6154 16.333 48.3804 15.8258 48.0835 15.4795C47.799 15.1331 47.5083 14.8796 47.2114 14.7188C46.8651 14.5332 46.5002 14.4342 46.1167 14.4219C45.6095 14.4466 45.2137 14.4899 44.9292 14.5518C44.6447 14.6136 44.422 14.7002 44.2612 14.8115C44.1004 14.9229 43.9767 15.0527 43.8901 15.2012C43.8159 15.3372 43.7355 15.4919 43.6489 15.665C43.5747 15.8135 43.5067 16.0423 43.4448 16.3516C43.383 16.6113 43.3211 16.9639 43.2593 17.4092C43.2098 17.8545 43.1541 18.4297 43.0923 19.1348C43.4263 19.0358 43.6922 18.943 43.8901 18.8564C44.1004 18.7699 44.2674 18.6956 44.3911 18.6338C44.5272 18.5596 44.6261 18.4915 44.688 18.4297C44.7375 18.3555 44.8117 18.2194 44.9106 18.0215C44.9849 17.8483 45.0838 17.6133 45.2075 17.3164C45.3436 17.0195 45.5044 16.6113 45.6899 16.0918C45.7147 16.6608 45.7271 17.137 45.7271 17.5205C45.7271 17.8916 45.7332 18.1947 45.7456 18.4297C45.7456 18.7018 45.7518 18.9183 45.7642 19.0791V19.7842C45.7642 20.0439 45.7642 20.3965 45.7642 20.8418C45.7765 21.2747 45.7951 21.8252 45.8198 22.4932C45.6714 22.0355 45.5353 21.6768 45.4116 21.417C45.3003 21.1449 45.2013 20.9408 45.1147 20.8047C45.0158 20.6439 44.9292 20.5326 44.855 20.4707C44.7684 20.446 44.6509 20.4212 44.5024 20.3965C44.3664 20.3841 44.1932 20.3779 43.9829 20.3779C43.785 20.3779 43.5314 20.4089 43.2222 20.4707C43.1851 21.151 43.1789 21.7015 43.2036 22.1221C43.2407 22.5303 43.2902 22.8457 43.3521 23.0684C43.4139 23.3281 43.4881 23.5137 43.5747 23.625C43.686 23.7363 43.9087 23.8291 44.2427 23.9033C44.5767 23.9652 44.9539 23.9899 45.3745 23.9775C45.8075 23.9528 46.2466 23.8786 46.6919 23.7549C47.1372 23.6312 47.533 23.4271 47.8794 23.1426C48.1392 22.9076 48.4175 22.6107 48.7144 22.252C48.9618 21.9427 49.2339 21.5531 49.5308 21.083C49.84 20.613 50.1431 20.0439 50.4399 19.376C50.3905 19.9326 50.3534 20.3965 50.3286 20.7676C50.3162 21.1263 50.2977 21.417 50.2729 21.6396C50.2482 21.8994 50.2297 22.0973 50.2173 22.2334C50.2173 22.3818 50.1987 22.5921 50.1616 22.8643C50.1369 23.0993 50.0936 23.4209 50.0317 23.8291C49.9823 24.2249 49.9142 24.7321 49.8276 25.3506C49.2463 25.363 48.6958 25.3753 48.1763 25.3877C47.6567 25.3877 47.1991 25.3939 46.8032 25.4062C46.3332 25.4186 45.9002 25.431 45.5044 25.4434C45.0962 25.4434 44.6447 25.4619 44.1499 25.499C43.717 25.5238 43.2036 25.5609 42.6099 25.6104C42.0285 25.6598 41.3853 25.7279 40.6802 25.8145C40.742 24.9733 40.7853 24.1816 40.8101 23.4395C40.8472 22.6849 40.8719 22.0231 40.8843 21.4541C40.8966 20.7861 40.8966 20.1676 40.8843 19.5986C40.9461 18.1761 40.9214 17.0257 40.8101 16.1475C40.6987 15.2692 40.5688 14.7064 40.4204 14.459C40.3462 14.3724 40.241 14.2673 40.105 14.1436C39.9937 14.0446 39.839 13.9271 39.6411 13.791C39.4432 13.6549 39.1958 13.5003 38.8989 13.3271ZM50.1616 12.8447C50.7183 12.9437 51.1759 13.0117 51.5347 13.0488C51.8934 13.0859 52.1841 13.1169 52.4067 13.1416C52.6665 13.1663 52.8706 13.1725 53.019 13.1602H53.5757C53.7736 13.1602 54.021 13.1602 54.3179 13.1602C54.6271 13.1478 55.0106 13.1416 55.4683 13.1416C55.728 13.7477 55.9631 14.3044 56.1733 14.8115C56.396 15.3187 56.5815 15.7516 56.73 16.1104C56.9032 16.5433 57.064 16.9329 57.2124 17.2793C57.3856 17.7122 57.5711 18.1885 57.769 18.708C57.967 19.2275 58.1463 19.7161 58.3071 20.1738C58.4803 20.6315 58.6226 21.0088 58.7339 21.3057C58.8452 21.6025 58.9009 21.7386 58.9009 21.7139C58.9009 21.7015 58.9071 21.5778 58.9194 21.3428C58.9318 21.0954 58.9442 20.7923 58.9565 20.4336C58.9689 20.0625 58.9813 19.6605 58.9937 19.2275C59.0184 18.7822 59.0308 18.3555 59.0308 17.9473C59.0431 17.5267 59.0493 17.1432 59.0493 16.7969C59.0493 16.4505 59.0369 16.1908 59.0122 16.0176C58.9751 15.8073 58.9009 15.5661 58.7896 15.2939C58.6906 15.0589 58.5545 14.7806 58.3813 14.459C58.2082 14.125 57.967 13.7477 57.6577 13.3271C58.1649 13.3395 58.5793 13.3457 58.9009 13.3457C59.2225 13.3457 59.4823 13.3457 59.6802 13.3457C59.9028 13.3457 60.076 13.3395 60.1997 13.3271C60.3605 13.3271 60.5584 13.3148 60.7935 13.29C61.0037 13.2653 61.2635 13.2467 61.5728 13.2344C61.8944 13.2096 62.2902 13.1787 62.7603 13.1416C62.4881 13.389 62.2716 13.624 62.1108 13.8467C61.95 14.0693 61.8201 14.2673 61.7212 14.4404C61.6099 14.6383 61.5356 14.8239 61.4985 14.9971C61.4491 15.2197 61.4058 15.5846 61.3687 16.0918C61.3439 16.5866 61.313 17.1432 61.2759 17.7617C61.2511 18.3802 61.2264 19.0234 61.2017 19.6914C61.1769 20.3594 61.1522 20.9717 61.1274 21.5283C61.1274 21.9489 61.1151 22.4004 61.0903 22.8828C61.0656 23.291 61.0409 23.7549 61.0161 24.2744C60.9914 24.7816 60.9604 25.2949 60.9233 25.8145L59.272 25.8516C58.7896 24.998 58.3813 24.2682 58.0474 23.6621C57.7257 23.0436 57.4598 22.5365 57.2495 22.1406C57.0145 21.6829 56.8166 21.2995 56.6558 20.9902C56.5197 20.6934 56.3403 20.3532 56.1177 19.9697C55.9321 19.6481 55.6971 19.2523 55.4126 18.7822C55.1405 18.3122 54.8127 17.7741 54.4292 17.168C54.3921 18.0215 54.3735 18.7513 54.3735 19.3574C54.3859 19.9512 54.4045 20.446 54.4292 20.8418C54.4663 21.2995 54.5096 21.6829 54.5591 21.9922C54.6209 22.2891 54.7075 22.623 54.8188 22.9941C54.9178 23.3158 55.0353 23.693 55.1714 24.126C55.3198 24.5589 55.4992 25.0475 55.7095 25.5918C54.9797 25.5547 54.4354 25.5361 54.0767 25.5361H53.52C53.3468 25.5361 53.1118 25.5547 52.8149 25.5918C52.5675 25.6165 52.2274 25.6536 51.7944 25.7031C51.3739 25.7526 50.8481 25.8206 50.2173 25.9072C50.5142 25.5485 50.7492 25.2207 50.9224 24.9238C51.1079 24.6146 51.2502 24.3548 51.3491 24.1445C51.4728 23.8971 51.5594 23.6807 51.6089 23.4951C51.646 23.2972 51.6707 22.957 51.6831 22.4746C51.6955 21.9798 51.6955 21.4232 51.6831 20.8047C51.6831 20.1738 51.6707 19.512 51.646 18.8193C51.6336 18.1266 51.6151 17.4834 51.5903 16.8896C51.5656 16.2959 51.5347 15.7887 51.4976 15.3682C51.4728 14.9476 51.4543 14.6878 51.4419 14.5889C51.4048 14.4281 51.3306 14.2549 51.2192 14.0693C51.1203 13.9085 50.9904 13.7292 50.8296 13.5312C50.6688 13.321 50.4461 13.0921 50.1616 12.8447ZM74.5054 12.418C74.3322 12.8138 74.1776 13.1602 74.0415 13.457C73.9054 13.7539 73.7879 14.0075 73.689 14.2178C73.5776 14.4528 73.4849 14.6631 73.4106 14.8486C73.3488 14.9847 73.2684 15.1702 73.1694 15.4053C73.0705 15.6156 72.9468 15.8939 72.7983 16.2402C72.6623 16.5742 72.4829 17.0072 72.2603 17.5391C72.1489 17.0814 72.0129 16.6794 71.8521 16.333C71.6912 15.9867 71.5181 15.6836 71.3325 15.4238C71.147 15.1641 70.9491 14.9538 70.7388 14.793C70.5409 14.6198 70.3429 14.4775 70.145 14.3662C69.6873 14.1188 69.2049 13.9827 68.6978 13.958C68.0298 13.9951 67.5041 14.1064 67.1206 14.292C66.7495 14.4652 66.4774 14.6693 66.3042 14.9043C66.131 15.127 66.0382 15.362 66.0259 15.6094C66.0135 15.8444 66.0444 16.0423 66.1187 16.2031C66.1805 16.3516 66.397 16.5247 66.7681 16.7227C67.1515 16.9206 67.6092 17.1494 68.1411 17.4092C68.6854 17.6566 69.2668 17.9411 69.8853 18.2627C70.5037 18.5719 71.0728 18.9183 71.5923 19.3018C72.1242 19.6729 72.5695 20.0811 72.9282 20.5264C73.2993 20.9593 73.5034 21.4232 73.5405 21.918C73.5776 22.5488 73.5715 23.1178 73.522 23.625C73.4725 24.1322 73.2993 24.5651 73.0024 24.9238C72.7056 25.2826 72.2417 25.5671 71.6108 25.7773C70.9924 25.9876 70.1326 26.1175 69.0317 26.167C67.8937 26.2165 66.9598 26.1546 66.23 25.9814C65.5002 25.8083 64.9064 25.5732 64.4487 25.2764C64.0034 24.9795 63.6694 24.6517 63.4468 24.293C63.2365 23.9342 63.0819 23.5941 62.9829 23.2725C62.884 22.9385 62.8159 22.654 62.7788 22.4189C62.7417 22.1715 62.6799 22.0231 62.5933 21.9736C62.4943 21.9118 62.3953 21.8561 62.2964 21.8066C62.2098 21.7572 62.117 21.7139 62.0181 21.6768C61.9191 21.6273 61.8201 21.584 61.7212 21.5469L67.1206 20.6748C66.8114 20.9222 66.5701 21.151 66.397 21.3613C66.2362 21.5716 66.1125 21.7572 66.0259 21.918C65.9269 22.1035 65.8589 22.2767 65.8218 22.4375C65.797 22.6107 65.8527 22.8271 65.9888 23.0869C66.1248 23.3467 66.3104 23.6003 66.5454 23.8477C66.7928 24.0827 67.0773 24.2806 67.3989 24.4414C67.7205 24.6022 68.0545 24.6702 68.4009 24.6455C68.8338 24.6084 69.1864 24.5033 69.4585 24.3301C69.7306 24.1445 69.9347 23.9157 70.0708 23.6436C70.2192 23.3714 70.3058 23.0745 70.3306 22.7529C70.3553 22.4313 70.3244 22.1159 70.2378 21.8066C70.1636 21.485 70.0399 21.1882 69.8667 20.916C69.6935 20.6315 69.4894 20.3965 69.2544 20.2109C69.0441 20.0625 68.7163 19.9202 68.271 19.7842C67.8381 19.6481 67.3494 19.4997 66.8052 19.3389C66.2733 19.1781 65.7228 18.9925 65.1538 18.7822C64.5972 18.5719 64.09 18.3122 63.6323 18.0029C63.187 17.6937 62.8283 17.3288 62.5562 16.9082C62.2964 16.4876 62.1974 15.9805 62.2593 15.3867C62.3088 14.8796 62.4696 14.459 62.7417 14.125C63.0262 13.7786 63.3787 13.5065 63.7993 13.3086C64.2323 13.0983 64.7085 12.9437 65.228 12.8447C65.7599 12.7458 66.298 12.6901 66.8423 12.6777C67.3989 12.653 67.9432 12.6592 68.4751 12.6963C69.0194 12.7334 69.508 12.7767 69.9409 12.8262C70.3739 12.8757 70.7388 12.9251 71.0356 12.9746C71.3449 13.0117 71.5366 13.0365 71.6108 13.0488C71.9325 13.0736 72.2541 13.0674 72.5757 13.0303C72.8602 13.0055 73.1694 12.9499 73.5034 12.8633C73.8498 12.7643 74.1838 12.6159 74.5054 12.418ZM74.4126 13.2158C74.8332 13.2653 75.1857 13.3024 75.4702 13.3271C75.7671 13.3395 76.0083 13.3581 76.1938 13.3828C76.4165 13.4076 76.5897 13.4199 76.7134 13.4199C76.8494 13.4323 77.0535 13.4261 77.3257 13.4014C77.5607 13.3766 77.8761 13.3457 78.272 13.3086C78.6802 13.2715 79.1997 13.2158 79.8306 13.1416C79.5461 13.389 79.3172 13.6302 79.144 13.8652C78.9832 14.0879 78.8595 14.2858 78.7729 14.459C78.6616 14.6693 78.5936 14.8672 78.5688 15.0527C78.5194 15.3496 78.4761 15.7578 78.439 16.2773C78.4142 16.7845 78.3895 17.3411 78.3647 17.9473C78.34 18.5534 78.3276 19.1781 78.3276 19.8213C78.3276 20.4645 78.3338 21.0768 78.3462 21.6582C78.3709 22.2272 78.408 22.7344 78.4575 23.1797C78.5194 23.625 78.5936 23.9466 78.6802 24.1445C78.8039 24.3672 78.9338 24.5898 79.0698 24.8125C79.1935 24.998 79.342 25.1898 79.5151 25.3877C79.6883 25.5856 79.8862 25.7464 80.1089 25.8701C79.3791 25.833 78.7977 25.8145 78.3647 25.8145H77.6968C77.4989 25.8145 77.2453 25.8268 76.936 25.8516C76.6763 25.8763 76.3485 25.901 75.9526 25.9258C75.5568 25.9505 75.0806 25.9876 74.5239 26.0371C74.8084 25.7279 75.0311 25.431 75.1919 25.1465C75.3527 24.862 75.4826 24.6146 75.5815 24.4043C75.6929 24.1569 75.7671 23.9219 75.8042 23.6992C75.8537 23.3776 75.8908 22.9818 75.9155 22.5117C75.9526 22.0293 75.9774 21.516 75.9897 20.9717C76.0021 20.415 76.0021 19.8522 75.9897 19.2832C75.9897 18.7018 75.9774 18.1452 75.9526 17.6133C75.9279 17.0814 75.8908 16.599 75.8413 16.166C75.8042 15.7331 75.7547 15.3867 75.6929 15.127C75.6558 14.9661 75.5815 14.7868 75.4702 14.5889C75.3713 14.4157 75.2352 14.2178 75.062 13.9951C74.9012 13.7601 74.6847 13.5003 74.4126 13.2158ZM85.8237 12.2881C86.2567 12.2881 86.6463 12.3623 86.9927 12.5107C87.3514 12.6468 87.6792 12.8014 87.9761 12.9746C88.2853 13.1478 88.576 13.3086 88.8481 13.457C89.1203 13.5931 89.3986 13.6611 89.6831 13.6611C89.9058 13.6488 90.1593 13.6178 90.4438 13.5684C90.6912 13.5189 90.9757 13.4447 91.2974 13.3457C91.6313 13.2344 92.0024 13.0736 92.4106 12.8633C92.0024 13.2591 91.6685 13.5931 91.4087 13.8652C91.1613 14.125 90.9696 14.3415 90.8335 14.5146C90.6727 14.7126 90.5552 14.8672 90.481 14.9785C90.4067 15.1146 90.2954 15.3187 90.147 15.5908C90.0109 15.8382 89.8254 16.1722 89.5903 16.5928C89.3553 17.001 89.0584 17.5391 88.6997 18.207C88.6997 17.3535 88.6131 16.6917 88.4399 16.2217C88.2791 15.7516 88.0998 15.3929 87.9019 15.1455C87.6668 14.861 87.4009 14.6816 87.104 14.6074C86.8319 14.5703 86.5597 14.6198 86.2876 14.7559C86.0155 14.8796 85.7433 15.0651 85.4712 15.3125C85.2114 15.5599 84.9578 15.8568 84.7104 16.2031C84.4754 16.5371 84.259 16.8896 84.061 17.2607C83.8755 17.6318 83.7209 18.0091 83.5972 18.3926C83.4735 18.7637 83.3931 19.11 83.356 19.4316C83.3188 19.7161 83.3127 20.0501 83.3374 20.4336C83.3621 20.8047 83.4178 21.1882 83.5044 21.584C83.591 21.9674 83.7023 22.3447 83.8384 22.7158C83.9744 23.0869 84.1414 23.4209 84.3394 23.7178C84.5496 24.0023 84.7847 24.2373 85.0444 24.4229C85.3042 24.596 85.6011 24.6764 85.9351 24.6641C86.3062 24.6393 86.6711 24.528 87.0298 24.3301C87.339 24.1693 87.6545 23.9219 87.9761 23.5879C88.2977 23.2415 88.576 22.7529 88.811 22.1221L91.5571 22.623C90.7655 23.5879 89.9924 24.3115 89.2378 24.7939C88.4956 25.2764 87.8276 25.6165 87.2339 25.8145C86.5412 26.0371 85.8856 26.1423 85.2671 26.1299C84.4878 26.0433 83.758 25.8083 83.0776 25.4248C82.3973 25.0413 81.8097 24.5775 81.3149 24.0332C80.8325 23.4766 80.4552 22.8704 80.1831 22.2148C79.911 21.5592 79.7935 20.916 79.8306 20.2852C79.8553 19.8646 79.9419 19.376 80.0903 18.8193C80.2388 18.2503 80.4367 17.6689 80.6841 17.0752C80.9438 16.4814 81.2531 15.9001 81.6118 15.3311C81.9705 14.762 82.3664 14.2549 82.7993 13.8096C83.2323 13.3519 83.7023 12.987 84.2095 12.7148C84.729 12.4303 85.2671 12.2881 85.8237 12.2881Z" fill="url(#paint1_linear_391_2066)"/>
<defs>
<linearGradient id="paint0_linear_391_2066" x1="4" y1="19.0968" x2="92.0028" y2="17.4552" gradientUnits="userSpaceOnUse">
<stop stop-opacity="0"/>
<stop offset="0.495"/>
<stop offset="1" stop-opacity="0"/>
</linearGradient>
<linearGradient id="paint1_linear_391_2066" x1="0" y1="16" x2="96" y2="16" gradientUnits="userSpaceOnUse">
<stop offset="0.0659998" stop-opacity="0.18"/>
<stop offset="0.261" stop-opacity="0.7"/>
<stop offset="0.526" stop-opacity="0.09"/>
<stop offset="0.826" stop-opacity="0.7"/>
<stop offset="1" stop-opacity="0"/>
</linearGradient>
</defs>
</svg>
