<svg width="444" height="146" viewBox="0 0 444 146" fill="none" xmlns="http://www.w3.org/2000/svg">
<rect x="13" y="3" width="420" height="140" fill="url(#paint0_linear_752_2042)"/>
<mask id="path-2-outside-1_752_2042" maskUnits="userSpaceOnUse" x="107" y="37" width="242" height="73" fill="black">
<rect fill="white" x="107" y="37" width="242" height="73"/>
<path d="M111.994 107V52.568H110.17L111.514 39.8H120.538L130.042 39.704L134.65 75.992L139.354 39.8H157.402V107H144.346V66.872L139.258 97.4H130.138L125.05 66.872V107H111.994ZM173.84 85.88V94.52C173.84 94.84 174 95 174.32 95H177.104C177.424 95 177.584 94.84 177.584 94.52L177.68 81.752L166.832 77.048C164.4 75.96 162.768 74.84 161.936 73.688C161.168 72.536 160.784 70.776 160.784 68.408V52.76C160.784 47.832 161.84 44.312 163.952 42.2C166.064 40.088 169.488 39.032 174.224 39.032H178.256C182.736 39.224 185.936 40.408 187.856 42.584C189.776 44.696 190.736 48.088 190.736 52.76V64.76L177.68 63.32V52.28C177.68 51.96 177.52 51.8 177.2 51.8H174.32C174 51.8 173.84 51.96 173.84 52.28V66.392L184.688 71.096C187.12 72.12 188.72 73.24 189.488 74.456C190.32 75.608 190.736 77.368 190.736 79.736V94.04C190.736 98.712 189.776 102.136 187.856 104.312C185.936 106.424 182.736 107.576 178.256 107.768H174.416C169.552 107.768 166.064 106.712 163.952 104.6C161.84 102.424 160.784 98.904 160.784 94.04V85.88H173.84ZM210.481 79.832L211.249 67.064H227.377V93.656C227.377 98.52 226.289 102.04 224.113 104.216C222.001 106.328 218.481 107.384 213.553 107.384H208.369C203.441 107.384 199.889 106.328 197.713 104.216C195.601 102.04 194.545 98.52 194.545 93.656V53.144C194.545 48.216 195.601 44.696 197.713 42.584C199.889 40.472 203.441 39.416 208.369 39.416H213.553C218.481 39.416 222.001 40.472 224.113 42.584C226.289 44.696 227.377 48.216 227.377 53.144V62.648L214.321 61.208V52.664C214.321 52.344 214.161 52.184 213.841 52.184H208.081C207.761 52.184 207.601 52.344 207.601 52.664V94.136C207.601 94.456 207.761 94.616 208.081 94.616H213.841C214.161 94.616 214.321 94.456 214.321 94.136V79.832H210.481ZM279.855 79.16V94.04C279.855 98.904 278.767 102.424 276.591 104.6C274.479 106.712 270.959 107.768 266.031 107.768H261.807C256.879 107.768 253.327 106.712 251.151 104.6C249.039 102.424 247.983 98.904 247.983 94.04V52.76C247.983 47.832 249.039 44.312 251.151 42.2C253.327 40.088 256.879 39.032 261.807 39.032H266.031C270.959 39.032 274.479 40.088 276.591 42.2C278.767 44.312 279.855 47.832 279.855 52.76V68.6L266.799 67.16V52.28C266.799 51.96 266.639 51.8 266.319 51.8H261.519C261.199 51.8 261.039 51.96 261.039 52.28V94.52C261.039 94.84 261.199 95 261.519 95H266.319C266.639 95 266.799 94.84 266.799 94.52V79.16H279.855ZM292.161 107V52.568H283.233V39.8H314.049V52.568H305.217V107H292.161ZM319.744 107V52.568H317.92L319.264 39.8H346.72L345.952 52.568H332.8V66.968H344.608L343.84 79.736H332.8V107H319.744Z"/>
</mask>
<path d="M111.994 107H109.994V109H111.994V107ZM111.994 52.568H113.994V50.568H111.994V52.568ZM110.17 52.568L108.181 52.3586L107.948 54.568H110.17V52.568ZM111.514 39.8V37.8H109.713L109.525 39.5906L111.514 39.8ZM120.538 39.8V41.8H120.548L120.558 41.7999L120.538 39.8ZM130.042 39.704L132.026 39.4521L131.802 37.6861L130.022 37.7041L130.042 39.704ZM134.65 75.992L132.666 76.2439L136.633 76.2498L134.65 75.992ZM139.354 39.8V37.8H137.597L137.371 39.5422L139.354 39.8ZM157.402 39.8H159.402V37.8H157.402V39.8ZM157.402 107V109H159.402V107H157.402ZM144.346 107H142.346V109H144.346V107ZM144.346 66.872H146.346L142.373 66.5432L144.346 66.872ZM139.258 97.4V99.4H140.952L141.231 97.7288L139.258 97.4ZM130.138 97.4L128.165 97.7288L128.444 99.4H130.138V97.4ZM125.05 66.872L127.023 66.5432L123.05 66.872H125.05ZM125.05 107V109H127.05V107H125.05ZM111.994 107H113.994V52.568H111.994H109.994V107H111.994ZM111.994 52.568V50.568H110.17V52.568V54.568H111.994V52.568ZM110.17 52.568L112.159 52.7774L113.503 40.0094L111.514 39.8L109.525 39.5906L108.181 52.3586L110.17 52.568ZM111.514 39.8V41.8H120.538V39.8V37.8H111.514V39.8ZM120.538 39.8L120.558 41.7999L130.062 41.7039L130.042 39.704L130.022 37.7041L120.518 37.8001L120.538 39.8ZM130.042 39.704L128.058 39.9559L132.666 76.2439L134.65 75.992L136.634 75.7401L132.026 39.4521L130.042 39.704ZM134.65 75.992L136.633 76.2498L141.337 40.0578L139.354 39.8L137.371 39.5422L132.667 75.7342L134.65 75.992ZM139.354 39.8V41.8H157.402V39.8V37.8H139.354V39.8ZM157.402 39.8H155.402V107H157.402H159.402V39.8H157.402ZM157.402 107V105H144.346V107V109H157.402V107ZM144.346 107H146.346V66.872H144.346H142.346V107H144.346ZM144.346 66.872L142.373 66.5432L137.285 97.0712L139.258 97.4L141.231 97.7288L146.319 67.2008L144.346 66.872ZM139.258 97.4V95.4H130.138V97.4V99.4H139.258V97.4ZM130.138 97.4L132.111 97.0712L127.023 66.5432L125.05 66.872L123.077 67.2008L128.165 97.7288L130.138 97.4ZM125.05 66.872H123.05V107H125.05H127.05V66.872H125.05ZM125.05 107V105H111.994V107V109H125.05V107ZM173.84 85.88H175.84V83.88H173.84V85.88ZM177.584 94.52L175.584 94.505L175.584 94.5125V94.52H177.584ZM177.68 81.752L179.68 81.767L179.69 80.4436L178.475 79.9171L177.68 81.752ZM166.832 77.048L166.015 78.8736L166.026 78.8783L166.036 78.8829L166.832 77.048ZM161.936 73.688L160.272 74.7974L160.292 74.8286L160.314 74.859L161.936 73.688ZM178.256 39.032L178.341 37.0338L178.299 37.032H178.256V39.032ZM187.856 42.584L186.356 43.9072L186.366 43.9184L186.376 43.9293L187.856 42.584ZM190.736 64.76L190.516 66.7479L192.736 66.9927V64.76H190.736ZM177.68 63.32H175.68V65.1115L177.46 65.3079L177.68 63.32ZM173.84 66.392H171.84V67.7047L173.044 68.2269L173.84 66.392ZM184.688 71.096L183.892 72.9309L183.902 72.9351L183.912 72.9393L184.688 71.096ZM189.488 74.456L187.797 75.524L187.83 75.5766L187.866 75.627L189.488 74.456ZM187.856 104.312L189.336 105.657L189.346 105.646L189.355 105.635L187.856 104.312ZM178.256 107.768V109.768H178.299L178.341 109.766L178.256 107.768ZM163.952 104.6L162.517 105.993L162.527 106.004L162.538 106.014L163.952 104.6ZM160.784 85.88V83.88H158.784V85.88H160.784ZM173.84 85.88H171.84V94.52H173.84H175.84V85.88H173.84ZM173.84 94.52H171.84C171.84 94.9883 171.958 95.7069 172.546 96.2942C173.133 96.8816 173.851 97 174.32 97V95V93C174.468 93 174.947 93.0384 175.374 93.4658C175.801 93.8931 175.84 94.3717 175.84 94.52H173.84ZM174.32 95V97H177.104V95V93H174.32V95ZM177.104 95V97C177.572 97 178.291 96.8816 178.878 96.2942C179.465 95.7069 179.584 94.9883 179.584 94.52H177.584H175.584C175.584 94.3717 175.622 93.8931 176.05 93.4658C176.477 93.0384 176.955 93 177.104 93V95ZM177.584 94.52L179.584 94.535L179.68 81.767L177.68 81.752L175.68 81.737L175.584 94.505L177.584 94.52ZM177.68 81.752L178.475 79.9171L167.627 75.2131L166.832 77.048L166.036 78.8829L176.884 83.5869L177.68 81.752ZM166.832 77.048L167.648 75.2224C165.301 74.1722 164.071 73.2292 163.557 72.517L161.936 73.688L160.314 74.859C161.464 76.4508 163.498 77.7478 166.015 78.8736L166.832 77.048ZM161.936 73.688L163.6 72.5786C163.157 71.9145 162.784 70.6304 162.784 68.408H160.784H158.784C158.784 70.9216 159.178 73.1575 160.272 74.7974L161.936 73.688ZM160.784 68.408H162.784V52.76H160.784H158.784V68.408H160.784ZM160.784 52.76H162.784C162.784 48.035 163.81 45.1701 165.366 43.6142L163.952 42.2L162.538 40.7858C159.869 43.4539 158.784 47.629 158.784 52.76H160.784ZM163.952 42.2L165.366 43.6142C166.934 42.0464 169.718 41.032 174.224 41.032V39.032V37.032C169.257 37.032 165.194 38.1296 162.538 40.7858L163.952 42.2ZM174.224 39.032V41.032H178.256V39.032V37.032H174.224V39.032ZM178.256 39.032L178.17 41.0302C182.398 41.2113 184.952 42.3154 186.356 43.9072L187.856 42.584L189.355 41.2608C186.92 38.5006 183.074 37.2366 178.341 37.0338L178.256 39.032ZM187.856 42.584L186.376 43.9293C187.804 45.5002 188.736 48.2877 188.736 52.76H190.736H192.736C192.736 47.8883 191.748 43.8918 189.336 41.2387L187.856 42.584ZM190.736 52.76H188.736V64.76H190.736H192.736V52.76H190.736ZM190.736 64.76L190.955 62.7721L177.899 61.3321L177.68 63.32L177.46 65.3079L190.516 66.7479L190.736 64.76ZM177.68 63.32H179.68V52.28H177.68H175.68V63.32H177.68ZM177.68 52.28H179.68C179.68 51.8117 179.561 51.0931 178.974 50.5058C178.387 49.9184 177.668 49.8 177.2 49.8V51.8V53.8C177.051 53.8 176.573 53.7616 176.146 53.3342C175.718 52.9069 175.68 52.4283 175.68 52.28H177.68ZM177.2 51.8V49.8H174.32V51.8V53.8H177.2V51.8ZM174.32 51.8V49.8C173.851 49.8 173.133 49.9184 172.546 50.5058C171.958 51.0931 171.84 51.8117 171.84 52.28H173.84H175.84C175.84 52.4283 175.801 52.9068 175.374 53.3342C174.947 53.7616 174.468 53.8 174.32 53.8V51.8ZM173.84 52.28H171.84V66.392H173.84H175.84V52.28H173.84ZM173.84 66.392L173.044 68.2269L183.892 72.9309L184.688 71.096L185.483 69.2611L174.635 64.5571L173.84 66.392ZM184.688 71.096L183.912 72.9393C186.239 73.9191 187.365 74.8397 187.797 75.524L189.488 74.456L191.179 73.388C190.075 71.6403 188.001 70.3209 185.464 69.2527L184.688 71.096ZM189.488 74.456L187.866 75.627C188.337 76.278 188.736 77.5345 188.736 79.736H190.736H192.736C192.736 77.2015 192.303 74.938 191.109 73.285L189.488 74.456ZM190.736 79.736H188.736V94.04H190.736H192.736V79.736H190.736ZM190.736 94.04H188.736C188.736 98.5049 187.807 101.344 186.356 102.989L187.856 104.312L189.355 105.635C191.745 102.928 192.736 98.9191 192.736 94.04H190.736ZM187.856 104.312L186.376 102.967C184.974 104.508 182.413 105.588 178.17 105.77L178.256 107.768L178.341 109.766C183.059 109.564 186.897 108.34 189.336 105.657L187.856 104.312ZM178.256 107.768V105.768H174.416V107.768V109.768H178.256V107.768ZM174.416 107.768V105.768C169.764 105.768 166.926 104.746 165.366 103.186L163.952 104.6L162.538 106.014C165.202 108.678 169.34 109.768 174.416 109.768V107.768ZM163.952 104.6L165.387 103.207C163.803 101.575 162.784 98.6845 162.784 94.04H160.784H158.784C158.784 99.1235 159.876 103.273 162.517 105.993L163.952 104.6ZM160.784 94.04H162.784V85.88H160.784H158.784V94.04H160.784ZM160.784 85.88V87.88H173.84V85.88V83.88H160.784V85.88ZM210.481 79.832L208.485 79.7119L208.357 81.832H210.481V79.832ZM211.249 67.064V65.064H209.366L209.253 66.9439L211.249 67.064ZM227.377 67.064H229.377V65.064H227.377V67.064ZM224.113 104.216L222.699 102.802L222.699 102.802L224.113 104.216ZM197.713 104.216L196.278 105.609L196.299 105.63L196.32 105.651L197.713 104.216ZM197.713 42.584L196.32 41.1488L196.309 41.1592L196.299 41.1698L197.713 42.584ZM224.113 42.584L222.699 43.9982L222.709 44.0088L222.72 44.0192L224.113 42.584ZM227.377 62.648L227.158 64.6359L229.377 64.8807V62.648H227.377ZM214.321 61.208H212.321V62.9995L214.102 63.1959L214.321 61.208ZM214.321 79.832H216.321V77.832H214.321V79.832ZM210.481 79.832L212.477 79.9521L213.245 67.1841L211.249 67.064L209.253 66.9439L208.485 79.7119L210.481 79.832ZM211.249 67.064V69.064H227.377V67.064V65.064H211.249V67.064ZM227.377 67.064H225.377V93.656H227.377H229.377V67.064H227.377ZM227.377 93.656H225.377C225.377 98.2875 224.332 101.169 222.699 102.802L224.113 104.216L225.527 105.63C228.246 102.911 229.377 98.7525 229.377 93.656H227.377ZM224.113 104.216L222.699 102.802C221.143 104.358 218.278 105.384 213.553 105.384V107.384V109.384C218.684 109.384 222.859 108.298 225.527 105.63L224.113 104.216ZM213.553 107.384V105.384H208.369V107.384V109.384H213.553V107.384ZM208.369 107.384V105.384C203.652 105.384 200.734 104.361 199.106 102.781L197.713 104.216L196.32 105.651C199.044 108.295 203.23 109.384 208.369 109.384V107.384ZM197.713 104.216L199.148 102.823C197.564 101.191 196.545 98.3005 196.545 93.656H194.545H192.545C192.545 98.7395 193.638 102.889 196.278 105.609L197.713 104.216ZM194.545 93.656H196.545V53.144H194.545H192.545V93.656H194.545ZM194.545 53.144H196.545C196.545 48.419 197.571 45.5541 199.127 43.9982L197.713 42.584L196.299 41.1698C193.631 43.8379 192.545 48.013 192.545 53.144H194.545ZM197.713 42.584L199.106 44.0192C200.734 42.4391 203.652 41.416 208.369 41.416V39.416V37.416C203.23 37.416 199.044 38.5049 196.32 41.1488L197.713 42.584ZM208.369 39.416V41.416H213.553V39.416V37.416H208.369V39.416ZM213.553 39.416V41.416C218.278 41.416 221.143 42.4423 222.699 43.9982L224.113 42.584L225.527 41.1698C222.859 38.5017 218.684 37.416 213.553 37.416V39.416ZM224.113 42.584L222.72 44.0192C224.325 45.5764 225.377 48.4322 225.377 53.144H227.377H229.377C229.377 47.9998 228.253 43.8156 225.506 41.1488L224.113 42.584ZM227.377 53.144H225.377V62.648H227.377H229.377V53.144H227.377ZM227.377 62.648L227.596 60.6601L214.54 59.2201L214.321 61.208L214.102 63.1959L227.158 64.6359L227.377 62.648ZM214.321 61.208H216.321V52.664H214.321H212.321V61.208H214.321ZM214.321 52.664H216.321C216.321 52.1957 216.203 51.4771 215.615 50.8898C215.028 50.3024 214.309 50.184 213.841 50.184V52.184V54.184C213.693 54.184 213.214 54.1456 212.787 53.7182C212.359 53.2909 212.321 52.8123 212.321 52.664H214.321ZM213.841 52.184V50.184H208.081V52.184V54.184H213.841V52.184ZM208.081 52.184V50.184C207.613 50.184 206.894 50.3024 206.307 50.8898C205.719 51.4771 205.601 52.1957 205.601 52.664H207.601H209.601C209.601 52.8123 209.563 53.2909 209.135 53.7182C208.708 54.1456 208.229 54.184 208.081 54.184V52.184ZM207.601 52.664H205.601V94.136H207.601H209.601V52.664H207.601ZM207.601 94.136H205.601C205.601 94.6043 205.719 95.3229 206.307 95.9102C206.894 96.4976 207.613 96.616 208.081 96.616V94.616V92.616C208.229 92.616 208.708 92.6544 209.135 93.0818C209.563 93.5091 209.601 93.9877 209.601 94.136H207.601ZM208.081 94.616V96.616H213.841V94.616V92.616H208.081V94.616ZM213.841 94.616V96.616C214.309 96.616 215.028 96.4976 215.615 95.9102C216.203 95.3229 216.321 94.6043 216.321 94.136H214.321H212.321C212.321 93.9877 212.359 93.5091 212.787 93.0818C213.214 92.6544 213.693 92.616 213.841 92.616V94.616ZM214.321 94.136H216.321V79.832H214.321H212.321V94.136H214.321ZM214.321 79.832V77.832H210.481V79.832V81.832H214.321V79.832ZM279.855 79.16H281.855V77.16H279.855V79.16ZM276.591 104.6L275.176 103.186L275.176 103.186L276.591 104.6ZM251.151 104.6L249.715 105.993L249.736 106.014L249.758 106.035L251.151 104.6ZM251.151 42.2L249.758 40.7648L249.747 40.7752L249.736 40.7858L251.151 42.2ZM276.591 42.2L275.176 43.6142L275.187 43.6248L275.198 43.6352L276.591 42.2ZM279.855 68.6L279.635 70.5879L281.855 70.8327V68.6H279.855ZM266.799 67.16H264.799V68.9515L266.579 69.1479L266.799 67.16ZM266.799 79.16V77.16H264.799V79.16H266.799ZM279.855 79.16H277.855V94.04H279.855H281.855V79.16H279.855ZM279.855 94.04H277.855C277.855 98.6715 276.809 101.553 275.176 103.186L276.591 104.6L278.005 106.014C280.724 103.295 281.855 99.1365 281.855 94.04H279.855ZM276.591 104.6L275.176 103.186C273.62 104.742 270.755 105.768 266.031 105.768V107.768V109.768C271.162 109.768 275.337 108.682 278.005 106.014L276.591 104.6ZM266.031 107.768V105.768H261.807V107.768V109.768H266.031V107.768ZM261.807 107.768V105.768C257.089 105.768 254.171 104.745 252.543 103.165L251.151 104.6L249.758 106.035C252.482 108.679 256.668 109.768 261.807 109.768V107.768ZM251.151 104.6L252.586 103.207C251.002 101.575 249.983 98.6845 249.983 94.04H247.983H245.983C245.983 99.1235 247.075 103.273 249.715 105.993L251.151 104.6ZM247.983 94.04H249.983V52.76H247.983H245.983V94.04H247.983ZM247.983 52.76H249.983C249.983 48.035 251.009 45.1701 252.565 43.6142L251.151 42.2L249.736 40.7858C247.068 43.4539 245.983 47.629 245.983 52.76H247.983ZM251.151 42.2L252.543 43.6352C254.171 42.0551 257.089 41.032 261.807 41.032V39.032V37.032C256.668 37.032 252.482 38.1209 249.758 40.7648L251.151 42.2ZM261.807 39.032V41.032H266.031V39.032V37.032H261.807V39.032ZM266.031 39.032V41.032C270.755 41.032 273.62 42.0583 275.176 43.6142L276.591 42.2L278.005 40.7858C275.337 38.1177 271.162 37.032 266.031 37.032V39.032ZM276.591 42.2L275.198 43.6352C276.802 45.1924 277.855 48.0482 277.855 52.76H279.855H281.855C281.855 47.6158 280.731 43.4316 277.983 40.7648L276.591 42.2ZM279.855 52.76H277.855V68.6H279.855H281.855V52.76H279.855ZM279.855 68.6L280.074 66.6121L267.018 65.1721L266.799 67.16L266.579 69.1479L279.635 70.5879L279.855 68.6ZM266.799 67.16H268.799V52.28H266.799H264.799V67.16H266.799ZM266.799 52.28H268.799C268.799 51.8117 268.68 51.0931 268.093 50.5058C267.505 49.9184 266.787 49.8 266.319 49.8V51.8V53.8C266.17 53.8 265.692 53.7616 265.264 53.3342C264.837 52.9068 264.799 52.4283 264.799 52.28H266.799ZM266.319 51.8V49.8H261.519V51.8V53.8H266.319V51.8ZM261.519 51.8V49.8C261.05 49.8 260.332 49.9184 259.744 50.5058C259.157 51.0931 259.039 51.8117 259.039 52.28H261.039H263.039C263.039 52.4283 263 52.9069 262.573 53.3342C262.145 53.7616 261.667 53.8 261.519 53.8V51.8ZM261.039 52.28H259.039V94.52H261.039H263.039V52.28H261.039ZM261.039 94.52H259.039C259.039 94.9883 259.157 95.7069 259.744 96.2942C260.332 96.8816 261.05 97 261.519 97V95V93C261.667 93 262.145 93.0384 262.573 93.4658C263 93.8931 263.039 94.3717 263.039 94.52H261.039ZM261.519 95V97H266.319V95V93H261.519V95ZM266.319 95V97C266.787 97 267.505 96.8816 268.093 96.2942C268.68 95.7069 268.799 94.9883 268.799 94.52H266.799H264.799C264.799 94.3717 264.837 93.8931 265.264 93.4658C265.692 93.0384 266.17 93 266.319 93V95ZM266.799 94.52H268.799V79.16H266.799H264.799V94.52H266.799ZM266.799 79.16V81.16H279.855V79.16V77.16H266.799V79.16ZM292.161 107H290.161V109H292.161V107ZM292.161 52.568H294.161V50.568H292.161V52.568ZM283.233 52.568H281.233V54.568H283.233V52.568ZM283.233 39.8V37.8H281.233V39.8H283.233ZM314.049 39.8H316.049V37.8H314.049V39.8ZM314.049 52.568V54.568H316.049V52.568H314.049ZM305.217 52.568V50.568H303.217V52.568H305.217ZM305.217 107V109H307.217V107H305.217ZM292.161 107H294.161V52.568H292.161H290.161V107H292.161ZM292.161 52.568V50.568H283.233V52.568V54.568H292.161V52.568ZM283.233 52.568H285.233V39.8H283.233H281.233V52.568H283.233ZM283.233 39.8V41.8H314.049V39.8V37.8H283.233V39.8ZM314.049 39.8H312.049V52.568H314.049H316.049V39.8H314.049ZM314.049 52.568V50.568H305.217V52.568V54.568H314.049V52.568ZM305.217 52.568H303.217V107H305.217H307.217V52.568H305.217ZM305.217 107V105H292.161V107V109H305.217V107ZM319.744 107H317.744V109H319.744V107ZM319.744 52.568H321.744V50.568H319.744V52.568ZM317.92 52.568L315.931 52.3586L315.698 54.568H317.92V52.568ZM319.264 39.8V37.8H317.463L317.275 39.5906L319.264 39.8ZM346.72 39.8L348.716 39.9201L348.844 37.8H346.72V39.8ZM345.952 52.568V54.568H347.835L347.948 52.6881L345.952 52.568ZM332.8 52.568V50.568H330.8V52.568H332.8ZM332.8 66.968H330.8V68.968H332.8V66.968ZM344.608 66.968L346.604 67.0881L346.732 64.968H344.608V66.968ZM343.84 79.736V81.736H345.723L345.836 79.8561L343.84 79.736ZM332.8 79.736V77.736H330.8V79.736H332.8ZM332.8 107V109H334.8V107H332.8ZM319.744 107H321.744V52.568H319.744H317.744V107H319.744ZM319.744 52.568V50.568H317.92V52.568V54.568H319.744V52.568ZM317.92 52.568L319.909 52.7774L321.253 40.0094L319.264 39.8L317.275 39.5906L315.931 52.3586L317.92 52.568ZM319.264 39.8V41.8H346.72V39.8V37.8H319.264V39.8ZM346.72 39.8L344.724 39.6799L343.956 52.4479L345.952 52.568L347.948 52.6881L348.716 39.9201L346.72 39.8ZM345.952 52.568V50.568H332.8V52.568V54.568H345.952V52.568ZM332.8 52.568H330.8V66.968H332.8H334.8V52.568H332.8ZM332.8 66.968V68.968H344.608V66.968V64.968H332.8V66.968ZM344.608 66.968L342.612 66.8479L341.844 79.6159L343.84 79.736L345.836 79.8561L346.604 67.0881L344.608 66.968ZM343.84 79.736V77.736H332.8V79.736V81.736H343.84V79.736ZM332.8 79.736H330.8V107H332.8H334.8V79.736H332.8ZM332.8 107V105H319.744V107V109H332.8V107Z" fill="white" mask="url(#path-2-outside-1_752_2042)"/>
<path d="M42 125.261L10.5 107.301L10.5 143.222L42 125.261Z" fill="white"/>
<path d="M42 90.4205L10.5 72.4603L10.5 108.381L42 90.4205Z" fill="white"/>
<path d="M42 55.5795L10.5 37.6194L10.5 73.5397L42 55.5795Z" fill="white"/>
<path d="M42 20.7387L10.5 2.77847L10.5 38.6988L42 20.7387Z" fill="white"/>
<path d="M402 125.261L433.5 107.301V143.222L402 125.261Z" fill="white"/>
<path d="M402 90.4205L433.5 72.4603V108.381L402 90.4205Z" fill="white"/>
<path d="M402 55.5795L433.5 37.6194V73.5397L402 55.5795Z" fill="white"/>
<path d="M402 20.7387L433.5 2.77847V38.6988L402 20.7387Z" fill="white"/>
<defs>
<linearGradient id="paint0_linear_752_2042" x1="13" y1="73" x2="433" y2="73" gradientUnits="userSpaceOnUse">
<stop stop-color="#F00000"/>
<stop offset="1" stop-color="#FF8C00"/>
</linearGradient>
</defs>
</svg>
