<svg width="444" height="146" viewBox="0 0 444 146" fill="none" xmlns="http://www.w3.org/2000/svg" xmlns:xlink="http://www.w3.org/1999/xlink">
<path d="M13 13C13 7.47716 17.4772 3 23 3H423C428.523 3 433 7.47715 433 13V143H13V13Z" fill="url(#pattern0_752_2043)"/>
<path d="M42 125.261L10.5 107.301L10.5 143.222L42 125.261Z" fill="white"/>
<path d="M42 90.4205L10.5 72.4603L10.5 108.381L42 90.4205Z" fill="white"/>
<path d="M42 55.5795L10.5 37.6194L10.5 73.5397L42 55.5795Z" fill="white"/>
<path d="M42 20.7386L10.5 2.77844L10.5 38.6988L42 20.7386Z" fill="white"/>
<path d="M402 125.261L433.5 107.301V143.222L402 125.261Z" fill="white"/>
<path d="M402 90.4205L433.5 72.4603V108.381L402 90.4205Z" fill="white"/>
<path d="M402 55.5795L433.5 37.6194V73.5397L402 55.5795Z" fill="white"/>
<path d="M402 20.7386L433.5 2.77844V38.6988L402 20.7386Z" fill="white"/>
<defs>
<pattern id="pattern0_752_2043" patternUnits="userSpaceOnUse" patternTransform="matrix(81.672 0 0 38.048 173.2 3)" preserveAspectRatio="none" viewBox="0 0 204.18 95.12" width="1" height="1">
<use xlink:href="#pattern0_752_2043_inner" transform="translate(-306.27 -47.56)"/>
<use xlink:href="#pattern0_752_2043_inner" transform="translate(-102.09 -47.56)"/>
<use xlink:href="#pattern0_752_2043_inner" transform="translate(102.09 -47.56)"/>
<use xlink:href="#pattern0_752_2043_inner" transform="translate(-408.36 0)"/>
<use xlink:href="#pattern0_752_2043_inner" transform="translate(-204.18 0)"/>
<g id="pattern0_752_2043_inner">
<path d="M112 0H249L220.295 58H112V0Z" fill="white"/>
<path d="M26.0074 0H136.406L111.46 58H0L26.0074 0Z" fill="#FF0505"/>
</g>
<use xlink:href="#pattern0_752_2043_inner" transform="translate(-306.27 47.56)"/>
<use xlink:href="#pattern0_752_2043_inner" transform="translate(-102.09 47.56)"/>
<use xlink:href="#pattern0_752_2043_inner" transform="translate(102.09 47.56)"/>
</pattern></defs>
</svg>
