<svg width="1280" height="720" xmlns="http://www.w3.org/2000/svg" xmlns:xlink="http://www.w3.org/1999/xlink" overflow="hidden"><g><rect x="0" y="0" width="1280" height="720" fill="#FFFFFF" fill-opacity="0"/><path d="M531.243 131.147C544.57 133.97 555.831 139.688 564.889 150.288 569.396 145.395 573.935 140.896 577.981 135.99 587.062 124.98 598.705 117.54 612.617 116.458 627.823 115.274 643.238 116.712 658.559 117.123 665.841 117.318 673.113 117.854 680.394 118.104 691.673 118.492 702.959 118.664 714.236 119.117 728.128 119.674 742.019 120.337 755.9 121.115 773.731 122.115 789.846 127.397 802.103 141.136 806.002 145.508 809.111 150.585 812.326 154.988 817.961 150.686 823.664 145.302 830.274 141.491 846.507 132.131 863.756 132.619 881.416 137.339 910.792 145.192 940.34 152.405 969.697 160.327 980.403 163.216 991.358 166.201 1001.16 171.19 1017.39 179.455 1027.51 193.466 1030.81 211.5 1032.69 221.826 1032.93 232.45 1033.99 242.931 1035.26 255.536 1036.67 268.128 1037.93 280.736 1038.71 288.609 1040.05 296.529 1039.76 304.376 1039.53 310.45 1042.28 315.161 1043.99 320.402 1049.05 335.836 1047.49 350.718 1041.13 365.55 1032.81 384.966 1025.58 404.864 1016.81 424.063 1013.27 431.799 1007.15 438.436 1001.74 445.21 993.532 455.501 985.126 465.652 976.429 475.533 968.102 484.995 960.462 495.381 948.811 501.194 937.048 507.064 924.576 509.29 911.469 506.996 909.852 506.713 908.204 506.604 905.873 506.333 905.229 509.535 904.62 512.98 903.838 516.385 898.332 540.343 878.182 559.397 853.769 561.57 836.095 563.144 818.221 562.486 800.436 562.766 799.504 562.781 798.563 562.26 797.889 562.064 794.078 568.591 790.66 575.296 786.456 581.466 778.182 593.611 766.05 600.223 752.117 603.772 749.126 604.534 745.94 604.774 742.838 604.81 732.329 604.933 721.81 605.067 711.308 604.769 705.925 604.617 700.582 603.331 695.193 602.978 691.387 602.729 687.521 603.041 683.705 603.376 680.291 603.676 676.914 604.729 673.51 604.787 662.501 604.974 651.483 605.052 640.479 604.77 635.432 604.64 630.294 604.038 625.41 602.802 620.315 601.512 615.641 602.02 610.655 603.216 582.967 609.866 556.143 608.328 530.862 593.969 518.571 586.989 509.089 577.078 501.17 565.487 500.277 564.179 498.217 562.973 496.663 562.928 488.162 562.681 479.648 562.922 471.14 562.79 441.787 562.335 415.775 542.293 411.392 512.348 410.053 503.207 410.288 493.837 409.783 484.176 399.387 487.485 388.874 490.942 378.29 494.17 366.097 497.888 353.976 501.994 341.574 504.833 330.297 507.414 318.898 506.061 308.244 501.231 285.942 491.123 274.491 473.501 270.901 449.403 267.77 428.378 262.807 407.626 258.704 386.745 255.138 368.596 251.671 350.427 248.106 332.279 244.543 314.133 241.014 295.98 237.281 277.869 234.193 262.891 233.369 247.934 240.446 233.968 244.337 226.29 249.901 219.405 255.11 212.462 261.906 203.402 269.01 194.569 276.14 185.766 285.525 174.181 298.707 169.2 312.446 165.214 329.09 160.385 345.75 155.606 362.322 150.538 375.91 146.382 389.456 143.989 403.438 148.636 404.502 148.989 406.324 148.382 407.262 147.59 418.324 138.255 430.843 133.267 445.497 133.049 464.229 132.77 482.95 131.83 501.675 131.121 508.121 130.877 514.558 130.309 521.004 130.205 524.266 130.153 527.538 130.804 531.243 131.147M442.633 540.001C449.907 545.404 458.016 548.769 467.102 549.015 479.105 549.339 491.12 549.379 503.128 549.268 506.394 549.238 508.095 550.209 509.668 553.176 518.634 570.092 532.241 581.942 550.242 588.38 572.145 596.212 594.141 594.673 616.077 588.176 617.728 587.687 619.794 587.124 621.253 587.681 639.886 594.795 659.193 592.859 678.044 590.441 686.464 589.36 693.937 589.367 702.272 590.593 714.7 592.421 727.526 591.925 740.175 591.799 759.397 591.606 776.428 579.21 782.806 561.015 784.524 556.114 785.274 550.873 786.331 546.371 792.724 547.362 799.075 548.987 805.474 549.202 818.64 549.647 831.832 549.417 845.012 549.284 848.489 549.25 852.034 548.891 855.419 548.117 877.824 542.986 891.91 524.922 892.35 500.94 892.428 496.702 892.361 492.46 892.361 487.673 896.492 489.048 899.791 490.127 903.078 491.242 924.889 498.65 943.29 493.586 958.297 475.948 971.703 460.191 985.153 444.469 998.345 428.533 1001.6 424.601 1004.59 420.179 1006.56 415.499 1014.82 395.861 1022.76 376.087 1030.58 356.266 1034.9 345.304 1035.14 334.003 1030.68 323.073 1028.38 317.463 1026.93 311.966 1026.44 305.903 1024.16 277.971 1021.25 250.091 1019.04 222.154 1017.29 200.011 1004.4 183.435 982.861 177.73 945.531 167.843 908.173 158.049 870.722 148.635 853.964 144.423 838.972 148.806 826.534 160.855 820.068 167.12 814.076 173.874 807.845 180.383 807.031 181.233 806.069 181.941 804.908 182.947 803.17 156.969 788.439 139.486 764.893 135.615 757.853 134.458 750.6 134.548 743.438 134.196 705.617 132.335 667.781 130.768 629.98 128.573 612.201 127.54 597.633 132.918 586.083 146.572 579.214 154.693 572.085 162.594 564.802 170.903 561.942 167.335 559.401 164.06 556.751 160.878 546.687 148.799 533.642 143.077 518.062 143.461 499.552 143.918 481.05 144.729 462.547 145.431 455.213 145.71 447.826 145.639 440.567 146.556 427.592 148.197 417.115 154.659 409.098 164.845 391.689 158.257 384.783 157.82 369.598 162.327 349.496 168.294 329.414 174.329 309.294 180.232 298.887 183.284 290.224 188.826 283.558 197.426 275.281 208.105 266.963 218.752 258.719 229.456 249.65 241.226 246.551 254.447 249.383 269.037 261.323 330.538 273.256 392.041 285.229 453.536 290.855 482.429 318.277 498.925 346.416 490.315 358.191 486.712 369.926 482.971 381.615 479.1 392.026 475.651 402.784 472.817 412.544 467.998 418.15 465.23 422.959 465.366 429.166 465.837 422.628 477.319 423.387 489.423 423.522 501.412 423.697 517.014 429.687 529.872 442.633 540.001Z" fill="#CB0E08" fill-rule="evenodd"/><path d="M442.578 539.276C429.958 529.369 423.98 516.545 423.806 500.983 423.671 489.026 422.914 476.954 429.439 465.501 423.244 465.032 418.444 464.896 412.849 467.657 403.109 472.464 392.372 475.29 381.982 478.73 370.316 482.59 358.604 486.322 346.852 489.915 318.769 498.503 291.401 482.05 285.787 453.233 273.837 391.899 261.928 330.558 250.012 269.218 247.185 254.667 250.278 241.481 259.329 229.741 267.557 219.066 275.858 208.447 284.119 197.796 290.772 189.218 299.417 183.691 309.804 180.647 329.884 174.76 349.927 168.74 369.988 162.789 385.144 158.294 392.036 158.729 409.41 165.301 417.411 155.141 427.868 148.696 440.817 147.06 448.061 146.145 455.434 146.215 462.753 145.938 481.22 145.237 499.685 144.428 518.159 143.973 533.708 143.589 546.726 149.297 556.771 161.344 559.416 164.517 561.952 167.784 564.806 171.342 572.075 163.055 579.19 155.175 586.045 147.076 597.572 133.457 612.111 128.094 629.855 129.123 667.581 131.313 705.343 132.876 743.088 134.731 750.236 135.083 757.475 134.993 764.5 136.147 788 140.008 802.702 157.445 804.436 183.355 805.595 182.352 806.555 181.646 807.368 180.798 813.586 174.306 819.567 167.569 826.02 161.321 838.433 149.304 853.395 144.932 870.12 149.133 907.497 158.522 944.782 168.291 982.038 178.152 1003.53 183.841 1016.4 200.374 1018.14 222.458 1020.35 250.322 1023.25 278.13 1025.53 305.988 1026.02 312.035 1027.47 317.518 1029.76 323.113 1034.22 334.014 1033.97 345.285 1029.66 356.219 1021.86 375.988 1013.93 395.71 1005.69 415.296 1003.73 419.964 1000.74 424.374 997.49 428.296 984.325 444.19 970.902 459.871 957.521 475.586 942.545 493.178 924.18 498.228 902.412 490.84 899.132 489.727 895.84 488.652 891.716 487.28 891.716 492.055 891.783 496.285 891.705 500.513 891.267 524.431 877.208 542.448 854.848 547.565 851.47 548.337 847.931 548.696 844.461 548.73 831.308 548.862 818.141 549.092 805.002 548.648 798.615 548.433 792.277 546.812 785.897 545.824 784.841 550.314 784.093 555.541 782.379 560.43 776.013 578.577 759.015 590.94 739.832 591.133 727.207 591.259 714.408 591.753 702.004 589.93 693.685 588.708 686.227 588.701 677.824 589.778 659.01 592.19 639.741 594.12 621.145 587.025 619.689 586.47 617.627 587.031 615.979 587.519 594.087 594 572.134 595.534 550.275 587.723 532.309 581.302 518.729 569.483 509.781 552.612 508.211 549.652 506.514 548.684 503.254 548.714 491.27 548.824 479.279 548.784 467.299 548.461 458.231 548.215 450.138 544.859 442.578 539.276M347.906 184.337C336.114 187.801 324.312 191.232 312.534 194.739 305.635 196.794 299.955 200.697 295.532 206.392 287.163 217.167 278.826 227.968 270.428 238.721 264.086 246.842 262.052 256.055 263.971 266.001 275.871 327.679 287.822 389.348 299.911 450.99 303.611 469.86 321.06 481.93 339.248 476.994 360.705 471.171 382.202 464.913 402.727 456.51 411.918 452.749 420.146 449.778 430.08 450.398 437.863 450.884 445.751 449.68 454.481 449.176 451.995 453.747 450.34 457.578 448.009 460.94 439.542 473.148 437.365 486.638 438.077 501.226 439.034 520.795 452.192 534.257 471.791 534.39 484.945 534.479 498.102 534.592 511.25 534.3 515.371 534.209 517.401 535.519 519.018 539.277 527.608 559.25 542.449 572.116 563.794 576.786 579.391 580.198 594.979 579.043 610.119 574.196 616.974 572.001 623.297 570.293 629.783 574.935 631.164 575.923 633.26 576.277 635.032 576.293 648.144 576.408 661.292 576.918 674.353 576.097 679.53 575.771 684.526 570.793 689.585 570.824 694.83 570.857 699.956 575.754 705.302 576.126 718.029 577.011 730.967 577.559 743.614 576.247 759.092 574.642 770.624 562.017 770.715 546.5 770.764 538.035 774.256 534.025 780.774 530.54 783.368 529.153 785.22 529.123 788.045 529.979 794.467 531.924 801.108 533.842 807.748 534.22 819.532 534.89 831.382 534.457 843.202 534.397 863.695 534.294 877.215 520.776 877.325 500.286 877.384 489.475 877.336 478.664 877.336 467.302 887.584 470.75 897.459 474.088 907.345 477.393 923.221 482.699 935.406 479.446 946.264 466.757 959.9 450.824 973.455 434.822 986.915 418.741 989.128 416.098 991.144 413.093 992.452 409.925 1000.57 390.285 1008.53 370.584 1016.37 350.833 1019.58 342.747 1019.58 334.31 1015.75 326.581 1013.09 321.232 1011.96 316.037 1011.5 310.122 1009.26 281.096 1006.52 252.107 1003.84 223.117 1002.32 206.654 993.47 195.803 978.275 191.843 941.787 182.335 905.251 173.01 868.769 163.478 855.041 159.891 843.535 163.262 833.878 173.532 823.5 184.569 813.164 195.647 802.611 206.514 798.734 210.506 794.289 213.945 790.228 217.526 790.228 216.741 790.235 215.154 790.227 213.568 790.177 203.248 790.298 192.922 790.033 182.607 789.567 164.489 776.632 150.741 758.909 149.813 718.18 147.681 677.383 146.519 636.728 143.46 616.78 141.959 601.98 147.592 590.175 163.766 582.47 174.325 573.043 183.628 564.184 193.726 558.153 186.08 552.409 178.786 546.656 171.501 539.459 162.389 530.13 157.931 518.443 158.353 494.653 159.214 470.859 159.963 447.067 160.791 435.9 161.18 426.872 165.729 420.203 174.793 417.953 177.851 415.645 180.865 413.273 184.019 410.926 182.766 408.803 181.814 406.868 180.57 396.014 173.594 384.628 172.689 372.501 176.859 364.657 179.556 356.606 181.655 347.906 184.337Z" fill="#FEFBFA" fill-rule="evenodd"/><path d="M348.063 183.997C356.399 181.47 364.456 179.369 372.306 176.669 384.443 172.495 395.837 173.401 406.699 180.384 408.636 181.629 410.76 182.583 413.109 183.837 415.483 180.68 417.792 177.662 420.044 174.6 426.718 165.526 435.753 160.973 446.929 160.584 470.739 159.755 494.551 159.004 518.359 158.143 530.054 157.72 539.39 162.183 546.592 171.305 552.35 178.598 558.099 185.9 564.134 193.555 573 183.446 582.434 174.132 590.145 163.562 601.958 147.369 616.769 141.731 636.733 143.233 677.419 146.296 718.247 147.458 759.006 149.593 776.742 150.522 789.688 164.286 790.154 182.424 790.418 192.75 790.297 203.087 790.347 213.419 790.355 215.007 790.348 216.595 790.348 217.381 794.413 213.796 798.861 210.353 802.741 206.357 813.302 195.478 823.646 184.388 834.032 173.339 843.696 163.057 855.21 159.682 868.95 163.273 905.459 172.816 942.022 182.151 978.538 191.67 993.744 195.634 1002.6 206.497 1004.13 222.978 1006.81 252 1009.54 281.021 1011.79 310.079 1012.25 316.001 1013.38 321.201 1016.04 326.556 1019.88 334.294 1019.88 342.74 1016.66 350.835 1008.82 370.608 1000.84 390.331 992.725 409.993 991.416 413.164 989.398 416.173 987.185 418.819 973.714 434.916 960.149 450.936 946.503 466.887 935.636 479.59 923.442 482.847 907.554 477.535 897.661 474.226 887.778 470.884 877.522 467.433 877.522 478.807 877.57 489.63 877.511 500.453 877.401 520.966 863.871 534.499 843.363 534.602 831.533 534.662 819.675 535.096 807.882 534.425 801.237 534.047 794.591 532.126 788.164 530.179 785.337 529.322 783.483 529.352 780.888 530.741 774.364 534.23 770.87 538.244 770.821 546.718 770.73 562.253 759.189 574.892 743.699 576.499 731.043 577.812 718.096 577.263 705.358 576.377 700.009 576.005 694.878 571.103 689.63 571.07 684.567 571.038 679.568 576.022 674.386 576.348 661.316 577.17 648.157 576.66 635.036 576.545 633.262 576.529 631.165 576.174 629.783 575.185 623.292 570.538 616.964 572.248 610.104 574.445 594.952 579.297 579.352 580.453 563.744 577.038 542.383 572.363 527.531 559.483 518.934 539.488 517.316 535.725 515.284 534.414 511.16 534.505 498.002 534.797 484.835 534.684 471.672 534.595 452.057 534.462 438.89 520.985 437.932 501.394 437.219 486.79 439.398 473.285 447.872 461.063 450.204 457.698 451.86 453.863 454.348 449.286 445.612 449.791 437.718 450.996 429.929 450.51 419.987 449.889 411.753 452.863 402.555 456.629 382.015 465.041 360.502 471.306 339.028 477.135 320.826 482.077 303.364 469.993 299.661 451.102 287.564 389.393 275.604 327.656 263.694 265.909 261.774 255.952 263.81 246.73 270.157 238.6 278.561 227.835 286.904 217.022 295.28 206.235 299.706 200.534 305.389 196.626 312.294 194.569 324.081 191.058 335.892 187.623 348.063 183.997M426.468 243.924C425.931 245.406 425.395 246.887 424.858 248.368 425.252 247.766 425.647 247.163 426.042 246.561 417.143 238.617 408.205 230.716 399.359 222.712 395.229 218.976 390.828 215.406 387.369 211.102 383.625 206.443 379.902 205.957 374.503 207.821 358.833 213.232 342.984 218.127 327.225 223.283 324.448 224.192 320.905 224.624 319.185 226.573 311.465 235.323 304.172 244.461 296.996 253.67 295.769 255.244 295.152 257.961 295.468 259.958 296.871 268.802 298.669 277.586 300.412 286.373 303.248 300.668 306.113 314.958 309.041 329.234 312.848 347.794 316.793 366.325 320.56 384.893 324.05 402.095 327.384 419.33 330.96 437.431 341.005 434.162 350.386 431.013 359.832 428.073 365.481 426.315 371.256 424.965 376.931 423.279 380.43 422.239 381.542 419.986 381.148 416.123 379.68 401.728 378.607 387.292 377.429 372.868 376.449 360.89 375.586 348.902 374.566 336.928 373.544 324.921 372.391 312.926 371.275 300.704 379.418 298.259 387.288 295.896 395.269 293.499 405.277 332.495 415.266 371.417 425.408 410.937 438.984 407.532 452.565 404.127 466.503 400.631 466.325 398.327 466.205 396.023 465.956 393.734 465.615 390.616 464.76 387.493 464.865 384.398 465.105 377.345 466.063 370.314 466.246 363.262 466.535 352.098 466.417 340.925 466.507 329.755 466.514 328.778 466.829 327.806 466.928 326.825 467.157 324.562 467.523 322.294 467.514 320.029 467.471 309.917 467.252 299.806 467.235 289.694 467.229 285.927 469.436 283.586 473.12 283.438 479.29 283.188 485.475 283.37 492.148 283.37 495.026 320.012 497.932 357.027 500.877 394.523 519.166 392.768 537.69 390.99 556.274 389.206 556.274 388.439 556.384 387.274 556.257 386.135 554.398 369.513 552.453 352.9 550.638 336.273 548.675 318.301 546.741 300.325 544.998 282.33 544.635 278.583 545.578 274.708 545.21 270.961 544.075 259.409 542.689 247.879 541.211 236.364 540.477 230.641 540.862 224.027 538.053 219.474 532.067 209.768 524.394 201.091 517.225 192.143 516.284 190.97 514.251 190.12 512.702 190.085 506.752 189.95 500.79 190.122 494.839 190.337 479.544 190.889 464.255 191.659 448.956 192.027 445.486 192.11 444.15 193.339 443.082 196.471 437.755 212.093 432.169 227.627 426.468 243.924M609.408 330.572C604.303 330.212 599.2 329.805 594.09 329.508 590.843 329.319 587.58 329.366 584.331 329.174 578.995 328.86 578.888 332.075 579.517 335.983 580.464 341.871 581.347 347.769 582.188 353.673 583.624 363.747 585.006 373.829 586.388 383.746 602.677 384.293 618.502 385.034 634.335 385.297 651.023 385.573 667.718 385.402 684.41 385.4 686.716 385.4 689.026 385.108 691.325 385.199 704.093 385.71 716.862 386.239 729.623 386.898 732.774 387.061 734.281 385.992 735.181 382.848 738.657 370.698 742.438 358.637 746.088 346.537 750.731 331.144 755.357 315.746 760.079 300.053 722.74 281.486 685.765 263.1 648.439 244.542 650.194 241.759 651.837 238.926 653.704 236.248 655.824 233.207 657.67 228.607 660.51 227.815 663.401 227.008 667.336 230.059 670.846 231.331 689.828 238.207 708.819 245.054 727.806 251.911 733.856 246.385 739.87 241.019 745.727 235.488 748.899 232.493 753.744 230.007 750.185 224.207 749.847 223.655 750.435 222.592 750.435 221.766 750.456 208.424 750.449 195.083 750.449 181.429 742.952 181.429 735.806 181.697 728.687 181.381 700.613 180.136 672.545 178.757 644.482 177.295 639.749 177.049 635.06 176.068 630.336 175.569 626.105 175.122 622.477 175.564 619.29 179.397 611.953 188.221 603.938 196.478 596.461 205.19 594.909 206.998 593.871 209.729 593.663 212.127 592.814 221.903 592.475 231.723 591.77 241.514 590.862 254.092 589.646 266.65 588.944 279.239 588.851 280.89 590.65 283.666 592.184 284.217 599.667 286.902 607.356 289.019 614.978 291.315 624.157 294.079 633.389 296.678 642.516 299.606 654.489 303.447 666.402 307.478 678.275 311.616 679.46 312.03 681.131 313.897 680.981 314.834 680.014 320.888 678.744 326.907 677.216 332.845 676.921 333.994 675.034 335.547 673.909 335.525 669.324 335.432 664.757 334.694 660.171 334.386 648.888 333.629 637.594 333.047 626.315 332.252 620.97 331.876 615.648 331.175 609.408 330.572M852.057 198.72C851.602 199.389 851.244 200.157 850.677 200.711 844.254 206.989 837.563 213.013 831.407 219.541 822.079 229.431 813.281 239.822 803.95 249.708 795.304 258.866 786.177 267.569 777.461 276.663 776.184 277.995 775.263 280.457 775.447 282.267 776.355 291.214 777.664 300.121 778.881 309.035 780.353 319.818 781.968 330.583 783.348 341.378 784.693 351.9 785.7 362.466 787.083 372.983 788.158 381.161 789.581 389.292 790.995 398.373 801.002 400.628 811.558 403.057 822.138 405.374 829.706 407.031 837.329 408.439 844.884 410.15 849.464 411.188 853.626 411.807 856.399 406.696 857.236 405.153 858.925 404.079 860.202 402.769 868.885 393.858 877.562 384.942 886.211 376.059 872.438 370.174 858.522 364.228 844.434 358.209 843.437 341.709 842.392 324.895 841.418 308.077 841.074 302.131 840.754 296.436 845.774 291.55 855.647 281.944 865.225 272.013 874.501 261.83 877.221 258.845 879.639 258.16 883.099 259.272 894.599 262.963 906.106 266.634 917.59 270.377 918.223 270.584 918.943 271.269 919.159 271.892 921.004 277.2 923.018 282.473 924.432 287.899 925.892 293.499 930.195 298.505 935.103 299.512 942.357 300.999 949.579 302.65 956.842 304.091 959.289 304.577 961.841 304.513 964.307 304.924 966.918 305.358 969.484 306.058 972.767 306.8 972.438 304.121 972.279 302.673 972.08 301.23 970.986 293.295 969.603 285.387 968.866 277.419 968.238 270.619 968.686 263.72 968.054 256.922 967.093 246.579 965.722 236.269 964.216 225.99 964.008 224.56 962.27 222.675 960.848 222.216 953.879 219.967 946.819 217.961 939.713 216.184 926.447 212.866 913.058 210.023 899.849 206.502 886.753 203.012 873.761 199.098 860.839 195.005 856.805 193.728 854.157 194.167 852.057 198.72M898.921 359.353C902.381 361.878 905.762 364.523 909.329 366.886 911.735 368.48 911.779 370.16 910.858 372.681 906.848 383.662 902.972 394.693 899.185 405.753 896.15 414.615 893.313 423.544 890.266 432.817 897.216 434.945 903.825 436.567 910.108 439.023 914.782 440.85 917.558 439.536 920.075 435.697 921.99 432.775 924.163 430.004 926.392 427.309 932.737 419.635 939.245 412.093 945.543 404.38 949.49 399.545 954.278 394.989 956.76 389.444 962.987 375.534 968.176 361.156 973.642 346.912 974.896 343.647 975.593 340.167 976.659 336.386 950.109 326.061 923.928 315.88 898.142 305.853 890.821 319.554 884.018 332.285 877.076 345.277 884.36 349.958 891.343 354.445 898.921 359.353M559.364 548.133C577.338 553.733 594.461 550.314 611.731 543.37 609.386 530.67 607.082 518.187 604.774 505.688 597.551 507.231 590.902 508.601 584.278 510.086 580.105 511.022 577.352 510.08 577.276 505.245 577.15 497.117 576.53 488.949 577.121 480.871 577.68 473.232 578.822 472.821 586.41 474.903 592.405 476.548 598.318 478.498 604.509 480.387 605.939 472.61 607.282 465.294 608.627 457.978 608.952 458.029 609.277 458.08 609.603 458.131 609.38 463.205 609.158 468.279 608.913 473.871 615.749 473.871 622.169 473.871 629.116 473.871 629.116 499.258 629.116 524.137 629.116 549.181 643.901 549.181 658.139 549.181 672.942 549.181 672.942 524.057 672.942 499.159 672.942 473.683 679.23 473.683 684.967 473.683 690.996 473.683 691.882 459.942 692.732 446.769 693.584 433.561 665.762 433.561 638.676 433.561 611.555 433.561 611.334 435.573 611.14 437.335 611.011 438.51 602.197 436.267 593.702 432.979 584.964 432.096 559.856 429.561 542.016 439.739 535.335 464.941 530.419 483.486 530.587 502.231 535.65 520.705 539.045 533.099 546.073 542.945 559.364 548.133M764.339 506.712C764.339 496.072 764.339 485.432 764.339 474.373 769.103 475.286 769.255 472.355 769.346 469.116 769.457 465.126 769.863 461.144 770.101 457.156 770.571 449.272 771.014 441.387 771.463 433.6 747.005 433.6 723.268 433.6 699.473 433.6 699.473 472.27 699.473 510.645 699.473 549.181 713.982 549.181 728.217 549.181 742.977 549.181 742.977 536.232 742.977 523.502 742.977 510.373 749.291 510.373 755.093 510.522 760.876 510.25 762.068 510.194 763.185 508.568 764.339 506.712M474.02 498.556C484.919 498.556 495.818 498.556 506.705 498.556 506.705 493.39 506.705 488.978 506.705 484.516 493.308 484.516 480.237 484.516 466.952 484.516 466.952 489.226 466.952 493.637 466.952 498.556 469.148 498.556 471.099 498.556 474.02 498.556M801.079 485.997C801.079 490.083 801.079 494.168 801.079 498.244 814.762 498.244 827.811 498.244 840.987 498.244 840.987 493.533 840.987 489.126 840.987 484.229 829.64 484.229 818.541 484.189 807.442 484.264 805.365 484.278 803.29 484.752 801.079 485.997Z" fill="#F31808" fill-rule="evenodd"/><path d="M426.219 243.435C431.818 227.53 437.406 212.021 442.735 196.424 443.803 193.297 445.139 192.07 448.609 191.987 463.912 191.619 479.206 190.85 494.505 190.299 500.457 190.085 506.421 189.913 512.373 190.048 513.922 190.083 515.955 190.931 516.897 192.102 524.068 201.036 531.743 209.699 537.73 219.39 540.54 223.935 540.155 230.539 540.889 236.253 542.367 247.749 543.753 259.262 544.889 270.795 545.257 274.536 544.314 278.405 544.677 282.146 546.421 300.112 548.355 318.06 550.318 336.003 552.134 352.603 554.08 369.19 555.939 385.785 556.066 386.922 555.956 388.085 555.956 388.851 537.367 390.632 518.838 392.408 500.544 394.16 497.599 356.724 494.692 319.768 491.813 283.185 485.138 283.185 478.952 283.003 472.781 283.252 469.095 283.4 466.888 285.737 466.894 289.498 466.911 299.594 467.13 309.689 467.173 319.785 467.182 322.046 466.816 324.311 466.587 326.57 466.488 327.549 466.173 328.52 466.166 329.495 466.076 340.647 466.194 351.803 465.905 362.949 465.722 369.989 464.764 377.009 464.522 384.051 464.417 387.141 465.274 390.259 465.615 393.372 465.864 395.657 465.984 397.958 466.162 400.258 452.22 403.748 438.635 407.148 425.056 410.547 414.911 371.091 404.919 332.231 394.909 293.297 386.926 295.69 379.054 298.05 370.909 300.491 372.025 312.693 373.178 324.669 374.2 336.657 375.22 348.612 376.084 360.581 377.064 372.539 378.243 386.94 379.316 401.353 380.784 415.725 381.178 419.582 380.066 421.831 376.566 422.87 370.89 424.554 365.113 425.902 359.462 427.657 350.014 430.592 340.631 433.736 330.583 437 327.006 418.927 323.671 401.72 320.18 384.545 316.412 366.007 312.466 347.505 308.658 328.975 305.729 314.722 302.864 300.455 300.027 286.183 298.283 277.41 296.485 268.64 295.082 259.81 294.766 257.816 295.383 255.104 296.61 253.531 303.788 244.337 311.083 235.213 318.805 226.477 320.525 224.532 324.07 224.1 326.847 223.193 342.61 218.045 358.463 213.158 374.137 207.755 379.538 205.894 383.262 206.38 387.007 211.031 390.467 215.328 394.869 218.892 399 222.623 407.848 230.614 416.788 238.502 425.69 246.433 425.295 247.034 424.9 247.636 424.505 248.237 425.042 246.759 425.579 245.28 426.219 243.435Z" fill="#FFFEFE" fill-rule="evenodd"/><path d="M609.638 330.547C615.43 331.126 620.757 331.829 626.107 332.206 637.397 333.003 648.702 333.586 659.995 334.345 664.586 334.654 669.157 335.393 673.747 335.487 674.873 335.509 676.761 333.952 677.057 332.8 678.586 326.848 679.858 320.814 680.826 314.745 680.976 313.806 679.304 311.935 678.117 311.52 666.233 307.372 654.308 303.331 642.324 299.481 633.188 296.546 623.947 293.94 614.759 291.17 607.129 288.868 599.434 286.746 591.944 284.054 590.407 283.502 588.607 280.719 588.7 279.064 589.402 266.445 590.619 253.855 591.528 241.247 592.235 231.432 592.574 221.588 593.424 211.789 593.632 209.385 594.671 206.647 596.224 204.835 603.708 196.102 611.731 187.825 619.075 178.98 622.265 175.138 625.897 174.694 630.131 175.142 634.86 175.642 639.554 176.625 644.291 176.873 672.382 178.338 700.476 179.72 728.578 180.969 735.704 181.285 742.857 181.016 750.361 181.016 750.361 194.703 750.367 208.077 750.347 221.451 750.346 222.279 749.758 223.345 750.096 223.898 753.659 229.712 748.809 232.204 745.634 235.206 739.771 240.751 733.751 246.13 727.696 251.669 708.69 244.795 689.681 237.932 670.681 231.039 667.167 229.764 663.229 226.706 660.335 227.515 657.492 228.309 655.645 232.92 653.522 235.968 651.654 238.653 650.009 241.492 648.253 244.282 685.614 262.886 722.625 281.317 760 299.929 755.273 315.66 750.643 331.095 745.995 346.525 742.342 358.655 738.557 370.745 735.078 382.924 734.177 386.076 732.668 387.147 729.515 386.984 716.741 386.323 703.96 385.793 691.18 385.281 688.879 385.19 686.566 385.482 684.258 385.482 667.55 385.484 650.839 385.656 634.135 385.379 618.286 385.116 602.446 384.373 586.142 383.824 584.759 373.883 583.374 363.777 581.937 353.679 581.096 347.76 580.212 341.848 579.264 335.946 578.634 332.028 578.742 328.805 584.083 329.12 587.335 329.313 590.6 329.266 593.851 329.455 598.965 329.753 604.074 330.161 609.638 330.547Z" fill="#FFFEFE" fill-rule="evenodd"/><path d="M852.647 198.024C854.596 193.793 857.239 193.353 861.266 194.633 874.166 198.736 887.136 202.659 900.208 206.157 913.395 209.686 926.76 212.536 940.003 215.862 947.096 217.643 954.144 219.654 961.101 221.908 962.521 222.368 964.255 224.258 964.464 225.691 965.967 235.994 967.336 246.329 968.295 256.696 968.926 263.511 968.478 270.427 969.105 277.243 969.841 285.229 971.221 293.156 972.313 301.11 972.512 302.556 972.672 304.008 973 306.693 969.722 305.949 967.161 305.248 964.555 304.813 962.092 304.401 959.545 304.465 957.103 303.978 949.852 302.533 942.643 300.878 935.401 299.388 930.502 298.378 926.207 293.361 924.749 287.747 923.337 282.309 921.327 277.023 919.485 271.703 919.27 271.078 918.551 270.392 917.919 270.184 906.455 266.432 894.968 262.753 883.487 259.052 880.034 257.938 877.619 258.625 874.904 261.617 865.645 271.824 856.084 281.778 846.228 291.407 841.217 296.305 841.536 302.013 841.879 307.973 842.851 324.831 843.894 341.685 844.89 358.224 858.953 364.257 872.845 370.217 886.595 376.116 877.961 385.02 869.299 393.957 860.63 402.889 859.356 404.202 857.67 405.278 856.834 406.825 854.066 411.948 849.911 411.328 845.339 410.287 837.797 408.572 830.188 407.161 822.633 405.5 812.071 403.178 801.534 400.743 791.544 398.482 790.133 389.38 788.712 381.23 787.639 373.032 786.258 362.491 785.253 351.9 783.911 341.353 782.532 330.532 780.92 319.742 779.451 308.933 778.236 299.998 776.93 291.07 776.023 282.102 775.84 280.288 776.759 277.82 778.034 276.485 786.734 267.369 795.845 258.646 804.476 249.465 813.792 239.556 822.574 229.14 831.886 219.227 838.031 212.683 844.71 206.645 851.122 200.352 851.688 199.797 852.045 199.027 852.647 198.024Z" fill="#FFFEFE" fill-rule="evenodd"/><path d="M898.637 359.296C891.326 354.598 884.314 350.11 877 345.429 883.97 332.435 890.802 319.703 898.154 306 924.048 316.028 950.339 326.21 977 336.537 975.93 340.318 975.23 343.799 973.971 347.064 968.482 361.31 963.271 375.689 957.018 389.601 954.525 395.147 949.718 399.703 945.754 404.539 939.429 412.253 932.894 419.796 926.523 427.471 924.284 430.167 922.102 432.938 920.179 435.861 917.652 439.7 914.863 441.014 910.17 439.187 903.861 436.731 897.224 435.109 890.245 432.98 893.305 423.705 896.154 414.775 899.201 405.912 903.004 394.851 906.896 383.818 910.923 372.836 911.848 370.315 911.804 368.635 909.388 367.04 905.806 364.677 902.411 362.032 898.637 359.296Z" fill="#FFFDFD" fill-rule="evenodd"/><path d="M559.297 548.074C546.34 543.071 539.304 533.239 535.905 520.862 530.838 502.414 530.67 483.695 535.59 465.176 542.278 440.009 560.136 429.845 585.27 432.376 594.017 433.258 602.521 436.541 611.344 438.781 611.473 437.608 611.667 435.848 611.888 433.839 639.036 433.839 666.15 433.839 694 433.839 693.147 447.029 692.297 460.184 691.41 473.905 685.374 473.905 679.632 473.905 673.338 473.905 673.338 499.346 673.338 524.209 673.338 549.298 658.519 549.298 644.267 549.298 629.467 549.298 629.467 524.289 629.467 499.445 629.467 474.093 622.512 474.093 616.087 474.093 609.244 474.093 609.489 468.509 609.711 463.442 609.934 458.375 609.608 458.324 609.283 458.273 608.957 458.222 607.611 465.528 606.266 472.834 604.835 480.6 598.637 478.714 592.719 476.766 586.718 475.124 579.122 473.045 577.979 473.455 577.419 481.083 576.828 489.15 577.448 497.307 577.574 505.423 577.65 510.252 580.406 511.192 584.584 510.258 591.214 508.775 597.869 507.407 605.1 505.866 607.41 518.347 609.717 530.813 612.064 543.495 594.777 550.43 577.636 553.844 559.297 548.074M571.238 471.949C574.616 466.568 577.629 465.037 583.719 466.207 588.583 467.143 593.367 468.496 598.479 469.734 599.92 461.483 601.337 453.375 602.757 445.248 593.496 441.056 584.304 439.55 574.637 440.327 559.317 441.559 549.119 449.376 544.582 463.926 538.636 482.996 538.763 502.229 544.73 521.29 547.425 529.9 552.699 536.745 561.41 540.001 575.384 545.225 589.086 542.819 602.809 538.186 601.327 530.39 599.939 523.092 598.543 515.748 595.526 516.412 592.945 517.07 590.329 517.531 587.709 517.991 585.064 518.437 582.415 518.567 575.419 518.91 571.393 516.321 570.093 509.652 567.687 497.316 567.397 484.912 571.238 471.949M640.545 541.371C648.504 541.371 656.461 541.371 665.09 541.371 665.09 515.945 665.09 490.974 665.09 465.594 671.69 465.594 677.615 465.594 683.722 465.594 684.231 457.481 684.714 449.783 685.21 441.872 663.034 441.872 641.425 441.872 619.427 441.872 618.884 449.761 618.353 457.491 617.78 465.824 624.473 465.824 630.869 465.824 637.653 465.824 637.653 468.197 637.653 469.993 637.653 471.787 637.653 493.398 637.613 515.009 637.737 536.619 637.746 538.203 638.949 539.779 640.545 541.371Z" fill="#FFF9F9" fill-rule="evenodd"/><path d="M764.874 507.219C763.721 508.591 762.604 510.209 761.412 510.265 755.628 510.535 749.825 510.387 743.511 510.387 743.511 523.45 743.511 536.116 743.511 549 728.748 549 714.511 549 700 549 700 510.658 700 472.476 700 434 723.798 434 747.539 434 772 434 771.551 441.748 771.108 449.593 770.638 457.438 770.4 461.406 769.994 465.368 769.883 469.338 769.792 472.56 769.64 475.476 764.875 474.568 764.875 485.572 764.875 496.158 764.874 507.219M707.867 496.028C707.867 510.9 707.867 525.771 707.867 540.874 717.116 540.874 725.86 540.874 735.206 540.874 735.206 528.003 735.206 515.339 735.206 502.102 742.698 502.102 749.594 502.102 756.348 502.102 756.348 494.81 756.348 488.116 756.348 480.953 749.196 480.953 742.423 480.953 735.447 480.953 735.447 475.911 735.447 471.356 735.447 466.267 744.254 466.267 752.837 466.267 761.761 466.267 762.296 457.912 762.798 450.069 763.309 442.079 744.571 442.079 726.35 442.079 707.867 442.079 707.867 459.934 707.867 477.483 707.867 496.028Z" fill="#FFFAF9" fill-rule="evenodd"/><path d="M473.624 499C471.172 499 469.209 499 467 499 467 494.095 467 489.697 467 485 480.367 485 493.519 485 507 485 507 489.449 507 493.849 507 499 496.045 499 485.078 499 473.624 499M493.058 489.971C486.258 489.971 479.456 489.971 472.655 489.971 472.426 490.539 472.195 491.107 471.966 491.674 473.092 492.362 474.206 493.62 475.346 493.646 483.187 493.821 491.036 493.828 498.876 493.627 499.904 493.601 500.893 492.091 501.901 491.267 501.601 490.835 501.303 490.404 501.003 489.971 498.681 489.971 496.358 489.971 493.058 489.971Z" fill="#FFF9F9" fill-rule="evenodd"/><path d="M801.068 485.284C803.216 484.533 805.295 484.06 807.378 484.046 818.502 483.971 829.627 484.011 841 484.011 841 488.899 841 493.298 841 498 827.793 498 814.715 498 801 498 801 493.931 801 489.854 801.068 485.284M823.833 489.26C818.844 489.262 813.853 489.189 808.868 489.34 808.017 489.366 807.196 490.348 806.361 490.888 807.196 491.61 808.02 492.941 808.87 492.957 817.016 493.115 825.168 493.13 833.311 492.938 834.215 492.916 835.083 491.353 835.967 490.505 835.714 490.09 835.459 489.675 835.206 489.26 831.746 489.26 828.286 489.26 823.833 489.26Z" fill="#FFFDFD" fill-rule="evenodd"/><path d="M571.057 472.222C567.374 484.859 567.665 497.284 570.086 509.642 571.394 516.322 575.445 518.915 582.482 518.572 585.148 518.442 587.809 517.995 590.444 517.533 593.077 517.072 595.674 516.413 598.708 515.748 600.113 523.104 601.509 530.415 603 538.224 589.194 542.866 575.41 545.276 561.351 540.043 552.587 536.781 547.281 529.924 544.57 521.3 538.566 502.205 538.438 482.939 544.421 463.837 548.985 449.261 559.245 441.43 574.657 440.197 584.384 439.418 593.63 440.927 602.948 445.126 601.519 453.267 600.094 461.389 598.644 469.654 593.501 468.414 588.688 467.059 583.794 466.121 577.668 464.949 574.636 466.483 571.057 472.222Z" fill="#F31808" fill-rule="evenodd"/><path d="M640.149 540.994C639.034 539.416 637.839 537.847 637.83 536.271 637.706 514.77 637.746 493.268 637.746 471.765 637.746 469.98 637.746 468.193 637.746 465.831 631.005 465.831 624.65 465.831 618 465.831 618.569 457.541 619.097 449.849 619.636 442 641.494 442 662.965 442 685 442 684.507 449.871 684.027 457.531 683.521 465.603 677.454 465.603 671.566 465.603 665.008 465.603 665.008 490.856 665.008 515.701 665.008 541 656.434 541 648.527 541 640.149 540.994Z" fill="#F31707" fill-rule="evenodd"/><path d="M707 495.562C707 477.478 707 459.892 707 442 725.669 442 744.073 442 763 442 762.484 450.006 761.977 457.866 761.436 466.238 752.422 466.238 743.753 466.238 734.857 466.238 734.857 471.338 734.857 475.902 734.857 480.954 741.903 480.954 748.745 480.954 755.969 480.954 755.969 488.132 755.969 494.84 755.969 502.147 749.147 502.147 742.181 502.147 734.615 502.147 734.615 515.412 734.615 528.102 734.615 541 725.174 541 716.342 541 707 541 707 525.866 707 510.963 707 495.562Z" fill="#F31909" fill-rule="evenodd"/><path d="M493.627 490C496.445 490 498.773 490 501.1 490 501.4 490.341 501.7 490.681 502 491.022 500.99 491.671 499.999 492.861 498.968 492.882 491.112 493.04 483.245 493.034 475.388 492.897 474.244 492.876 473.128 491.884 472 491.342 472.23 490.895 472.461 490.448 472.691 490 479.507 490 486.323 490 493.627 490Z" fill="#F43527" fill-rule="evenodd"/><path d="M824.601 490.012C828.477 490.012 831.865 490.012 835.254 490.012 835.502 490.337 835.752 490.661 836 490.986 835.134 491.65 834.284 492.873 833.399 492.89 825.422 493.04 817.437 493.028 809.458 492.905 808.626 492.892 807.819 491.851 807 491.286 807.818 490.864 808.623 490.095 809.456 490.075 814.339 489.957 819.227 490.014 824.601 490.012Z" fill="#F53527" fill-rule="evenodd"/></g></svg>