<svg width="392" height="393" viewBox="0 0 392 393" fill="none" xmlns="http://www.w3.org/2000/svg">
<path fill-rule="evenodd" clip-rule="evenodd" d="M279.458 373.793C205.527 405.537 135.754 398.492 73.204 348.483C16.242 302.942 -8.00099 241.48 2.31601 169.145C13.01 94.165 55.544 41.707 125.694 13.598C210.97 -20.571 309.355 11.605 359.502 88.231C425.108 188.479 387.862 321.821 279.458 373.793ZM129.012 111.839C104.773 133.485 92.447 160.456 92.981 193.061C93.953 252.453 147.349 299.844 206.355 292.986C245.898 288.391 274.802 267.496 290.559 230.974C306.25 194.607 301.209 159.672 277.866 127.633C269.624 116.32 259.061 107.432 246.868 100.56C242.164 97.909 237.095 99.235 234.706 103.458C232.421 107.496 233.76 112.173 238.073 115.125C239.033 115.782 240.058 116.344 241.048 116.957C272.775 136.586 288.235 173.723 279.854 210.168C269.516 255.12 223.498 284.465 178.646 274.708C132.07 264.577 102.067 219.69 111.499 173.948C116.678 148.829 130.29 129.504 152.291 116.179C158.122 112.648 159.871 108.039 157.247 103.406C154.528 98.604 149.42 97.791 143.417 101.619C138.657 104.654 134.168 108.113 129.012 111.839ZM187.39 174.665C187.39 174.832 187.39 174.998 187.39 175.165C187.423 184.174 190.128 188.315 195.982 188.318C201.844 188.321 204.583 184.153 204.584 175.169C204.589 144.715 204.588 114.26 204.58 83.805C204.579 82.143 204.622 80.464 204.412 78.821C203.813 74.121 200.58 71.084 196.217 70.966C191.673 70.843 188.146 73.988 187.551 78.86C187.331 80.667 187.396 82.514 187.396 84.343C187.388 114.132 187.39 143.922 187.39 174.665Z" fill="#E2334F"/>
<path fill-rule="evenodd" clip-rule="evenodd" d="M129.384 111.391C134.275 107.9 138.773 104.45 143.541 101.422C149.554 97.603 154.671 98.413 157.396 103.205C160.024 107.826 158.271 112.425 152.431 115.948C130.391 129.241 116.755 148.521 111.567 173.581C102.118 219.216 132.174 263.997 178.832 274.105C223.762 283.839 269.862 254.563 280.218 209.716C288.613 173.357 273.126 136.307 241.343 116.723C240.351 116.112 239.324 115.552 238.363 114.896C234.042 111.951 232.701 107.285 234.99 103.256C237.383 99.044 242.461 97.72 247.174 100.365C259.388 107.221 269.97 116.088 278.226 127.375C301.61 159.338 306.66 194.191 290.941 230.473C275.157 266.91 246.202 287.756 206.59 292.34C147.48 299.182 93.99 251.902 93.017 192.65C92.481 160.121 104.829 133.213 129.384 111.391Z" fill="#030101"/>
<path fill-rule="evenodd" clip-rule="evenodd" d="M187.003 173.913C187.003 143.739 187.001 114.039 187.01 84.3409C187.01 82.5169 186.941 80.6759 187.172 78.8739C187.794 74.0169 191.485 70.8809 196.241 71.0029C200.806 71.1209 204.19 74.1489 204.817 78.8349C205.037 80.4729 204.992 82.1459 204.993 83.8039C205.001 114.167 205.002 144.529 204.997 174.891C204.996 183.848 202.13 188.003 195.995 188C189.868 187.997 187.038 183.869 187.003 174.887C187.003 174.721 187.003 174.555 187.003 173.913Z" fill="#0B0204"/>
</svg>
