<svg width="96" height="45" viewBox="0 0 96 45" fill="none" xmlns="http://www.w3.org/2000/svg">
<g filter="url(#filter0_d_604_19596)">
<mask id="path-1-inside-1_604_19596" fill="white">
<path d="M4 10C4 4.47715 8.47715 0 14 0H82C87.5228 0 92 4.47715 92 10V27C92 32.5228 87.5228 37 82 37H14C8.47715 37 4 32.5228 4 27V10Z"/>
</mask>
<path d="M4 10C4 2.8203 9.8203 -3 17 -3H79C86.1797 -3 92 2.8203 92 10C92 6.13401 87.5228 3 82 3H14C8.47715 3 4 6.13401 4 10ZM92 27C92 34.1797 86.1797 40 79 40H17C9.8203 40 4 34.1797 4 27C4 30.866 8.47715 34 14 34H82C87.5228 34 92 30.866 92 27ZM4 37V0V37ZM92 0V37V0Z" fill="#840B0B" mask="url(#path-1-inside-1_604_19596)"/>
<path d="M4 10C4 2.8203 9.8203 -3 17 -3H79C86.1797 -3 92 2.8203 92 10C92 6.13401 87.5228 3 82 3H14C8.47715 3 4 6.13401 4 10ZM92 27C92 34.1797 86.1797 40 79 40H17C9.8203 40 4 34.1797 4 27C4 30.866 8.47715 34 14 34H82C87.5228 34 92 30.866 92 27ZM4 37V0V37ZM92 0V37V0Z" fill="url(#paint0_linear_604_19596)" mask="url(#path-1-inside-1_604_19596)"/>
<path d="M17.0229 12.418C16.8498 12.8138 16.6951 13.1602 16.5591 13.457C16.423 13.7539 16.3055 14.0075 16.2065 14.2178C16.0952 14.4528 16.0024 14.6631 15.9282 14.8486C15.8664 14.9847 15.786 15.1702 15.687 15.4053C15.5881 15.6156 15.4644 15.8939 15.3159 16.2402C15.1799 16.5742 15.0005 17.0072 14.7778 17.5391C14.6665 17.0814 14.5304 16.6794 14.3696 16.333C14.2088 15.9867 14.0356 15.6836 13.8501 15.4238C13.6646 15.1641 13.4666 14.9538 13.2563 14.793C13.0584 14.6198 12.8605 14.4775 12.6626 14.3662C12.2049 14.1188 11.7225 13.9827 11.2153 13.958C10.5474 13.9951 10.0216 14.1064 9.63818 14.292C9.26709 14.4652 8.99495 14.6693 8.82178 14.9043C8.6486 15.127 8.55583 15.362 8.54346 15.6094C8.53109 15.8444 8.56201 16.0423 8.63623 16.2031C8.69808 16.3516 8.91455 16.5247 9.28564 16.7227C9.66911 16.9206 10.1268 17.1494 10.6587 17.4092C11.203 17.6566 11.7843 17.9411 12.4028 18.2627C13.0213 18.5719 13.5903 18.9183 14.1099 19.3018C14.6418 19.6729 15.0871 20.0811 15.4458 20.5264C15.8169 20.9593 16.021 21.4232 16.0581 21.918C16.0952 22.5488 16.089 23.1178 16.0396 23.625C15.9901 24.1322 15.8169 24.5651 15.52 24.9238C15.2231 25.2826 14.7593 25.5671 14.1284 25.7773C13.5099 25.9876 12.6502 26.1175 11.5493 26.167C10.4113 26.2165 9.47738 26.1546 8.74756 25.9814C8.01774 25.8083 7.42399 25.5732 6.96631 25.2764C6.521 24.9795 6.18701 24.6517 5.96436 24.293C5.75407 23.9342 5.59945 23.5941 5.50049 23.2725C5.40153 22.9385 5.3335 22.654 5.29639 22.4189C5.25928 22.1715 5.19743 22.0231 5.11084 21.9736C5.01188 21.9118 4.91292 21.8561 4.81396 21.8066C4.72738 21.7572 4.6346 21.7139 4.53564 21.6768C4.43669 21.6273 4.33773 21.584 4.23877 21.5469L9.63818 20.6748C9.32894 20.9222 9.08773 21.151 8.91455 21.3613C8.75374 21.5716 8.63005 21.7572 8.54346 21.918C8.4445 22.1035 8.37646 22.2767 8.33936 22.4375C8.31462 22.6107 8.37028 22.8271 8.50635 23.0869C8.64242 23.3467 8.82796 23.6003 9.06299 23.8477C9.31038 24.0827 9.59489 24.2806 9.9165 24.4414C10.2381 24.6022 10.5721 24.6702 10.9185 24.6455C11.3514 24.6084 11.7039 24.5033 11.9761 24.3301C12.2482 24.1445 12.4523 23.9157 12.5884 23.6436C12.7368 23.3714 12.8234 23.0745 12.8481 22.7529C12.8729 22.4313 12.842 22.1159 12.7554 21.8066C12.6812 21.485 12.5575 21.1882 12.3843 20.916C12.2111 20.6315 12.007 20.3965 11.772 20.2109C11.5617 20.0625 11.2339 19.9202 10.7886 19.7842C10.3556 19.6481 9.86702 19.4997 9.32275 19.3389C8.79085 19.1781 8.2404 18.9925 7.67139 18.7822C7.11475 18.5719 6.60758 18.3122 6.1499 18.0029C5.70459 17.6937 5.34587 17.3288 5.07373 16.9082C4.81396 16.4876 4.71501 15.9805 4.77686 15.3867C4.82633 14.8796 4.98714 14.459 5.25928 14.125C5.54378 13.7786 5.89632 13.5065 6.31689 13.3086C6.74984 13.0983 7.22607 12.9437 7.74561 12.8447C8.27751 12.7458 8.81559 12.6901 9.35986 12.6777C9.9165 12.653 10.4608 12.6592 10.9927 12.6963C11.5369 12.7334 12.0256 12.7767 12.4585 12.8262C12.8914 12.8757 13.2563 12.9251 13.5532 12.9746C13.8625 13.0117 14.0542 13.0365 14.1284 13.0488C14.45 13.0736 14.7716 13.0674 15.0933 13.0303C15.3778 13.0055 15.687 12.9499 16.021 12.8633C16.3674 12.7643 16.7013 12.6159 17.0229 12.418ZM17.2085 17.7061L20.6226 17.7432C20.4246 18.4977 20.2762 19.141 20.1772 19.6729C20.0907 20.2048 20.035 20.6501 20.0103 21.0088C19.9608 21.417 19.9484 21.7633 19.9731 22.0479C20.0103 22.3076 20.0721 22.5859 20.1587 22.8828C20.2329 23.1302 20.3442 23.4147 20.4927 23.7363C20.6411 24.0579 20.839 24.3796 21.0864 24.7012C20.938 24.6517 20.7772 24.6146 20.604 24.5898C20.4308 24.5651 20.27 24.5465 20.1216 24.5342C19.9484 24.5218 19.7752 24.5218 19.6021 24.5342C19.4289 24.5465 19.2371 24.5651 19.0269 24.5898C18.8537 24.6146 18.6434 24.6455 18.396 24.6826C18.1486 24.7197 17.8888 24.7692 17.6167 24.8311C17.8022 24.2744 17.9445 23.792 18.0435 23.3838C18.1548 22.9756 18.2352 22.6354 18.2847 22.3633C18.3341 22.0417 18.3651 21.7819 18.3774 21.584C18.3774 21.3366 18.3774 21.0583 18.3774 20.749C18.3774 20.4274 18.3774 20.1182 18.3774 19.8213C18.3774 19.5244 18.3713 19.2646 18.3589 19.042C18.3465 18.807 18.3218 18.6585 18.2847 18.5967L18.0991 18.4111C18.0249 18.3493 17.9136 18.2627 17.7651 18.1514C17.6291 18.0277 17.4435 17.8792 17.2085 17.7061ZM18.5259 14.8486C18.7856 14.7126 19.0454 14.6755 19.3052 14.7373C19.5773 14.7992 19.7876 14.9167 19.936 15.0898C20.0845 15.263 20.134 15.4671 20.0845 15.7021C20.0474 15.9372 19.8494 16.166 19.4907 16.3887C19.132 16.599 18.8166 16.6732 18.5444 16.6113C18.2723 16.5495 18.0806 16.4196 17.9692 16.2217C17.8579 16.0238 17.8394 15.7949 17.9136 15.5352C17.9878 15.263 18.1919 15.0342 18.5259 14.8486ZM30.5122 18.1328C30.4751 17.8854 30.4442 17.6813 30.4194 17.5205C30.3947 17.3473 30.37 17.2113 30.3452 17.1123C30.3205 16.9886 30.3019 16.8958 30.2896 16.834C30.2648 16.7721 30.2339 16.7041 30.1968 16.6299C30.172 16.568 30.1287 16.4938 30.0669 16.4072C30.0174 16.3206 29.9556 16.2217 29.8813 16.1104C30.0422 16.1598 30.203 16.1908 30.3638 16.2031C30.5369 16.2155 30.6978 16.2279 30.8462 16.2402C31.007 16.2526 31.174 16.2526 31.3472 16.2402C31.5203 16.2402 31.7183 16.234 31.9409 16.2217C32.1388 16.2093 32.3739 16.2031 32.646 16.2031C32.9305 16.1908 33.2521 16.1722 33.6108 16.1475C33.4006 16.1969 33.2212 16.2835 33.0728 16.4072C32.9367 16.5186 32.8192 16.6423 32.7202 16.7783C32.6089 16.9268 32.5161 17.0876 32.4419 17.2607C32.38 17.4215 32.3429 17.7308 32.3306 18.1885C32.3182 18.6338 32.3182 19.1657 32.3306 19.7842C32.3429 20.3903 32.3553 21.0459 32.3677 21.751C32.3924 22.4561 32.4048 23.1302 32.4048 23.7734C32.4172 24.4167 32.4172 25.0042 32.4048 25.5361C32.3924 26.0557 32.3615 26.4391 32.312 26.6865C32.1388 27.4658 31.8172 28.0967 31.3472 28.5791C30.8771 29.0739 30.2586 29.3398 29.4917 29.377C28.564 29.4141 27.828 29.3275 27.2837 29.1172C26.7518 28.9069 26.3374 28.6471 26.0405 28.3379C25.7437 28.041 25.521 27.738 25.3726 27.4287C25.2241 27.1195 25.0695 26.8844 24.9087 26.7236C24.7603 26.5876 24.6118 26.4577 24.4634 26.334C24.3273 26.235 24.1851 26.1361 24.0366 26.0371C23.9006 25.9382 23.7645 25.8763 23.6284 25.8516C23.9871 25.8639 24.3088 25.8701 24.5933 25.8701C24.8778 25.8701 25.119 25.8701 25.3169 25.8701C25.5396 25.8701 25.7375 25.8639 25.9106 25.8516H26.5044H28.1929C27.9455 25.9258 27.7599 26.0062 27.6362 26.0928C27.5125 26.1917 27.4259 26.2907 27.3765 26.3896C27.327 26.501 27.3022 26.6123 27.3022 26.7236C27.3517 27.0205 27.5125 27.237 27.7847 27.373C28.0568 27.5091 28.4279 27.5895 28.8979 27.6143C29.3556 27.639 29.6711 27.6266 29.8442 27.5771C30.0174 27.54 30.1535 27.4658 30.2524 27.3545C30.4504 27.0576 30.6174 26.6742 30.7534 26.2041C30.8524 25.8083 30.9204 25.2949 30.9575 24.6641C31.007 24.0208 30.9513 23.2354 30.7905 22.3076C30.3947 22.8519 29.937 23.2601 29.4175 23.5322C28.8979 23.8044 28.4032 24.0023 27.9331 24.126C27.3765 24.262 26.8136 24.3301 26.2446 24.3301C24.7479 24.2682 23.6284 23.9219 22.8862 23.291C22.144 22.6602 21.8039 21.8128 21.8657 20.749C21.9028 20.2171 22.0636 19.6852 22.3481 19.1533C22.645 18.6214 23.0285 18.1452 23.4985 17.7246C23.981 17.304 24.5314 16.9701 25.1499 16.7227C25.7684 16.4753 26.4116 16.3701 27.0796 16.4072C27.5868 16.4567 28.063 16.5495 28.5083 16.6855C28.8918 16.8092 29.269 16.9824 29.6401 17.2051C30.0236 17.4277 30.3143 17.737 30.5122 18.1328ZM24.6118 19.9883C24.5376 20.4707 24.5685 20.9222 24.7046 21.3428C24.853 21.7633 25.0571 22.1283 25.3169 22.4375C25.5767 22.7344 25.8674 22.9694 26.189 23.1426C26.5106 23.3034 26.8136 23.3776 27.0981 23.3652C27.6919 23.3529 28.2052 23.0869 28.6382 22.5674C29.0711 22.0355 29.3309 21.2438 29.4175 20.1924C29.4546 19.6729 29.3866 19.2275 29.2134 18.8564C29.0526 18.473 28.8485 18.1637 28.6011 17.9287C28.3537 17.6937 28.0939 17.5267 27.8218 17.4277C27.5496 17.3288 27.3332 17.2855 27.1724 17.2979C26.9497 17.3226 26.7023 17.3906 26.4302 17.502C26.1704 17.6009 25.9168 17.7555 25.6694 17.9658C25.422 18.1637 25.1994 18.4297 25.0015 18.7637C24.8159 19.0977 24.686 19.5059 24.6118 19.9883ZM34.353 23.959C34.4396 23.5508 34.5015 23.1921 34.5386 22.8828C34.5881 22.5612 34.6252 22.2952 34.6499 22.085C34.6746 21.8376 34.687 21.6273 34.687 21.4541C34.6746 21.2438 34.6623 20.9964 34.6499 20.7119C34.6499 20.415 34.6375 20.1243 34.6128 19.8398C34.6004 19.543 34.5819 19.2832 34.5571 19.0605C34.5324 18.8255 34.5015 18.6585 34.4644 18.5596C34.4149 18.4606 34.3468 18.3555 34.2603 18.2441C34.0871 18.0339 33.8335 17.8298 33.4995 17.6318C33.784 17.57 34.0252 17.5205 34.2231 17.4834C34.4334 17.4339 34.6066 17.3906 34.7427 17.3535C34.8911 17.304 35.021 17.2607 35.1323 17.2236C35.2313 17.1865 35.3488 17.1494 35.4849 17.1123C35.5962 17.0876 35.7323 17.0566 35.8931 17.0195C36.0539 16.9824 36.2394 16.9391 36.4497 16.8896L36.394 18.5781C36.7899 18.1081 37.1919 17.7555 37.6001 17.5205C38.0083 17.2855 38.3918 17.1185 38.7505 17.0195C39.1587 16.8958 39.5607 16.834 39.9565 16.834C40.4513 16.8587 40.909 16.9391 41.3296 17.0752C41.7625 17.2113 42.1336 17.3721 42.4429 17.5576C42.7645 17.7308 43.0243 17.9163 43.2222 18.1143C43.4201 18.3122 43.5376 18.4854 43.5747 18.6338C43.7231 19.1162 43.7603 19.5615 43.686 19.9697C43.6118 20.3656 43.5129 20.7552 43.3892 21.1387C43.2778 21.5098 43.1789 21.8809 43.0923 22.252C43.0181 22.623 43.049 23.0251 43.1851 23.458C43.2345 23.5693 43.284 23.6807 43.3335 23.792C43.383 23.891 43.4448 23.9899 43.519 24.0889C43.5933 24.1878 43.6799 24.2682 43.7788 24.3301C43.6427 24.3177 43.5067 24.3115 43.3706 24.3115C43.2345 24.2992 43.1108 24.2868 42.9995 24.2744C42.8634 24.262 42.7397 24.2497 42.6284 24.2373C42.5047 24.2249 42.3377 24.2188 42.1274 24.2188C41.7687 24.2188 41.2121 24.2373 40.4575 24.2744C40.5688 24.0146 40.6554 23.7982 40.7173 23.625C40.7915 23.4395 40.8534 23.291 40.9028 23.1797C40.9523 23.0436 40.9894 22.9385 41.0142 22.8643C41.1626 22.5055 41.2492 22.0973 41.2739 21.6396C41.311 21.182 41.2801 20.7181 41.1812 20.248C41.144 20.0872 41.0822 19.8955 40.9956 19.6729C40.909 19.4502 40.7915 19.2337 40.6431 19.0234C40.507 18.8132 40.34 18.6338 40.1421 18.4854C39.9565 18.3369 39.7401 18.2503 39.4927 18.2256C39.2453 18.2008 38.967 18.2627 38.6577 18.4111C38.3608 18.5596 38.0392 18.8317 37.6929 19.2275C37.4331 19.5615 37.229 19.9697 37.0806 20.4521C36.9445 20.8604 36.8517 21.3737 36.8022 21.9922C36.7528 22.5983 36.827 23.3096 37.0249 24.126C36.8517 24.1012 36.6909 24.0889 36.5425 24.0889C36.394 24.0765 36.2703 24.0641 36.1714 24.0518C36.0477 24.0394 35.9364 24.027 35.8374 24.0146C35.7261 24.0146 35.6024 24.0085 35.4663 23.9961C35.3426 23.9961 35.188 23.9961 35.0024 23.9961C34.8169 23.9837 34.6004 23.9714 34.353 23.959ZM46.3022 18.4854C46.3641 18.4111 46.4012 18.2751 46.4136 18.0771C46.4383 17.8669 46.4878 17.6318 46.562 17.3721C46.6486 17.1123 46.7909 16.8402 46.9888 16.5557C47.1867 16.2712 47.5083 16.0052 47.9536 15.7578C48.3866 15.5104 48.8071 15.362 49.2153 15.3125C49.6235 15.263 50.0132 15.2816 50.3843 15.3682C50.7554 15.4548 51.1017 15.5908 51.4233 15.7764C51.7573 15.9619 52.0604 16.166 52.3325 16.3887C52.5181 16.5371 52.6665 16.7536 52.7778 17.0381C52.8892 17.3102 52.9757 17.6195 53.0376 17.9658C53.0994 18.3122 53.1427 18.6771 53.1675 19.0605C53.2046 19.4316 53.2293 19.7965 53.2417 20.1553C53.2541 20.5016 53.2603 20.8232 53.2603 21.1201C53.2726 21.4046 53.2974 21.6396 53.3345 21.8252C53.384 22.0973 53.4705 22.3324 53.5942 22.5303C53.7179 22.7158 53.854 22.8766 54.0024 23.0127C54.1509 23.1364 54.2993 23.2354 54.4478 23.3096C54.5962 23.3838 54.7261 23.4395 54.8374 23.4766C54.9116 23.5137 54.9797 23.5384 55.0415 23.5508C55.1652 23.6003 55.2518 23.6003 55.3013 23.5508C55.2271 23.724 55.159 23.8724 55.0972 23.9961C55.0353 24.1198 54.9858 24.2249 54.9487 24.3115C54.8993 24.4105 54.856 24.4909 54.8188 24.5527C54.7817 24.627 54.7384 24.695 54.689 24.7568C54.6519 24.8187 54.6024 24.8867 54.5405 24.9609C54.4787 25.0352 54.4168 25.1156 54.355 25.2021C54.1942 25.1403 54.0396 25.0661 53.8911 24.9795C53.755 24.8929 53.6313 24.8125 53.52 24.7383C53.384 24.6517 53.2603 24.5651 53.1489 24.4785C53.0376 24.3919 52.9325 24.293 52.8335 24.1816C52.7469 24.0827 52.6541 23.9775 52.5552 23.8662C52.4686 23.7549 52.3944 23.6312 52.3325 23.4951C52.2583 23.6559 52.0789 23.8848 51.7944 24.1816C51.5223 24.4785 51.1636 24.7507 50.7183 24.998C50.2729 25.2331 49.7534 25.4001 49.1597 25.499C48.5783 25.598 47.9351 25.5299 47.23 25.2949C46.9207 25.196 46.63 25.0537 46.3579 24.8682C46.0858 24.6702 45.8507 24.4352 45.6528 24.1631C45.4673 23.891 45.3312 23.5817 45.2446 23.2354C45.1704 22.8766 45.1766 22.4808 45.2632 22.0479C45.3498 21.6149 45.5044 21.25 45.7271 20.9531C45.9497 20.6562 46.2157 20.415 46.5249 20.2295C46.8341 20.0439 47.1805 19.9017 47.564 19.8027C47.9474 19.7038 48.3433 19.6357 48.7515 19.5986C49.0731 19.5863 49.3947 19.6048 49.7163 19.6543C49.9884 19.7038 50.2729 19.7965 50.5698 19.9326C50.8667 20.0563 51.1203 20.248 51.3306 20.5078C51.3182 19.8522 51.2935 19.3327 51.2563 18.9492C51.2316 18.5534 51.2069 18.2503 51.1821 18.04C51.1326 17.7926 51.0894 17.6195 51.0522 17.5205C50.9904 17.4339 50.9224 17.335 50.8481 17.2236C50.7863 17.1123 50.7059 17.0133 50.6069 16.9268C50.508 16.8278 50.3843 16.7474 50.2358 16.6855C50.0874 16.6237 49.9142 16.599 49.7163 16.6113C49.506 16.6237 49.339 16.6794 49.2153 16.7783C49.0916 16.8773 48.9927 16.9948 48.9185 17.1309C48.8566 17.2546 48.8195 17.3906 48.8071 17.5391C48.7948 17.6875 48.8009 17.8174 48.8257 17.9287C48.8504 18.0029 48.8875 18.0833 48.937 18.1699C48.9865 18.2441 49.0545 18.3245 49.1411 18.4111C49.2277 18.4977 49.3452 18.5719 49.4937 18.6338C49.2091 18.6709 48.9556 18.7018 48.7329 18.7266C48.5103 18.7389 48.3185 18.7575 48.1577 18.7822C47.9722 18.807 47.8114 18.8255 47.6753 18.8379C47.5392 18.8503 47.3784 18.875 47.1929 18.9121C47.0321 18.9368 46.8341 18.9678 46.5991 19.0049C46.3641 19.042 46.092 19.0915 45.7827 19.1533C45.8569 19.0667 45.925 18.9863 45.9868 18.9121C46.0487 18.8255 46.1043 18.7513 46.1538 18.6895C46.2033 18.6152 46.2528 18.5472 46.3022 18.4854ZM49.0854 20.6934C48.8628 20.7057 48.6401 20.7614 48.4175 20.8604C48.1948 20.9469 47.9969 21.0768 47.8237 21.25C47.6506 21.4108 47.5021 21.6025 47.3784 21.8252C47.2671 22.0355 47.2114 22.2705 47.2114 22.5303C47.2114 22.79 47.2733 23.0189 47.397 23.2168C47.533 23.4023 47.7062 23.557 47.9165 23.6807C48.1392 23.8044 48.3742 23.8786 48.6216 23.9033C48.8813 23.9281 49.1349 23.9033 49.3823 23.8291C49.6174 23.7425 49.84 23.6064 50.0503 23.4209C50.2606 23.223 50.4399 23.0127 50.5884 22.79C50.7368 22.555 50.842 22.3262 50.9038 22.1035C50.9657 21.8685 50.9718 21.6768 50.9224 21.5283C50.8234 21.2067 50.6007 20.984 50.2544 20.8604C49.908 20.7243 49.5184 20.6686 49.0854 20.6934ZM54.8931 14.3105C55.2642 14.3477 55.5734 14.3786 55.8208 14.4033C56.0806 14.4281 56.2909 14.4466 56.4517 14.459C56.6372 14.4714 56.7856 14.4775 56.897 14.4775C57.0083 14.4899 57.1567 14.4899 57.3423 14.4775C57.5031 14.4652 57.7134 14.4528 57.9731 14.4404C58.2329 14.4157 58.5607 14.3786 58.9565 14.3291C58.87 14.4528 58.8019 14.5641 58.7524 14.6631C58.703 14.7497 58.6597 14.8301 58.6226 14.9043L58.5112 15.127C58.4865 15.2012 58.4618 15.2754 58.437 15.3496C58.4123 15.4115 58.3875 15.4857 58.3628 15.5723C58.3504 15.6589 58.3381 15.7516 58.3257 15.8506H61.1831L60.9233 17.3535L58.3071 17.2051C58.2453 17.8359 58.202 18.3245 58.1772 18.6709C58.1525 19.0173 58.1278 19.2708 58.103 19.4316L58.0659 19.7656C58.0288 20.2357 57.9917 20.749 57.9546 21.3057C57.9175 21.8499 57.9051 22.3571 57.9175 22.8271C57.9299 23.2972 57.9731 23.693 58.0474 24.0146C58.1216 24.3239 58.2515 24.4785 58.437 24.4785C58.6226 24.4785 58.7957 24.429 58.9565 24.3301C59.1174 24.2311 59.2534 24.1136 59.3647 23.9775C59.4884 23.8415 59.5812 23.7054 59.6431 23.5693C59.7049 23.4209 59.7358 23.3096 59.7358 23.2354C59.7358 23.1611 59.7173 23.0745 59.6802 22.9756C59.6183 22.79 59.507 22.555 59.3462 22.2705C59.7049 22.3571 60.0203 22.4437 60.2925 22.5303C60.4285 22.5798 60.5522 22.6292 60.6636 22.6787C60.7873 22.7282 60.9295 22.7839 61.0903 22.8457C61.2264 22.9076 61.3996 22.9818 61.6099 23.0684C61.8201 23.1549 62.0675 23.2601 62.3521 23.3838C62.0799 23.4333 61.882 23.5137 61.7583 23.625C61.6841 23.6745 61.6284 23.7301 61.5913 23.792C61.5047 23.9281 61.4058 24.1136 61.2944 24.3486C61.1831 24.5713 61.0161 24.7939 60.7935 25.0166C60.5708 25.2393 60.2677 25.4372 59.8843 25.6104C59.5132 25.7835 59.0122 25.8825 58.3813 25.9072C57.7257 25.932 57.2248 25.8206 56.8784 25.5732C56.5444 25.3258 56.297 25.0413 56.1362 24.7197C55.9878 24.3857 55.9012 24.0579 55.8765 23.7363C55.8517 23.4147 55.8332 23.1982 55.8208 23.0869C55.8084 22.9756 55.8084 22.6973 55.8208 22.252C55.8332 21.8066 55.8517 21.318 55.8765 20.7861C55.9012 20.2419 55.9259 19.7223 55.9507 19.2275C55.9754 18.7204 55.9878 18.3493 55.9878 18.1143C55.9878 17.9906 55.994 17.8607 56.0063 17.7246C56.0063 17.6133 56.0063 17.4958 56.0063 17.3721C56.0187 17.236 56.0249 17.1061 56.0249 16.9824L53.3345 16.9639L53.2231 15.9062L55.9321 15.9805C55.9074 15.8444 55.8765 15.7207 55.8394 15.6094C55.8146 15.4857 55.7899 15.3867 55.7651 15.3125C55.728 15.2259 55.6909 15.1517 55.6538 15.0898C55.6043 15.028 55.5487 14.96 55.4868 14.8857C55.425 14.8239 55.3446 14.7435 55.2456 14.6445C55.1466 14.5456 55.0291 14.4342 54.8931 14.3105ZM61.6841 17.4648C62.0057 17.5267 62.284 17.5762 62.519 17.6133C62.7664 17.638 62.9767 17.6628 63.1499 17.6875C63.3478 17.7122 63.521 17.7308 63.6694 17.7432C63.8179 17.7555 63.991 17.7679 64.189 17.7803C64.5229 17.7926 64.993 17.7926 65.5991 17.7803C65.2404 17.7555 64.9559 17.8483 64.7456 18.0586C64.5477 18.2565 64.3993 18.4854 64.3003 18.7451C64.1766 19.0544 64.1086 19.4131 64.0962 19.8213C64.0715 20.3656 64.0838 20.8604 64.1333 21.3057C64.1951 21.7386 64.3003 22.1097 64.4487 22.4189C64.6095 22.7158 64.8198 22.9385 65.0796 23.0869C65.3394 23.223 65.6733 23.2601 66.0815 23.1982C66.4897 23.1364 66.799 22.9941 67.0093 22.7715C67.2319 22.5365 67.3927 22.252 67.4917 21.918C67.5907 21.5716 67.6463 21.182 67.6587 20.749C67.6834 20.3161 67.702 19.8646 67.7144 19.3945C67.7144 18.9245 67.7082 18.5905 67.6958 18.3926C67.6958 18.1823 67.6896 18.0462 67.6772 17.9844C67.6649 17.9225 67.6463 17.8978 67.6216 17.9102C67.5968 17.9102 67.5659 17.8792 67.5288 17.8174C67.5041 17.7679 67.467 17.7184 67.4175 17.6689C67.3804 17.6195 67.3309 17.5638 67.269 17.502C67.2072 17.4277 67.1392 17.3535 67.0649 17.2793C67.3866 17.2917 67.6711 17.304 67.9185 17.3164C68.1782 17.3164 68.3947 17.3226 68.5679 17.335C68.7658 17.3473 68.939 17.3597 69.0874 17.3721C69.2235 17.3844 69.4028 17.403 69.6255 17.4277C69.811 17.4525 70.0522 17.4772 70.3491 17.502C70.646 17.5267 70.9985 17.5638 71.4067 17.6133C71.1222 17.6751 70.8934 17.7679 70.7202 17.8916C70.547 18.0153 70.411 18.139 70.312 18.2627C70.2007 18.3988 70.1203 18.5472 70.0708 18.708C70.0337 18.9183 70.0337 19.2399 70.0708 19.6729C70.0955 20.0563 70.1574 20.582 70.2563 21.25C70.3553 21.918 70.5099 22.7962 70.7202 23.8848L69.2544 24.7568L68.9575 22.2891C68.5988 22.8952 68.2153 23.3652 67.8071 23.6992C67.4113 24.0208 67.0402 24.2559 66.6938 24.4043C66.2856 24.5775 65.8898 24.6764 65.5063 24.7012C64.9992 24.7012 64.5601 24.6702 64.189 24.6084C63.8302 24.5342 63.521 24.4414 63.2612 24.3301C63.0015 24.2188 62.7912 24.0951 62.6304 23.959C62.4819 23.8105 62.3706 23.6621 62.2964 23.5137C62.1232 23.2044 62.0304 22.8086 62.0181 22.3262C62.0057 21.8314 62.0243 21.3428 62.0737 20.8604C62.1232 20.3656 62.1789 19.9141 62.2407 19.5059C62.3026 19.0977 62.3211 18.8193 62.2964 18.6709C62.2716 18.5596 62.2345 18.4359 62.1851 18.2998C62.1356 18.1885 62.0737 18.0648 61.9995 17.9287C61.9253 17.7803 61.8201 17.6257 61.6841 17.4648ZM71.4995 17.1123C71.7345 17.1247 71.9448 17.1309 72.1304 17.1309C72.3283 17.1185 72.4953 17.1061 72.6313 17.0938C72.7922 17.0814 72.9344 17.069 73.0581 17.0566C73.2437 17.0319 73.4354 17.001 73.6333 16.9639C73.8065 16.9391 73.9858 16.9082 74.1714 16.8711C74.3693 16.8216 74.561 16.766 74.7466 16.7041C74.6724 16.8896 74.6105 17.0505 74.561 17.1865C74.5116 17.3226 74.4744 17.4401 74.4497 17.5391C74.4126 17.6504 74.394 17.7432 74.394 17.8174C74.3817 17.904 74.3755 18.0091 74.3755 18.1328C74.3631 18.3431 74.3631 18.6833 74.3755 19.1533C75.0187 18.5967 75.5568 18.1637 75.9897 17.8545C76.4351 17.5452 76.7876 17.304 77.0474 17.1309C77.3566 16.9329 77.5978 16.8031 77.771 16.7412C78.2287 16.667 78.6307 16.7721 78.9771 17.0566C79.1255 17.1803 79.2677 17.3473 79.4038 17.5576C79.5399 17.7555 79.6574 18.0215 79.7563 18.3555C79.8553 18.6895 79.9295 19.0915 79.979 19.5615C80.0285 20.0192 80.0347 20.5697 79.9976 21.2129C79.7378 21.2376 79.5028 21.2624 79.2925 21.2871C79.0946 21.3118 78.9276 21.3304 78.7915 21.3428C78.6307 21.3675 78.4823 21.3799 78.3462 21.3799L77.8452 21.4355C77.672 21.4603 77.4556 21.485 77.1958 21.5098C76.9484 21.5221 76.6453 21.5469 76.2866 21.584C76.8062 21.1634 77.1401 20.7985 77.2886 20.4893C77.4494 20.1676 77.5174 19.9017 77.4927 19.6914C77.4679 19.4564 77.3566 19.2523 77.1587 19.0791C76.9237 18.943 76.6701 18.8936 76.3979 18.9307C76.1629 18.9554 75.8908 19.0605 75.5815 19.2461C75.2723 19.4316 74.9445 19.778 74.5981 20.2852C74.6229 21.0768 74.6476 21.7324 74.6724 22.252C74.7095 22.7715 74.7404 23.1921 74.7651 23.5137C74.8022 23.8848 74.8332 24.1755 74.8579 24.3857C74.895 24.5713 74.9692 24.7692 75.0806 24.9795C75.1672 25.1527 75.2909 25.3444 75.4517 25.5547C75.6125 25.765 75.8228 25.9753 76.0825 26.1855C75.5382 26.1608 75.0929 26.1608 74.7466 26.1855C74.5363 26.1979 74.3507 26.2103 74.1899 26.2227C74.0168 26.2474 73.8312 26.2721 73.6333 26.2969C73.4601 26.3216 73.256 26.3464 73.021 26.3711C72.7983 26.4082 72.5509 26.4453 72.2788 26.4824C72.3778 26.3464 72.4582 26.1855 72.52 26C72.5819 25.8268 72.6313 25.6598 72.6685 25.499C72.7179 25.3135 72.755 25.1217 72.7798 24.9238C72.7922 24.7507 72.7983 24.4909 72.7983 24.1445C72.8107 23.7982 72.8045 23.4085 72.7798 22.9756C72.7674 22.5303 72.7489 22.0726 72.7241 21.6025C72.6994 21.1201 72.6685 20.6686 72.6313 20.248C72.5942 19.8275 72.5509 19.4626 72.5015 19.1533C72.4644 18.8317 72.4211 18.609 72.3716 18.4854C72.3097 18.3369 72.2355 18.1885 72.1489 18.04C72.0747 17.904 71.9819 17.7617 71.8706 17.6133C71.7593 17.4525 71.6356 17.2855 71.4995 17.1123ZM85.6011 23.0127C85.9474 23.0127 86.269 22.9756 86.5659 22.9014C86.8133 22.8395 87.0483 22.7406 87.271 22.6045C87.506 22.4561 87.6606 22.2396 87.7349 21.9551C87.9823 22.0046 88.1925 22.0479 88.3657 22.085C88.5389 22.1097 88.6873 22.1344 88.811 22.1592C88.9471 22.1963 89.0646 22.221 89.1636 22.2334C89.2625 22.2581 89.38 22.2829 89.5161 22.3076C89.6398 22.3324 89.7882 22.3633 89.9614 22.4004C90.147 22.4251 90.3634 22.4622 90.6108 22.5117C90.4253 22.487 90.2336 22.5055 90.0356 22.5674C89.8501 22.6292 89.6707 22.6973 89.4976 22.7715C89.2996 22.8581 89.1141 22.9632 88.9409 23.0869C88.8296 23.1611 88.6997 23.2725 88.5513 23.4209C88.4152 23.5693 88.2173 23.7116 87.9575 23.8477C87.6978 23.9837 87.3514 24.1012 86.9185 24.2002C86.4979 24.2868 85.9536 24.3177 85.2856 24.293C84.4816 24.2682 83.8075 24.126 83.2632 23.8662C82.7189 23.5941 82.2798 23.2663 81.9458 22.8828C81.6118 22.487 81.3706 22.0602 81.2222 21.6025C81.0737 21.1449 80.9933 20.7181 80.981 20.3223C80.9686 19.9264 81.0861 19.512 81.3335 19.0791C81.5809 18.6462 81.9272 18.2503 82.3726 17.8916C82.8302 17.5329 83.3807 17.2422 84.0239 17.0195C84.6672 16.7845 85.3722 16.667 86.1392 16.667C86.5845 16.667 86.9927 16.7227 87.3638 16.834C87.7472 16.9329 88.0936 17.069 88.4028 17.2422C88.7244 17.4154 89.0028 17.6133 89.2378 17.8359C89.4728 18.0462 89.6707 18.2627 89.8315 18.4854C89.9924 18.7204 90.1284 18.9678 90.2397 19.2275C90.3387 19.4502 90.4191 19.7038 90.481 19.9883C90.5428 20.2728 90.5614 20.5635 90.5366 20.8604C89.5965 20.8851 88.8358 20.9036 88.2544 20.916C87.6854 20.9284 87.2401 20.9346 86.9185 20.9346H86.0835H85.4526C85.23 20.9346 84.9393 20.9408 84.5806 20.9531C84.2218 20.9655 83.7827 20.984 83.2632 21.0088C83.325 21.5036 83.4797 21.887 83.7271 22.1592C83.9868 22.4189 84.259 22.6169 84.5435 22.7529C84.8651 22.9014 85.2176 22.988 85.6011 23.0127ZM83.9312 19.6729C84.327 19.6976 84.6548 19.7161 84.9146 19.7285C85.1867 19.7409 85.4093 19.7533 85.5825 19.7656C85.7681 19.778 85.9165 19.7842 86.0278 19.7842H86.4917C86.8009 19.7842 87.3761 19.7656 88.2173 19.7285C88.1802 19.1842 88.0627 18.7699 87.8647 18.4854C87.6792 18.2008 87.4813 17.9906 87.271 17.8545C87.0236 17.7061 86.7515 17.6195 86.4546 17.5947C85.6506 17.6071 85.0506 17.7741 84.6548 18.0957C84.2713 18.4173 84.0301 18.943 83.9312 19.6729Z" fill="#840B0B"/>
<path d="M17.0229 12.418C16.8498 12.8138 16.6951 13.1602 16.5591 13.457C16.423 13.7539 16.3055 14.0075 16.2065 14.2178C16.0952 14.4528 16.0024 14.6631 15.9282 14.8486C15.8664 14.9847 15.786 15.1702 15.687 15.4053C15.5881 15.6156 15.4644 15.8939 15.3159 16.2402C15.1799 16.5742 15.0005 17.0072 14.7778 17.5391C14.6665 17.0814 14.5304 16.6794 14.3696 16.333C14.2088 15.9867 14.0356 15.6836 13.8501 15.4238C13.6646 15.1641 13.4666 14.9538 13.2563 14.793C13.0584 14.6198 12.8605 14.4775 12.6626 14.3662C12.2049 14.1188 11.7225 13.9827 11.2153 13.958C10.5474 13.9951 10.0216 14.1064 9.63818 14.292C9.26709 14.4652 8.99495 14.6693 8.82178 14.9043C8.6486 15.127 8.55583 15.362 8.54346 15.6094C8.53109 15.8444 8.56201 16.0423 8.63623 16.2031C8.69808 16.3516 8.91455 16.5247 9.28564 16.7227C9.66911 16.9206 10.1268 17.1494 10.6587 17.4092C11.203 17.6566 11.7843 17.9411 12.4028 18.2627C13.0213 18.5719 13.5903 18.9183 14.1099 19.3018C14.6418 19.6729 15.0871 20.0811 15.4458 20.5264C15.8169 20.9593 16.021 21.4232 16.0581 21.918C16.0952 22.5488 16.089 23.1178 16.0396 23.625C15.9901 24.1322 15.8169 24.5651 15.52 24.9238C15.2231 25.2826 14.7593 25.5671 14.1284 25.7773C13.5099 25.9876 12.6502 26.1175 11.5493 26.167C10.4113 26.2165 9.47738 26.1546 8.74756 25.9814C8.01774 25.8083 7.42399 25.5732 6.96631 25.2764C6.521 24.9795 6.18701 24.6517 5.96436 24.293C5.75407 23.9342 5.59945 23.5941 5.50049 23.2725C5.40153 22.9385 5.3335 22.654 5.29639 22.4189C5.25928 22.1715 5.19743 22.0231 5.11084 21.9736C5.01188 21.9118 4.91292 21.8561 4.81396 21.8066C4.72738 21.7572 4.6346 21.7139 4.53564 21.6768C4.43669 21.6273 4.33773 21.584 4.23877 21.5469L9.63818 20.6748C9.32894 20.9222 9.08773 21.151 8.91455 21.3613C8.75374 21.5716 8.63005 21.7572 8.54346 21.918C8.4445 22.1035 8.37646 22.2767 8.33936 22.4375C8.31462 22.6107 8.37028 22.8271 8.50635 23.0869C8.64242 23.3467 8.82796 23.6003 9.06299 23.8477C9.31038 24.0827 9.59489 24.2806 9.9165 24.4414C10.2381 24.6022 10.5721 24.6702 10.9185 24.6455C11.3514 24.6084 11.7039 24.5033 11.9761 24.3301C12.2482 24.1445 12.4523 23.9157 12.5884 23.6436C12.7368 23.3714 12.8234 23.0745 12.8481 22.7529C12.8729 22.4313 12.842 22.1159 12.7554 21.8066C12.6812 21.485 12.5575 21.1882 12.3843 20.916C12.2111 20.6315 12.007 20.3965 11.772 20.2109C11.5617 20.0625 11.2339 19.9202 10.7886 19.7842C10.3556 19.6481 9.86702 19.4997 9.32275 19.3389C8.79085 19.1781 8.2404 18.9925 7.67139 18.7822C7.11475 18.5719 6.60758 18.3122 6.1499 18.0029C5.70459 17.6937 5.34587 17.3288 5.07373 16.9082C4.81396 16.4876 4.71501 15.9805 4.77686 15.3867C4.82633 14.8796 4.98714 14.459 5.25928 14.125C5.54378 13.7786 5.89632 13.5065 6.31689 13.3086C6.74984 13.0983 7.22607 12.9437 7.74561 12.8447C8.27751 12.7458 8.81559 12.6901 9.35986 12.6777C9.9165 12.653 10.4608 12.6592 10.9927 12.6963C11.5369 12.7334 12.0256 12.7767 12.4585 12.8262C12.8914 12.8757 13.2563 12.9251 13.5532 12.9746C13.8625 13.0117 14.0542 13.0365 14.1284 13.0488C14.45 13.0736 14.7716 13.0674 15.0933 13.0303C15.3778 13.0055 15.687 12.9499 16.021 12.8633C16.3674 12.7643 16.7013 12.6159 17.0229 12.418ZM17.2085 17.7061L20.6226 17.7432C20.4246 18.4977 20.2762 19.141 20.1772 19.6729C20.0907 20.2048 20.035 20.6501 20.0103 21.0088C19.9608 21.417 19.9484 21.7633 19.9731 22.0479C20.0103 22.3076 20.0721 22.5859 20.1587 22.8828C20.2329 23.1302 20.3442 23.4147 20.4927 23.7363C20.6411 24.0579 20.839 24.3796 21.0864 24.7012C20.938 24.6517 20.7772 24.6146 20.604 24.5898C20.4308 24.5651 20.27 24.5465 20.1216 24.5342C19.9484 24.5218 19.7752 24.5218 19.6021 24.5342C19.4289 24.5465 19.2371 24.5651 19.0269 24.5898C18.8537 24.6146 18.6434 24.6455 18.396 24.6826C18.1486 24.7197 17.8888 24.7692 17.6167 24.8311C17.8022 24.2744 17.9445 23.792 18.0435 23.3838C18.1548 22.9756 18.2352 22.6354 18.2847 22.3633C18.3341 22.0417 18.3651 21.7819 18.3774 21.584C18.3774 21.3366 18.3774 21.0583 18.3774 20.749C18.3774 20.4274 18.3774 20.1182 18.3774 19.8213C18.3774 19.5244 18.3713 19.2646 18.3589 19.042C18.3465 18.807 18.3218 18.6585 18.2847 18.5967L18.0991 18.4111C18.0249 18.3493 17.9136 18.2627 17.7651 18.1514C17.6291 18.0277 17.4435 17.8792 17.2085 17.7061ZM18.5259 14.8486C18.7856 14.7126 19.0454 14.6755 19.3052 14.7373C19.5773 14.7992 19.7876 14.9167 19.936 15.0898C20.0845 15.263 20.134 15.4671 20.0845 15.7021C20.0474 15.9372 19.8494 16.166 19.4907 16.3887C19.132 16.599 18.8166 16.6732 18.5444 16.6113C18.2723 16.5495 18.0806 16.4196 17.9692 16.2217C17.8579 16.0238 17.8394 15.7949 17.9136 15.5352C17.9878 15.263 18.1919 15.0342 18.5259 14.8486ZM30.5122 18.1328C30.4751 17.8854 30.4442 17.6813 30.4194 17.5205C30.3947 17.3473 30.37 17.2113 30.3452 17.1123C30.3205 16.9886 30.3019 16.8958 30.2896 16.834C30.2648 16.7721 30.2339 16.7041 30.1968 16.6299C30.172 16.568 30.1287 16.4938 30.0669 16.4072C30.0174 16.3206 29.9556 16.2217 29.8813 16.1104C30.0422 16.1598 30.203 16.1908 30.3638 16.2031C30.5369 16.2155 30.6978 16.2279 30.8462 16.2402C31.007 16.2526 31.174 16.2526 31.3472 16.2402C31.5203 16.2402 31.7183 16.234 31.9409 16.2217C32.1388 16.2093 32.3739 16.2031 32.646 16.2031C32.9305 16.1908 33.2521 16.1722 33.6108 16.1475C33.4006 16.1969 33.2212 16.2835 33.0728 16.4072C32.9367 16.5186 32.8192 16.6423 32.7202 16.7783C32.6089 16.9268 32.5161 17.0876 32.4419 17.2607C32.38 17.4215 32.3429 17.7308 32.3306 18.1885C32.3182 18.6338 32.3182 19.1657 32.3306 19.7842C32.3429 20.3903 32.3553 21.0459 32.3677 21.751C32.3924 22.4561 32.4048 23.1302 32.4048 23.7734C32.4172 24.4167 32.4172 25.0042 32.4048 25.5361C32.3924 26.0557 32.3615 26.4391 32.312 26.6865C32.1388 27.4658 31.8172 28.0967 31.3472 28.5791C30.8771 29.0739 30.2586 29.3398 29.4917 29.377C28.564 29.4141 27.828 29.3275 27.2837 29.1172C26.7518 28.9069 26.3374 28.6471 26.0405 28.3379C25.7437 28.041 25.521 27.738 25.3726 27.4287C25.2241 27.1195 25.0695 26.8844 24.9087 26.7236C24.7603 26.5876 24.6118 26.4577 24.4634 26.334C24.3273 26.235 24.1851 26.1361 24.0366 26.0371C23.9006 25.9382 23.7645 25.8763 23.6284 25.8516C23.9871 25.8639 24.3088 25.8701 24.5933 25.8701C24.8778 25.8701 25.119 25.8701 25.3169 25.8701C25.5396 25.8701 25.7375 25.8639 25.9106 25.8516H26.5044H28.1929C27.9455 25.9258 27.7599 26.0062 27.6362 26.0928C27.5125 26.1917 27.4259 26.2907 27.3765 26.3896C27.327 26.501 27.3022 26.6123 27.3022 26.7236C27.3517 27.0205 27.5125 27.237 27.7847 27.373C28.0568 27.5091 28.4279 27.5895 28.8979 27.6143C29.3556 27.639 29.6711 27.6266 29.8442 27.5771C30.0174 27.54 30.1535 27.4658 30.2524 27.3545C30.4504 27.0576 30.6174 26.6742 30.7534 26.2041C30.8524 25.8083 30.9204 25.2949 30.9575 24.6641C31.007 24.0208 30.9513 23.2354 30.7905 22.3076C30.3947 22.8519 29.937 23.2601 29.4175 23.5322C28.8979 23.8044 28.4032 24.0023 27.9331 24.126C27.3765 24.262 26.8136 24.3301 26.2446 24.3301C24.7479 24.2682 23.6284 23.9219 22.8862 23.291C22.144 22.6602 21.8039 21.8128 21.8657 20.749C21.9028 20.2171 22.0636 19.6852 22.3481 19.1533C22.645 18.6214 23.0285 18.1452 23.4985 17.7246C23.981 17.304 24.5314 16.9701 25.1499 16.7227C25.7684 16.4753 26.4116 16.3701 27.0796 16.4072C27.5868 16.4567 28.063 16.5495 28.5083 16.6855C28.8918 16.8092 29.269 16.9824 29.6401 17.2051C30.0236 17.4277 30.3143 17.737 30.5122 18.1328ZM24.6118 19.9883C24.5376 20.4707 24.5685 20.9222 24.7046 21.3428C24.853 21.7633 25.0571 22.1283 25.3169 22.4375C25.5767 22.7344 25.8674 22.9694 26.189 23.1426C26.5106 23.3034 26.8136 23.3776 27.0981 23.3652C27.6919 23.3529 28.2052 23.0869 28.6382 22.5674C29.0711 22.0355 29.3309 21.2438 29.4175 20.1924C29.4546 19.6729 29.3866 19.2275 29.2134 18.8564C29.0526 18.473 28.8485 18.1637 28.6011 17.9287C28.3537 17.6937 28.0939 17.5267 27.8218 17.4277C27.5496 17.3288 27.3332 17.2855 27.1724 17.2979C26.9497 17.3226 26.7023 17.3906 26.4302 17.502C26.1704 17.6009 25.9168 17.7555 25.6694 17.9658C25.422 18.1637 25.1994 18.4297 25.0015 18.7637C24.8159 19.0977 24.686 19.5059 24.6118 19.9883ZM34.353 23.959C34.4396 23.5508 34.5015 23.1921 34.5386 22.8828C34.5881 22.5612 34.6252 22.2952 34.6499 22.085C34.6746 21.8376 34.687 21.6273 34.687 21.4541C34.6746 21.2438 34.6623 20.9964 34.6499 20.7119C34.6499 20.415 34.6375 20.1243 34.6128 19.8398C34.6004 19.543 34.5819 19.2832 34.5571 19.0605C34.5324 18.8255 34.5015 18.6585 34.4644 18.5596C34.4149 18.4606 34.3468 18.3555 34.2603 18.2441C34.0871 18.0339 33.8335 17.8298 33.4995 17.6318C33.784 17.57 34.0252 17.5205 34.2231 17.4834C34.4334 17.4339 34.6066 17.3906 34.7427 17.3535C34.8911 17.304 35.021 17.2607 35.1323 17.2236C35.2313 17.1865 35.3488 17.1494 35.4849 17.1123C35.5962 17.0876 35.7323 17.0566 35.8931 17.0195C36.0539 16.9824 36.2394 16.9391 36.4497 16.8896L36.394 18.5781C36.7899 18.1081 37.1919 17.7555 37.6001 17.5205C38.0083 17.2855 38.3918 17.1185 38.7505 17.0195C39.1587 16.8958 39.5607 16.834 39.9565 16.834C40.4513 16.8587 40.909 16.9391 41.3296 17.0752C41.7625 17.2113 42.1336 17.3721 42.4429 17.5576C42.7645 17.7308 43.0243 17.9163 43.2222 18.1143C43.4201 18.3122 43.5376 18.4854 43.5747 18.6338C43.7231 19.1162 43.7603 19.5615 43.686 19.9697C43.6118 20.3656 43.5129 20.7552 43.3892 21.1387C43.2778 21.5098 43.1789 21.8809 43.0923 22.252C43.0181 22.623 43.049 23.0251 43.1851 23.458C43.2345 23.5693 43.284 23.6807 43.3335 23.792C43.383 23.891 43.4448 23.9899 43.519 24.0889C43.5933 24.1878 43.6799 24.2682 43.7788 24.3301C43.6427 24.3177 43.5067 24.3115 43.3706 24.3115C43.2345 24.2992 43.1108 24.2868 42.9995 24.2744C42.8634 24.262 42.7397 24.2497 42.6284 24.2373C42.5047 24.2249 42.3377 24.2188 42.1274 24.2188C41.7687 24.2188 41.2121 24.2373 40.4575 24.2744C40.5688 24.0146 40.6554 23.7982 40.7173 23.625C40.7915 23.4395 40.8534 23.291 40.9028 23.1797C40.9523 23.0436 40.9894 22.9385 41.0142 22.8643C41.1626 22.5055 41.2492 22.0973 41.2739 21.6396C41.311 21.182 41.2801 20.7181 41.1812 20.248C41.144 20.0872 41.0822 19.8955 40.9956 19.6729C40.909 19.4502 40.7915 19.2337 40.6431 19.0234C40.507 18.8132 40.34 18.6338 40.1421 18.4854C39.9565 18.3369 39.7401 18.2503 39.4927 18.2256C39.2453 18.2008 38.967 18.2627 38.6577 18.4111C38.3608 18.5596 38.0392 18.8317 37.6929 19.2275C37.4331 19.5615 37.229 19.9697 37.0806 20.4521C36.9445 20.8604 36.8517 21.3737 36.8022 21.9922C36.7528 22.5983 36.827 23.3096 37.0249 24.126C36.8517 24.1012 36.6909 24.0889 36.5425 24.0889C36.394 24.0765 36.2703 24.0641 36.1714 24.0518C36.0477 24.0394 35.9364 24.027 35.8374 24.0146C35.7261 24.0146 35.6024 24.0085 35.4663 23.9961C35.3426 23.9961 35.188 23.9961 35.0024 23.9961C34.8169 23.9837 34.6004 23.9714 34.353 23.959ZM46.3022 18.4854C46.3641 18.4111 46.4012 18.2751 46.4136 18.0771C46.4383 17.8669 46.4878 17.6318 46.562 17.3721C46.6486 17.1123 46.7909 16.8402 46.9888 16.5557C47.1867 16.2712 47.5083 16.0052 47.9536 15.7578C48.3866 15.5104 48.8071 15.362 49.2153 15.3125C49.6235 15.263 50.0132 15.2816 50.3843 15.3682C50.7554 15.4548 51.1017 15.5908 51.4233 15.7764C51.7573 15.9619 52.0604 16.166 52.3325 16.3887C52.5181 16.5371 52.6665 16.7536 52.7778 17.0381C52.8892 17.3102 52.9757 17.6195 53.0376 17.9658C53.0994 18.3122 53.1427 18.6771 53.1675 19.0605C53.2046 19.4316 53.2293 19.7965 53.2417 20.1553C53.2541 20.5016 53.2603 20.8232 53.2603 21.1201C53.2726 21.4046 53.2974 21.6396 53.3345 21.8252C53.384 22.0973 53.4705 22.3324 53.5942 22.5303C53.7179 22.7158 53.854 22.8766 54.0024 23.0127C54.1509 23.1364 54.2993 23.2354 54.4478 23.3096C54.5962 23.3838 54.7261 23.4395 54.8374 23.4766C54.9116 23.5137 54.9797 23.5384 55.0415 23.5508C55.1652 23.6003 55.2518 23.6003 55.3013 23.5508C55.2271 23.724 55.159 23.8724 55.0972 23.9961C55.0353 24.1198 54.9858 24.2249 54.9487 24.3115C54.8993 24.4105 54.856 24.4909 54.8188 24.5527C54.7817 24.627 54.7384 24.695 54.689 24.7568C54.6519 24.8187 54.6024 24.8867 54.5405 24.9609C54.4787 25.0352 54.4168 25.1156 54.355 25.2021C54.1942 25.1403 54.0396 25.0661 53.8911 24.9795C53.755 24.8929 53.6313 24.8125 53.52 24.7383C53.384 24.6517 53.2603 24.5651 53.1489 24.4785C53.0376 24.3919 52.9325 24.293 52.8335 24.1816C52.7469 24.0827 52.6541 23.9775 52.5552 23.8662C52.4686 23.7549 52.3944 23.6312 52.3325 23.4951C52.2583 23.6559 52.0789 23.8848 51.7944 24.1816C51.5223 24.4785 51.1636 24.7507 50.7183 24.998C50.2729 25.2331 49.7534 25.4001 49.1597 25.499C48.5783 25.598 47.9351 25.5299 47.23 25.2949C46.9207 25.196 46.63 25.0537 46.3579 24.8682C46.0858 24.6702 45.8507 24.4352 45.6528 24.1631C45.4673 23.891 45.3312 23.5817 45.2446 23.2354C45.1704 22.8766 45.1766 22.4808 45.2632 22.0479C45.3498 21.6149 45.5044 21.25 45.7271 20.9531C45.9497 20.6562 46.2157 20.415 46.5249 20.2295C46.8341 20.0439 47.1805 19.9017 47.564 19.8027C47.9474 19.7038 48.3433 19.6357 48.7515 19.5986C49.0731 19.5863 49.3947 19.6048 49.7163 19.6543C49.9884 19.7038 50.2729 19.7965 50.5698 19.9326C50.8667 20.0563 51.1203 20.248 51.3306 20.5078C51.3182 19.8522 51.2935 19.3327 51.2563 18.9492C51.2316 18.5534 51.2069 18.2503 51.1821 18.04C51.1326 17.7926 51.0894 17.6195 51.0522 17.5205C50.9904 17.4339 50.9224 17.335 50.8481 17.2236C50.7863 17.1123 50.7059 17.0133 50.6069 16.9268C50.508 16.8278 50.3843 16.7474 50.2358 16.6855C50.0874 16.6237 49.9142 16.599 49.7163 16.6113C49.506 16.6237 49.339 16.6794 49.2153 16.7783C49.0916 16.8773 48.9927 16.9948 48.9185 17.1309C48.8566 17.2546 48.8195 17.3906 48.8071 17.5391C48.7948 17.6875 48.8009 17.8174 48.8257 17.9287C48.8504 18.0029 48.8875 18.0833 48.937 18.1699C48.9865 18.2441 49.0545 18.3245 49.1411 18.4111C49.2277 18.4977 49.3452 18.5719 49.4937 18.6338C49.2091 18.6709 48.9556 18.7018 48.7329 18.7266C48.5103 18.7389 48.3185 18.7575 48.1577 18.7822C47.9722 18.807 47.8114 18.8255 47.6753 18.8379C47.5392 18.8503 47.3784 18.875 47.1929 18.9121C47.0321 18.9368 46.8341 18.9678 46.5991 19.0049C46.3641 19.042 46.092 19.0915 45.7827 19.1533C45.8569 19.0667 45.925 18.9863 45.9868 18.9121C46.0487 18.8255 46.1043 18.7513 46.1538 18.6895C46.2033 18.6152 46.2528 18.5472 46.3022 18.4854ZM49.0854 20.6934C48.8628 20.7057 48.6401 20.7614 48.4175 20.8604C48.1948 20.9469 47.9969 21.0768 47.8237 21.25C47.6506 21.4108 47.5021 21.6025 47.3784 21.8252C47.2671 22.0355 47.2114 22.2705 47.2114 22.5303C47.2114 22.79 47.2733 23.0189 47.397 23.2168C47.533 23.4023 47.7062 23.557 47.9165 23.6807C48.1392 23.8044 48.3742 23.8786 48.6216 23.9033C48.8813 23.9281 49.1349 23.9033 49.3823 23.8291C49.6174 23.7425 49.84 23.6064 50.0503 23.4209C50.2606 23.223 50.4399 23.0127 50.5884 22.79C50.7368 22.555 50.842 22.3262 50.9038 22.1035C50.9657 21.8685 50.9718 21.6768 50.9224 21.5283C50.8234 21.2067 50.6007 20.984 50.2544 20.8604C49.908 20.7243 49.5184 20.6686 49.0854 20.6934ZM54.8931 14.3105C55.2642 14.3477 55.5734 14.3786 55.8208 14.4033C56.0806 14.4281 56.2909 14.4466 56.4517 14.459C56.6372 14.4714 56.7856 14.4775 56.897 14.4775C57.0083 14.4899 57.1567 14.4899 57.3423 14.4775C57.5031 14.4652 57.7134 14.4528 57.9731 14.4404C58.2329 14.4157 58.5607 14.3786 58.9565 14.3291C58.87 14.4528 58.8019 14.5641 58.7524 14.6631C58.703 14.7497 58.6597 14.8301 58.6226 14.9043L58.5112 15.127C58.4865 15.2012 58.4618 15.2754 58.437 15.3496C58.4123 15.4115 58.3875 15.4857 58.3628 15.5723C58.3504 15.6589 58.3381 15.7516 58.3257 15.8506H61.1831L60.9233 17.3535L58.3071 17.2051C58.2453 17.8359 58.202 18.3245 58.1772 18.6709C58.1525 19.0173 58.1278 19.2708 58.103 19.4316L58.0659 19.7656C58.0288 20.2357 57.9917 20.749 57.9546 21.3057C57.9175 21.8499 57.9051 22.3571 57.9175 22.8271C57.9299 23.2972 57.9731 23.693 58.0474 24.0146C58.1216 24.3239 58.2515 24.4785 58.437 24.4785C58.6226 24.4785 58.7957 24.429 58.9565 24.3301C59.1174 24.2311 59.2534 24.1136 59.3647 23.9775C59.4884 23.8415 59.5812 23.7054 59.6431 23.5693C59.7049 23.4209 59.7358 23.3096 59.7358 23.2354C59.7358 23.1611 59.7173 23.0745 59.6802 22.9756C59.6183 22.79 59.507 22.555 59.3462 22.2705C59.7049 22.3571 60.0203 22.4437 60.2925 22.5303C60.4285 22.5798 60.5522 22.6292 60.6636 22.6787C60.7873 22.7282 60.9295 22.7839 61.0903 22.8457C61.2264 22.9076 61.3996 22.9818 61.6099 23.0684C61.8201 23.1549 62.0675 23.2601 62.3521 23.3838C62.0799 23.4333 61.882 23.5137 61.7583 23.625C61.6841 23.6745 61.6284 23.7301 61.5913 23.792C61.5047 23.9281 61.4058 24.1136 61.2944 24.3486C61.1831 24.5713 61.0161 24.7939 60.7935 25.0166C60.5708 25.2393 60.2677 25.4372 59.8843 25.6104C59.5132 25.7835 59.0122 25.8825 58.3813 25.9072C57.7257 25.932 57.2248 25.8206 56.8784 25.5732C56.5444 25.3258 56.297 25.0413 56.1362 24.7197C55.9878 24.3857 55.9012 24.0579 55.8765 23.7363C55.8517 23.4147 55.8332 23.1982 55.8208 23.0869C55.8084 22.9756 55.8084 22.6973 55.8208 22.252C55.8332 21.8066 55.8517 21.318 55.8765 20.7861C55.9012 20.2419 55.9259 19.7223 55.9507 19.2275C55.9754 18.7204 55.9878 18.3493 55.9878 18.1143C55.9878 17.9906 55.994 17.8607 56.0063 17.7246C56.0063 17.6133 56.0063 17.4958 56.0063 17.3721C56.0187 17.236 56.0249 17.1061 56.0249 16.9824L53.3345 16.9639L53.2231 15.9062L55.9321 15.9805C55.9074 15.8444 55.8765 15.7207 55.8394 15.6094C55.8146 15.4857 55.7899 15.3867 55.7651 15.3125C55.728 15.2259 55.6909 15.1517 55.6538 15.0898C55.6043 15.028 55.5487 14.96 55.4868 14.8857C55.425 14.8239 55.3446 14.7435 55.2456 14.6445C55.1466 14.5456 55.0291 14.4342 54.8931 14.3105ZM61.6841 17.4648C62.0057 17.5267 62.284 17.5762 62.519 17.6133C62.7664 17.638 62.9767 17.6628 63.1499 17.6875C63.3478 17.7122 63.521 17.7308 63.6694 17.7432C63.8179 17.7555 63.991 17.7679 64.189 17.7803C64.5229 17.7926 64.993 17.7926 65.5991 17.7803C65.2404 17.7555 64.9559 17.8483 64.7456 18.0586C64.5477 18.2565 64.3993 18.4854 64.3003 18.7451C64.1766 19.0544 64.1086 19.4131 64.0962 19.8213C64.0715 20.3656 64.0838 20.8604 64.1333 21.3057C64.1951 21.7386 64.3003 22.1097 64.4487 22.4189C64.6095 22.7158 64.8198 22.9385 65.0796 23.0869C65.3394 23.223 65.6733 23.2601 66.0815 23.1982C66.4897 23.1364 66.799 22.9941 67.0093 22.7715C67.2319 22.5365 67.3927 22.252 67.4917 21.918C67.5907 21.5716 67.6463 21.182 67.6587 20.749C67.6834 20.3161 67.702 19.8646 67.7144 19.3945C67.7144 18.9245 67.7082 18.5905 67.6958 18.3926C67.6958 18.1823 67.6896 18.0462 67.6772 17.9844C67.6649 17.9225 67.6463 17.8978 67.6216 17.9102C67.5968 17.9102 67.5659 17.8792 67.5288 17.8174C67.5041 17.7679 67.467 17.7184 67.4175 17.6689C67.3804 17.6195 67.3309 17.5638 67.269 17.502C67.2072 17.4277 67.1392 17.3535 67.0649 17.2793C67.3866 17.2917 67.6711 17.304 67.9185 17.3164C68.1782 17.3164 68.3947 17.3226 68.5679 17.335C68.7658 17.3473 68.939 17.3597 69.0874 17.3721C69.2235 17.3844 69.4028 17.403 69.6255 17.4277C69.811 17.4525 70.0522 17.4772 70.3491 17.502C70.646 17.5267 70.9985 17.5638 71.4067 17.6133C71.1222 17.6751 70.8934 17.7679 70.7202 17.8916C70.547 18.0153 70.411 18.139 70.312 18.2627C70.2007 18.3988 70.1203 18.5472 70.0708 18.708C70.0337 18.9183 70.0337 19.2399 70.0708 19.6729C70.0955 20.0563 70.1574 20.582 70.2563 21.25C70.3553 21.918 70.5099 22.7962 70.7202 23.8848L69.2544 24.7568L68.9575 22.2891C68.5988 22.8952 68.2153 23.3652 67.8071 23.6992C67.4113 24.0208 67.0402 24.2559 66.6938 24.4043C66.2856 24.5775 65.8898 24.6764 65.5063 24.7012C64.9992 24.7012 64.5601 24.6702 64.189 24.6084C63.8302 24.5342 63.521 24.4414 63.2612 24.3301C63.0015 24.2188 62.7912 24.0951 62.6304 23.959C62.4819 23.8105 62.3706 23.6621 62.2964 23.5137C62.1232 23.2044 62.0304 22.8086 62.0181 22.3262C62.0057 21.8314 62.0243 21.3428 62.0737 20.8604C62.1232 20.3656 62.1789 19.9141 62.2407 19.5059C62.3026 19.0977 62.3211 18.8193 62.2964 18.6709C62.2716 18.5596 62.2345 18.4359 62.1851 18.2998C62.1356 18.1885 62.0737 18.0648 61.9995 17.9287C61.9253 17.7803 61.8201 17.6257 61.6841 17.4648ZM71.4995 17.1123C71.7345 17.1247 71.9448 17.1309 72.1304 17.1309C72.3283 17.1185 72.4953 17.1061 72.6313 17.0938C72.7922 17.0814 72.9344 17.069 73.0581 17.0566C73.2437 17.0319 73.4354 17.001 73.6333 16.9639C73.8065 16.9391 73.9858 16.9082 74.1714 16.8711C74.3693 16.8216 74.561 16.766 74.7466 16.7041C74.6724 16.8896 74.6105 17.0505 74.561 17.1865C74.5116 17.3226 74.4744 17.4401 74.4497 17.5391C74.4126 17.6504 74.394 17.7432 74.394 17.8174C74.3817 17.904 74.3755 18.0091 74.3755 18.1328C74.3631 18.3431 74.3631 18.6833 74.3755 19.1533C75.0187 18.5967 75.5568 18.1637 75.9897 17.8545C76.4351 17.5452 76.7876 17.304 77.0474 17.1309C77.3566 16.9329 77.5978 16.8031 77.771 16.7412C78.2287 16.667 78.6307 16.7721 78.9771 17.0566C79.1255 17.1803 79.2677 17.3473 79.4038 17.5576C79.5399 17.7555 79.6574 18.0215 79.7563 18.3555C79.8553 18.6895 79.9295 19.0915 79.979 19.5615C80.0285 20.0192 80.0347 20.5697 79.9976 21.2129C79.7378 21.2376 79.5028 21.2624 79.2925 21.2871C79.0946 21.3118 78.9276 21.3304 78.7915 21.3428C78.6307 21.3675 78.4823 21.3799 78.3462 21.3799L77.8452 21.4355C77.672 21.4603 77.4556 21.485 77.1958 21.5098C76.9484 21.5221 76.6453 21.5469 76.2866 21.584C76.8062 21.1634 77.1401 20.7985 77.2886 20.4893C77.4494 20.1676 77.5174 19.9017 77.4927 19.6914C77.4679 19.4564 77.3566 19.2523 77.1587 19.0791C76.9237 18.943 76.6701 18.8936 76.3979 18.9307C76.1629 18.9554 75.8908 19.0605 75.5815 19.2461C75.2723 19.4316 74.9445 19.778 74.5981 20.2852C74.6229 21.0768 74.6476 21.7324 74.6724 22.252C74.7095 22.7715 74.7404 23.1921 74.7651 23.5137C74.8022 23.8848 74.8332 24.1755 74.8579 24.3857C74.895 24.5713 74.9692 24.7692 75.0806 24.9795C75.1672 25.1527 75.2909 25.3444 75.4517 25.5547C75.6125 25.765 75.8228 25.9753 76.0825 26.1855C75.5382 26.1608 75.0929 26.1608 74.7466 26.1855C74.5363 26.1979 74.3507 26.2103 74.1899 26.2227C74.0168 26.2474 73.8312 26.2721 73.6333 26.2969C73.4601 26.3216 73.256 26.3464 73.021 26.3711C72.7983 26.4082 72.5509 26.4453 72.2788 26.4824C72.3778 26.3464 72.4582 26.1855 72.52 26C72.5819 25.8268 72.6313 25.6598 72.6685 25.499C72.7179 25.3135 72.755 25.1217 72.7798 24.9238C72.7922 24.7507 72.7983 24.4909 72.7983 24.1445C72.8107 23.7982 72.8045 23.4085 72.7798 22.9756C72.7674 22.5303 72.7489 22.0726 72.7241 21.6025C72.6994 21.1201 72.6685 20.6686 72.6313 20.248C72.5942 19.8275 72.5509 19.4626 72.5015 19.1533C72.4644 18.8317 72.4211 18.609 72.3716 18.4854C72.3097 18.3369 72.2355 18.1885 72.1489 18.04C72.0747 17.904 71.9819 17.7617 71.8706 17.6133C71.7593 17.4525 71.6356 17.2855 71.4995 17.1123ZM85.6011 23.0127C85.9474 23.0127 86.269 22.9756 86.5659 22.9014C86.8133 22.8395 87.0483 22.7406 87.271 22.6045C87.506 22.4561 87.6606 22.2396 87.7349 21.9551C87.9823 22.0046 88.1925 22.0479 88.3657 22.085C88.5389 22.1097 88.6873 22.1344 88.811 22.1592C88.9471 22.1963 89.0646 22.221 89.1636 22.2334C89.2625 22.2581 89.38 22.2829 89.5161 22.3076C89.6398 22.3324 89.7882 22.3633 89.9614 22.4004C90.147 22.4251 90.3634 22.4622 90.6108 22.5117C90.4253 22.487 90.2336 22.5055 90.0356 22.5674C89.8501 22.6292 89.6707 22.6973 89.4976 22.7715C89.2996 22.8581 89.1141 22.9632 88.9409 23.0869C88.8296 23.1611 88.6997 23.2725 88.5513 23.4209C88.4152 23.5693 88.2173 23.7116 87.9575 23.8477C87.6978 23.9837 87.3514 24.1012 86.9185 24.2002C86.4979 24.2868 85.9536 24.3177 85.2856 24.293C84.4816 24.2682 83.8075 24.126 83.2632 23.8662C82.7189 23.5941 82.2798 23.2663 81.9458 22.8828C81.6118 22.487 81.3706 22.0602 81.2222 21.6025C81.0737 21.1449 80.9933 20.7181 80.981 20.3223C80.9686 19.9264 81.0861 19.512 81.3335 19.0791C81.5809 18.6462 81.9272 18.2503 82.3726 17.8916C82.8302 17.5329 83.3807 17.2422 84.0239 17.0195C84.6672 16.7845 85.3722 16.667 86.1392 16.667C86.5845 16.667 86.9927 16.7227 87.3638 16.834C87.7472 16.9329 88.0936 17.069 88.4028 17.2422C88.7244 17.4154 89.0028 17.6133 89.2378 17.8359C89.4728 18.0462 89.6707 18.2627 89.8315 18.4854C89.9924 18.7204 90.1284 18.9678 90.2397 19.2275C90.3387 19.4502 90.4191 19.7038 90.481 19.9883C90.5428 20.2728 90.5614 20.5635 90.5366 20.8604C89.5965 20.8851 88.8358 20.9036 88.2544 20.916C87.6854 20.9284 87.2401 20.9346 86.9185 20.9346H86.0835H85.4526C85.23 20.9346 84.9393 20.9408 84.5806 20.9531C84.2218 20.9655 83.7827 20.984 83.2632 21.0088C83.325 21.5036 83.4797 21.887 83.7271 22.1592C83.9868 22.4189 84.259 22.6169 84.5435 22.7529C84.8651 22.9014 85.2176 22.988 85.6011 23.0127ZM83.9312 19.6729C84.327 19.6976 84.6548 19.7161 84.9146 19.7285C85.1867 19.7409 85.4093 19.7533 85.5825 19.7656C85.7681 19.778 85.9165 19.7842 86.0278 19.7842H86.4917C86.8009 19.7842 87.3761 19.7656 88.2173 19.7285C88.1802 19.1842 88.0627 18.7699 87.8647 18.4854C87.6792 18.2008 87.4813 17.9906 87.271 17.8545C87.0236 17.7061 86.7515 17.6195 86.4546 17.5947C85.6506 17.6071 85.0506 17.7741 84.6548 18.0957C84.2713 18.4173 84.0301 18.943 83.9312 19.6729Z" fill="url(#paint1_linear_604_19596)"/>
</g>
<defs>
<filter id="filter0_d_604_19596" x="0" y="0" width="96" height="45" filterUnits="userSpaceOnUse" color-interpolation-filters="sRGB">
<feFlood flood-opacity="0" result="BackgroundImageFix"/>
<feColorMatrix in="SourceAlpha" type="matrix" values="0 0 0 0 0 0 0 0 0 0 0 0 0 0 0 0 0 0 127 0" result="hardAlpha"/>
<feOffset dy="4"/>
<feGaussianBlur stdDeviation="2"/>
<feComposite in2="hardAlpha" operator="out"/>
<feColorMatrix type="matrix" values="0 0 0 0 0 0 0 0 0 0 0 0 0 0 0 0 0 0 0.25 0"/>
<feBlend mode="normal" in2="BackgroundImageFix" result="effect1_dropShadow_604_19596"/>
<feBlend mode="normal" in="SourceGraphic" in2="effect1_dropShadow_604_19596" result="shape"/>
</filter>
<linearGradient id="paint0_linear_604_19596" x1="4" y1="19.0968" x2="92.0028" y2="17.4552" gradientUnits="userSpaceOnUse">
<stop stop-opacity="0"/>
<stop offset="0.495"/>
<stop offset="1" stop-opacity="0"/>
</linearGradient>
<linearGradient id="paint1_linear_604_19596" x1="0" y1="16" x2="96" y2="16" gradientUnits="userSpaceOnUse">
<stop offset="0.0659998" stop-opacity="0.18"/>
<stop offset="0.261" stop-opacity="0.7"/>
<stop offset="0.526" stop-opacity="0.09"/>
<stop offset="0.826" stop-opacity="0.7"/>
<stop offset="1" stop-opacity="0"/>
</linearGradient>
</defs>
</svg>
